<svg width="24" height="24" viewBox="0 0 24 24" fill="none" xmlns="http://www.w3.org/2000/svg">
<g clip-path="url(#clip0_111_48)">
<path d="M12 15C13.6569 15 15 13.6569 15 12C15 10.3431 13.6569 9 12 9C10.3431 9 9 10.3431 9 12C9 13.6569 10.3431 15 12 15Z" stroke="white" stroke-width="2" stroke-linecap="round" stroke-linejoin="round"/>
<path d="M19 7C20.1046 7 21 6.10457 21 5C21 3.89543 20.1046 3 19 3C17.8954 3 17 3.89543 17 5C17 6.10457 17.8954 7 19 7Z" stroke="white" stroke-width="2" stroke-linecap="round" stroke-linejoin="round"/>
<path d="M5 21C6.10457 21 7 20.1046 7 19C7 17.8954 6.10457 17 5 17C3.89543 17 3 17.8954 3 19C3 20.1046 3.89543 21 5 21Z" stroke="white" stroke-width="2" stroke-linecap="round" stroke-linejoin="round"/>
<path d="M10.4 21.9C12.3228 22.2159 14.2959 21.9632 16.077 21.173C17.8581 20.3827 19.3695 19.0893 20.4255 17.4517C21.4815 15.8142 22.0361 13.9037 22.0211 11.9553C22.0061 10.0068 21.4221 8.10512 20.341 6.48401" stroke="white" stroke-width="2" stroke-linecap="round" stroke-linejoin="round"/>
<path d="M13.5 2.09999C11.5851 1.80757 9.62649 2.0776 7.86216 2.87729C6.09784 3.67697 4.60375 4.97187 3.56144 6.60465C2.51914 8.23742 1.9735 10.1378 1.99082 12.0748C2.00814 14.0118 2.58767 15.9021 3.659 17.516" stroke="white" stroke-width="2" stroke-linecap="round" stroke-linejoin="round"/>
</g>
<defs>
<clipPath id="clip0_111_48">
<rect width="24" height="24" fill="white"/>
</clipPath>
</defs>
</svg>
