<svg width="25" height="24" viewBox="0 0 25 24" fill="none" xmlns="http://www.w3.org/2000/svg">
<path d="M21 9.99999V7.99999C20.9996 7.64927 20.9071 7.3048 20.7315 7.00116C20.556 6.69751 20.3037 6.44536 20 6.26999L13 2.26999C12.696 2.09446 12.3511 2.00204 12 2.00204C11.6489 2.00204 11.304 2.09446 11 2.26999L4 6.26999C3.69626 6.44536 3.44398 6.69751 3.26846 7.00116C3.09294 7.3048 3.00036 7.64927 3 7.99999V16C3.00036 16.3507 3.09294 16.6952 3.26846 16.9988C3.44398 17.3025 3.69626 17.5546 4 17.73L11 21.73C11.304 21.9055 11.6489 21.9979 12 21.9979C12.3511 21.9979 12.696 21.9055 13 21.73L15 20.59" stroke="white" stroke-width="2" stroke-linecap="round" stroke-linejoin="round"/>
<path d="M7.5 4.27L16.5 9.42" stroke="white" stroke-width="2" stroke-linecap="round" stroke-linejoin="round"/>
<path d="M3.28999 7L12 12L20.71 7" stroke="white" stroke-width="2" stroke-linecap="round" stroke-linejoin="round"/>
<path d="M12 22V12" stroke="white" stroke-width="2" stroke-linecap="round" stroke-linejoin="round"/>
<path d="M18.6 18.7368C18.9778 19.2671 19.5045 19.6587 20.1055 19.8564C20.7065 20.054 21.3513 20.0475 21.9487 19.8379C22.546 19.6284 23.0656 19.2262 23.4337 18.6886C23.8019 18.1509 24 17.5049 24 16.8421C24 16.0883 23.7155 15.3654 23.2092 14.8324C22.7028 14.2994 22.0161 14 21.3 14C20.502 14 19.776 14.3411 19.254 14.8905L18 16.2105" stroke="white" stroke-width="2" stroke-linecap="round" stroke-linejoin="round"/>
<path d="M18 14V16H20" stroke="white" stroke-width="2" stroke-linecap="round" stroke-linejoin="round"/>
</svg>
