<svg width="24" height="24" viewBox="0 0 24 24" fill="none" xmlns="http://www.w3.org/2000/svg">
<path d="M9.29999 6.20001C10.0821 6.77662 11.0283 7.0877 12 7.0877C12.9717 7.0877 13.9179 6.77662 14.7 6.20001" stroke="white" stroke-width="2" stroke-linecap="round" stroke-linejoin="round"/>
<path d="M7.89999 10.7C8.79999 11.5 10.3 12 12 12C13.7 12 15.2 11.5 16.1 10.7" stroke="white" stroke-width="2" stroke-linecap="round" stroke-linejoin="round"/>
<path d="M13.9 3.49999C13.833 3.05124 13.61 2.64046 13.2702 2.33977C12.9304 2.03909 12.4955 1.86774 12.042 1.8558C11.5884 1.84387 11.1451 1.99211 10.79 2.27451C10.4348 2.5569 10.1905 2.95539 10.1 3.39999L7.1 13.4C7 13.6 7 13.8 7 14C7 15.7 9.2 17 12 17C14.8 17 17 15.7 17 14C17 13.8 17 13.6 16.9 13.5L13.9 3.49999Z" stroke="white" stroke-width="2" stroke-linecap="round" stroke-linejoin="round"/>
<path d="M7.5 12.2L2.8 14.9C2.3 15.2 2 15.6 2 16C2 16.4 2.3 16.8 2.8 17.1L10.4 21.6C11.3 22.1 12.5 22.1 13.4 21.6L21 17.1C21.7 16.8 22 16.4 22 16C22 15.6 21.7 15.2 21.2 14.9L16.5 12.1" stroke="white" stroke-width="2" stroke-linecap="round" stroke-linejoin="round"/>
</svg>
