<svg width="24" height="24" viewBox="0 0 24 24" fill="none" xmlns="http://www.w3.org/2000/svg">
<path d="M9.06 11.9L17.13 3.84001C17.3931 3.56845 17.7075 3.35195 18.0551 3.20312C18.4026 3.05428 18.7763 2.97609 19.1544 2.97308C19.5324 2.97008 19.9073 3.04233 20.2572 3.18562C20.6071 3.32892 20.9249 3.5404 21.1923 3.80774C21.4596 4.07508 21.6711 4.39294 21.8144 4.74281C21.9577 5.09268 22.0299 5.46757 22.0269 5.84563C22.0239 6.2237 21.9457 6.59739 21.7969 6.94494C21.6481 7.29249 21.4316 7.60695 21.16 7.87001L13.1 15.95" stroke="white" stroke-width="2" stroke-linecap="round" stroke-linejoin="round"/>
<path d="M7.06999 14.94C5.40999 14.94 4.06999 16.29 4.06999 17.96C4.06999 19.29 1.56999 19.48 2.06999 19.98C3.14999 21.08 4.55999 22 6.06999 22C8.26999 22 10.07 20.2 10.07 17.96C10.0713 17.5647 9.99475 17.1731 9.8447 16.8074C9.69465 16.4417 9.47403 16.1091 9.19546 15.8287C8.91688 15.5482 8.5858 15.3254 8.22111 15.1729C7.85642 15.0205 7.46527 14.9413 7.06999 14.94Z" stroke="white" stroke-width="2" stroke-linecap="round" stroke-linejoin="round"/>
</svg>
