<svg width="24" height="20" viewBox="0 0 24 20" fill="none" xmlns="http://www.w3.org/2000/svg"><path d="M11.363 19.337c-.3 0-.6-.112-.863-.3l-8.962-7.2A2.365 2.365 0 0 1 .638 10c0-.713.337-1.387.9-1.838L10.5.962a1.32 1.32 0 0 1 1.425-.15c.487.226.75.713.75 1.238v3.825c3.037.487 5.813 1.838 7.912 3.9 1.463 1.5 2.175 2.887 2.588 4.987.075.45.15 1.276.15 2.363 0 .488-.262.975-.712 1.2-.45.225-.976.225-1.388-.037-3.15-2.026-6.075-3.263-8.55-3.638v3.375c0 .525-.3.975-.75 1.238a2.895 2.895 0 0 1-.563.074Zm-.375-16.582-8.363 6.72a.6.6 0 0 0-.3.525c0 .113.038.338.263.525l8.4 6.75v-3.6c0-.225.112-.45.262-.6.188-.15.412-.262.637-.225 3.488.225 7.125 2.025 9.75 3.675-.037-.862-.075-1.275-.112-1.425-.337-1.762-.9-2.85-2.137-4.125C17.4 9.025 14.7 7.75 11.737 7.45a.848.848 0 0 1-.75-.825v-3.87Z" fill="#fff"/><path d="M11.363 19.337c-.3 0-.6-.112-.863-.3l-8.962-7.2A2.365 2.365 0 0 1 .638 10c0-.713.337-1.387.9-1.838L10.5.962a1.32 1.32 0 0 1 1.425-.15c.487.226.75.713.75 1.238v3.825c3.037.487 5.813 1.838 7.912 3.9 1.463 1.5 2.175 2.887 2.588 4.987.075.45.15 1.276.15 2.363 0 .488-.262.975-.712 1.2-.45.225-.976.225-1.388-.037-3.15-2.026-6.075-3.263-8.55-3.638v3.375c0 .525-.3.975-.75 1.238a2.895 2.895 0 0 1-.563.074Zm-.375-16.582-8.363 6.72a.6.6 0 0 0-.3.525c0 .113.038.338.263.525l8.4 6.75v-3.6c0-.225.112-.45.262-.6.188-.15.412-.262.637-.225 3.488.225 7.125 2.025 9.75 3.675-.037-.862-.075-1.275-.112-1.425-.337-1.762-.9-2.85-2.137-4.125C17.4 9.025 14.7 7.75 11.737 7.45a.848.848 0 0 1-.75-.825v-3.87Z" stroke="#fff"/></svg>