<svg width="24" height="24" viewBox="0 0 24 24" fill="none" xmlns="http://www.w3.org/2000/svg">
<g clip-path="url(#clip0_133_6)">
<path d="M12.7062 11.5401L12.4764 10.6183C12.3545 10.1294 12.3901 9.62246 12.5754 9.20902C12.7608 8.79559 13.0806 8.50955 13.4646 8.41381C13.8485 8.31807 14.2652 8.42049 14.6229 8.69853C14.9807 8.97656 15.2501 9.40745 15.372 9.89639L15.6018 10.8182C15.4799 10.3292 15.5156 9.82228 15.7009 9.40885C15.8862 8.99542 16.206 8.70937 16.59 8.61363C16.974 8.5179 17.3906 8.62031 17.7484 8.89835C18.1061 9.17639 18.3755 9.60728 18.4974 10.0962L18.7273 11.018C18.6054 10.5291 18.641 10.0221 18.8263 9.60868C19.0116 9.19525 19.3314 8.9092 19.7154 8.81346C20.0994 8.71772 20.5161 8.82014 20.8738 9.09818C21.2315 9.37622 21.501 9.8071 21.6229 10.296L22.3123 13.0614C22.8 15.0172 22.6575 17.045 21.9162 18.6987C21.175 20.3524 19.8957 21.4966 18.3597 21.8795L16.9119 22.2405C14.885 22.7459 13.4567 22.26 12.038 21.1647L8.60457 18.496C8.26793 18.2069 8.01985 17.7804 7.91169 17.3049C7.80354 16.8293 7.8436 16.3412 8.02358 15.9415C8.20355 15.5418 8.50967 15.2612 8.87853 15.1578C9.24739 15.0543 9.65076 15.136 10.0051 15.3858L11.6837 16.6905M12.5913 11.0792L11.3273 6.00944C11.2054 5.5205 10.9359 5.08961 10.5782 4.81158C10.2205 4.53354 9.80381 4.43112 9.41983 4.52686C9.03585 4.6226 8.71602 4.90864 8.53071 5.32207C8.34539 5.73551 8.30977 6.24245 8.43168 6.7314L10.7299 15.9492" stroke="white" stroke-width="2" stroke-linecap="round" stroke-linejoin="round"/>
</g>
<defs>
<clipPath id="clip0_133_6">
<rect width="24" height="24" fill="white"/>
</clipPath>
</defs>
</svg>
