<svg><defs><font id="Impact" horiz-adv-x="1451"><font-face font-family="Impact" font-weight="400" font-stretch="condensed" units-per-em="2048" panose-1="2 11 8 6 3 9 2 5 2 4" ascent="1638" descent="-410" x-height="1327" cap-height="1620" bbox="-265 -677 2583 2392" underline-thickness="102" underline-position="-154" unicode-range="U+0020-FB02"/><glyph glyph-name=".notdef" horiz-adv-x="1536" d="M256 0v1280h1024V0H256zm32 32h960v1216H288V32z"/><glyph glyph-name="glyph1" horiz-adv-x="0"/><glyph glyph-name="glyph2" horiz-adv-x="361"/><glyph glyph-name="space" horiz-adv-x="361"/><glyph glyph-name="exclam" unicode="!" horiz-adv-x="553" d="M516 1619 450 400H138L72 1619h444zM483 324V0H105v324h378z"/><glyph glyph-name="quotedbl" unicode="&quot;" horiz-adv-x="757" d="m89 1098-53 273v248h306v-248l-46-273H89zm379 0-53 273v248h306v-248l-47-273H468z"/><glyph glyph-name="numbersign" unicode="#" horiz-adv-x="1283" d="M36 1061h308l84 383h189l-84-383h355l82 383h189l-82-383h170V871h-206l-63-302h269V380H942L860 0H670l83 380H394L316 0H125l81 380H36v189h209l63 302H36v190zm461-190-63-301h356l62 301H497z"/><glyph glyph-name="dollar" unicode="$" horiz-adv-x="1121" d="M1019 1147H615v67q0 107-14 140t-60 33q-37 0-55.5-28.5T467 1273q0-95 38-133 37-38 218-148 154-93 210-142.5t94.5-140T1066 484q0-216-104-339T650-7v-152H464V-2Q302 14 181 122.5T60 501v79h404v-99q0-163 12.5-202.5T537 239q41 0 61 27.5t20 81.5q0 136-19 194.5T469 670Q284 786 217.5 840.5T102.5 994 54 1218q0 181 102.5 284T464 1629v129h186v-129q187-24 280-125.5t93-280.5q0-25-4-76z"/><glyph glyph-name="percent" unicode="%" horiz-adv-x="1419" d="M1103 1650 470-31H316l635 1681h152zm-471-307v-278q0-109-20.5-163.5t-88-95T345 766q-128 0-195 38.5T59.5 897 36 1052v291q0 120 24.5 177.5T155 1614t173 36q114 0 185-39.5t95-95.5 24-172zm-256 71q0 64-6.5 79t-35.5 15q-27 0-35-16t-8-78v-408q0-70 7-84t37-14q26 0 33.5 16t7.5 75v415zm1007-853V282q0-108-20.5-163t-88-95.5T1096-17q-127 0-194.5 39t-91 93T787 269v292q0 119 24.5 176.5t94.5 94 173 36.5q115 0 186-40t94.5-96 23.5-171zm-256 70q0 64-6.5 79.5T1085 726q-27 0-34.5-16t-7.5-79V223q0-69 7-83t36-14q27 0 34 15.5t7 75.5v414z"/><glyph glyph-name="ampersand" unicode="&amp;" horiz-adv-x="1180" d="M1152 615V342l-114-72L1180 0H807l-49 90Q570-34 402-34 226-34 131 83T36 365q0 132 56 207t168 122q-160 115-160 311 0 169 114 272t314 103q180 0 283.5-101T915 1022q0-164-126-291l143-258zM529 899q68 89 68 170 0 35-20 64t-56 29q-33 0-50-22t-17-67q0-94 75-174zm91-626L489 491q-75-68-75-147 0-57 23.5-85.5T507 230q49 0 113 43z"/><glyph glyph-name="quotesingle" unicode="'" horiz-adv-x="379" d="m89 1098-53 273v248h306v-248l-46-273H89z"/><glyph glyph-name="parenleft" unicode="(" horiz-adv-x="642" d="M605 1619v-211q-83 0-107.5-7t-36-32.5T450 1224V395q0-111 9-138.5t33.5-36.5 112.5-9V0H478Q302 0 219.5 32.5t-109 95.5T84 396v827q0 204 26 268t111 96 257 32h127z"/><glyph glyph-name="parenright" unicode=")" horiz-adv-x="642" d="M36 1619h127q172 0 257-32t111-96 26-268V396q0-205-26-268T422 32.5 163 0H36v211q89 0 113 9t33.5 36.5T192 395v829q0 119-12 144.5t-36.5 32.5-107.5 7v211z"/><glyph glyph-name="asterisk" unicode="*" horiz-adv-x="575" d="M352 1619v-161l148 51 45-118-148-62 93-132-100-74-101 133-99-133-105 74 94 137-149 57 43 118 153-51v161h126z"/><glyph glyph-name="plus" unicode="+" horiz-adv-x="1092" d="M64 930h359v360h244V930h361V686H667V328H423v358H64v244z"/><glyph glyph-name="comma" unicode="," horiz-adv-x="344" d="M307 317V172q0-114-27-187t-93.5-124T36-207v116q60 34 68 91H36v317h271z"/><glyph glyph-name="hyphen" unicode="-" horiz-adv-x="603" d="M567 803V524H36v279h531z"/><glyph glyph-name="hyphen" unicode="­" horiz-adv-x="603" d="M567 803V524H36v279h531z"/><glyph glyph-name="period" unicode="." horiz-adv-x="378" d="M341 330V0H36v330h305z"/><glyph glyph-name="slash" unicode="/" horiz-adv-x="810" d="M798 1650 318-31H12l483 1681h303z"/><glyph glyph-name="zero" unicode="0" horiz-adv-x="1098" d="M1025 1071V531q0-184-20-268t-83-157T770 1 571-31Q426-31 330 2.5T177 107 96 256.5 72 506v565q0 223 38.5 334t153 178 277.5 67q133 0 238-46.5T936 1490t70.5-151 18.5-268zm-404 136q0 129-12.5 161.5T550 1401q-45 0-59.5-34.5T476 1207V417q0-141 13.5-170t58.5-29 59 34 14 153v802z"/><glyph glyph-name="one" unicode="1" horiz-adv-x="780" d="M695 1619V0H291v868q0 188-9 226t-49.5 57.5T52 1171H12v189q293 63 445 259h238z"/><glyph glyph-name="two" unicode="2" horiz-adv-x="1028" d="M943 276V0H54v231q395 646 469.5 799.5T598 1270q0 66-22.5 98.5T507 1401t-68.5-36-22.5-143v-154H54v59q0 136 14 214.5t69 154.5 143 115 211 39q241 0 364.5-119.5T979 1228q0-139-69.5-294T500 276h443z"/><glyph glyph-name="three" unicode="3" horiz-adv-x="1086" d="M831 917q92-31 137-101.5t45-330.5q0-193-44-299.5t-152-162T540-32q-192 0-301.5 64.5t-144 158T60 515v128h404V380q0-105 12.5-133.5T532 218q47 0 62 36t15 188v112q0 93-21 136t-62 56.5T367 762v235q144 0 178 11t49 48 15 116v90q0 85-17.5 112t-54.5 27q-42 0-57.5-28.5T464 1251v-133H60v138q0 232 106 313.5t337 81.5q289 0 392-113t103-314q0-136-37-196.5T831 917z"/><glyph glyph-name="four" unicode="4" horiz-adv-x="1023" d="M896 1619V561h115V285H896V0H492v285H12v276l349 1058h535zM492 561v689L314 561h178z"/><glyph glyph-name="five" unicode="5" horiz-adv-x="1099" d="M954 1619v-259H453v-275q94 111 242 111 167 0 252.5-93.5T1033 743V512q0-172-16.5-252.5t-70.5-149-150.5-105T560-31q-156 0-275 54.5T116 186 66 520v88h404V507q0-157 11-223t76-66q30 0 48.5 19t20 41 3.5 191v321q0 91-19 124t-63 33q-28 0-47-17t-24.5-36.5T470 803H70l17 816h867z"/><glyph glyph-name="six" unicode="6" horiz-adv-x="1109" d="M1042 1189H638q0 113-2.5 142.5t-24 49.5-58.5 20q-31 0-51-19t-23-49-3-121V954q31 65 91 97.5t148 32.5q111 0 196-60t108-144 23-227V524q0-170-13-253t-69.5-153.5T804.5 8 575-31q-163 0-267 45T147.5 143.5 81.5 321 72 682v224q0 289 8.5 386.5T150 1477t166.5 130.5T560 1651q170 0 279-55t156-155 47-252zM638 684q0 86-19 118t-62 32q-42 0-61.5-30.5T476 684V391q0-107 18.5-140t61.5-33q26 0 54 25.5T638 381v303z"/><glyph glyph-name="seven" unicode="7" horiz-adv-x="802" d="M784 1619v-353L526 0H124l287 1328H12v291h772z"/><glyph glyph-name="eight" unicode="8" horiz-adv-x="1095" d="M843 918q89-36 137-107.5t48-340.5q0-196-38-289T842 28.5 547-31q-180 0-285 57T111.5 177 66 490q0 147 22.5 255T230 918q-75 36-112.5 114.5T80 1232q0 209 116 313.5T543 1650q267 0 369-111t102-317q0-131-33.5-189T843 918zm-227 348q0 82-14.5 108.5T546 1401q-40 0-54-28.5T478 1266v-123q0-73 16-101t54-28q40 0 54 27.5t14 113.5v111zm8-673q0 93-19 123.5T545 747q-40 0-57.5-29.5T470 593V383q0-105 19.5-135t61.5-30q43 0 58 30.5T624 386v207z"/><glyph glyph-name="nine" unicode="9" horiz-adv-x="1109" d="M72 430h404q0-113 3-142.5t24.5-49.5 58.5-20q31 0 51 19t22.5 49 2.5 121v258q-30-65-90-97.5T399 535q-111 0-196 60T95 739 72 966v129q0 170 13.5 253t69.5 153.5T310 1611t230 39q162 0 266-45t161-129.5 66-177.5 9-360V713q0-289-8-386.5T964.5 142 798 11.5 555-32q-171 0-279.5 55t-156 155T72 430zm404 505q0-102 26.5-126t54.5-24q42 0 61.5 30.5T638 935v293q0 107-18.5 140t-61.5 33q-26 0-54-25.5T476 1238V935z"/><glyph glyph-name="colon" unicode=":" horiz-adv-x="414" d="M377 1054V725H72v329h305zm0-724V0H72v330h305z"/><glyph glyph-name="semicolon" unicode=";" horiz-adv-x="414" d="M377 1054V725H72v329h305zm-17-737V172q0-114-27-187t-93.5-124T89-207v116q60 34 68 91H89v317h271z"/><glyph glyph-name="semicolon" unicode=";" horiz-adv-x="414" d="M377 1054V725H72v329h305zm-17-737V172q0-114-27-187t-93.5-124T89-207v116q60 34 68 91H89v317h271z"/><glyph glyph-name="less" unicode="&lt;" horiz-adv-x="1092" d="M1027 324 65 725v203l962 402v-264L433 827l594-238V324z"/><glyph glyph-name="equal" unicode="=" horiz-adv-x="1092" d="M65 1122h962V878H65v244zm0-382h962V496H65v244z"/><glyph glyph-name="greater" unicode="&gt;" horiz-adv-x="1092" d="m65 1330 962-400V726L65 324v264l594 239-594 238v265z"/><glyph glyph-name="question" unicode="?" horiz-adv-x="1075" d="M488 1097H84q2 213 36 311t147.5 171.5T557 1653q127 0 222-40t151-111.5 82-154.5 26-260V889q0-135-25-217T904 528t-197-62q-147 0-219 115V407H111v445h368q2-92 66-92 50 0 63.5 40.5T622 999v269q0 89-12.5 119.5T560 1418q-46 0-59-40.5T488 1195v-98zm0-773V0H111v324h377z"/><glyph glyph-name="at" unicode="@" horiz-adv-x="1587" d="m1193 1308-127-792q-4-26-4-35 0-39 37-39 60 0 130.5 57.5t123 170.5 52.5 264q0 255-153.5 412.5T849 1504q-289 0-477-199.5T184 772q0-321 183.5-509.5T835 74q140 0 266 47t239 140h210Q1420 95 1227.5 10T836-75q-341 0-570.5 230.5T36 763q0 374 214 632t595 258q227 0 371-87.5t240.5-244T1553 934q0-307-171-483.5T1039 274q-129 0-157 116-68-66-117.5-91.5T646 273q-149 0-239 116t-90 310q0 250 125.5 444.5T748 1338q72 0 130-36t101-108l16 114h198zM525 642q0-94 40-159t107-65q65 0 114.5 51T878 678.5 920 981q0 90-38 145.5T779 1182q-122 0-188-171.5T525 642z"/><glyph glyph-name="A" unicode="A" horiz-adv-x="1040" d="M811 1619 1052 0H621l-21 291H449L424 0H-12l214 1619h609zM588 578q-32 275-64 679-64-464-80-679h144z"/><glyph glyph-name="B" unicode="B" horiz-adv-x="1131" d="M84 1619h420q199 0 301.5-31T971 1462.5t63-304.5q0-142-44.5-198T814 874q146-33 198-109.5t52-234.5V380q0-164-37.5-243T907 29 571 0H84v1619zm421-277V982q27 1 42 1 62 0 79 30.5t17 174.5q0 76-14 106.5t-36.5 38.5-87.5 9zm0-612V277q89 3 113.5 28T643 428v151q0 104-22 126t-116 25z"/><glyph glyph-name="C" unicode="C" horiz-adv-x="1134" d="M1067 913H646v282q0 123-13.5 153.5T573 1379q-52 0-66-37t-14-160V430q0-118 14-154t63-36q47 0 61.5 36T646 445v203h421v-63q0-251-35.5-356t-157-184T575-34q-185 0-305 67T111 218.5 72 575v473q0 175 12 262.5t71.5 168.5 165 127.5T563 1653q186 0 307-72t159-179.5 38-334.5V913z"/><glyph glyph-name="D" unicode="D" horiz-adv-x="1132" d="M84 1619h315q305 0 412.5-28t163.5-92 70-142.5 14-308.5V481q0-218-20.5-291.5T967 74.5t-126-58T615 0H84v1619zm421-277V277q91 0 112 36.5T638 512v629q0 110-7 141t-32 45.5-94 14.5z"/><glyph glyph-name="E" unicode="E" horiz-adv-x="851" d="M84 1619h702v-324H505V988h263V680H505V324h309V0H84v1619z"/><glyph glyph-name="F" unicode="F" horiz-adv-x="815" d="M84 1619h713v-324H505V988h260V680H505V0H84v1619z"/><glyph glyph-name="G" unicode="G" horiz-adv-x="1129" d="M1050 1023H629v147q0 139-12 174t-57 35q-39 0-53-30t-14-154V418q0-109 14-143.5t56-34.5q46 0 62.5 39T642 431v192h-85v246h493V0H785l-39 116Q703 41 637.5 3.5T483-34q-106 0-198.5 51.5T144 145 84 304.5 72 555v481q0 232 25 337t143.5 192.5T547 1653q185 0 307-76t159-180.5 37-303.5v-70z"/><glyph glyph-name="H" unicode="H" horiz-adv-x="1137" d="M1052 1619V0H631v680H505V0H84v1619h421v-579h126v579h421z"/><glyph glyph-name="I" unicode="I" horiz-adv-x="590" d="M505 1619V0H84v1619h421z"/><glyph glyph-name="J" unicode="J" horiz-adv-x="678" d="M599 1619V537q0-243-5-312.5T548.5 99t-110-77.5T229 0H18v283q38-3 55-3 45 0 71 22t30 54 4 124v1139h421z"/><glyph glyph-name="K" unicode="K" horiz-adv-x="1099" d="M1087 1619 846 888 1110 0H675L505 694V0H84v1619h421V990l187 629h395z"/><glyph glyph-name="L" unicode="L" horiz-adv-x="779" d="M505 1619V324h256V0H84v1619h421z"/><glyph glyph-name="M" unicode="M" horiz-adv-x="1468" d="M1383 1619V0h-368v1093L868 0H607L452 1068V0H84v1619h545q24-146 51-344l58-412 96 756h549z"/><glyph glyph-name="N" unicode="N" horiz-adv-x="1109" d="M1024 1619V0H655L436 736V0H84v1619h352l236-729v729h352z"/><glyph glyph-name="O" unicode="O" horiz-adv-x="1119" d="M1046 671q0-244-11.5-345.5t-72-185.5T799 11 559-34Q429-34 325.5 8.5T159 136 84 321 72 671v277q0 244 11.5 345.5t72 185.5T319 1608t240 45q130 0 233.5-42.5T959 1483t75-185 12-350V671zm-421 532q0 113-12.5 144.5T561 1379q-33 0-50.5-25.5T493 1203V447q0-141 11.5-174t53.5-33q43 0 55 38t12 181v744z"/><glyph glyph-name="P" unicode="P" horiz-adv-x="1028" d="M84 1619h424q172 0 264.5-27t139-78 63-123.5T991 1166v-141q0-155-32-226T841.5 690 618 652H505V0H84v1619zm421-277V930q18-1 31-1 58 0 80.5 28.5T639 1076v133q0 83-26 108t-108 25z"/><glyph glyph-name="Q" unicode="Q" horiz-adv-x="1119" d="M1047 0v-196H729q-115 0-162 17.5T503.5-126 487 0Q344 4 241 75T105 255.5 72 583v501q0 165 19.5 251.5t80.5 163T329 1614t213 39q141 0 251.5-48t165-122 71-153.5T1046 1093V567q0-216-21-293t-80.5-122.5T786 82q3-54 22.5-68T901 0h146zM625 1203q0 113-12.5 144.5T561 1379q-33 0-50.5-25.5T493 1203V447q0-141 11.5-174t53.5-33q43 0 55 38t12 181v744z"/><glyph glyph-name="R" unicode="R" horiz-adv-x="1103" d="M84 1619h298q298 0 403.5-23t172-117.5T1024 1177q0-189-47-254t-185-78q125-31 168-83t53.5-95.5T1024 427V0H633v538q0 130-20.5 161T505 730V0H84v1619zm421-277V982q71 0 99.5 19.5T633 1128v89q0 77-27.5 101T505 1342z"/><glyph glyph-name="S" unicode="S" horiz-adv-x="1059" d="M976 1129H585v120q0 84-15 107t-50 23q-38 0-57.5-31t-19.5-94q0-81 22-122 21-41 119-99 281-167 354-274t73-345q0-173-40.5-255T814 21.5 544-34q-169 0-288.5 64T99 193 62 474v106h391V383q0-91 16.5-117t58.5-26 62.5 33 20.5 98q0 143-39 187-40 44-197 147-157 104-208 151T82.5 986 49 1198q0 186 47.5 272T250 1604.5t256 48.5q164 0 279.5-53t153-133.5T976 1193v-64z"/><glyph glyph-name="T" unicode="T" horiz-adv-x="944" d="M932 1619v-324H682V0H261v1295H12v324h920z"/><glyph glyph-name="U" unicode="U" horiz-adv-x="1120" d="M1041 1619V537q0-184-12-258.5t-71-153-155.5-119T575-34q-145 0-256 48T153 139 88 301.5 78 661v958h421V405q0-106 11.5-135.5T557 240q40 0 51.5 32.5T620 426v1193h421z"/><glyph glyph-name="V" unicode="V" horiz-adv-x="1072" d="M1084 1619 870 0H231L-12 1619h444q77-669 110-1131 33 467 69 830l29 301h444z"/><glyph glyph-name="W" unicode="W" horiz-adv-x="1668" d="M1668 1619 1481 0H955q-72 373-127 848Q803 645 711 0H188L0 1619h409l43-565 44-545q23 423 116 1110h438q9-71 46-534l46-615q35 587 117 1149h409z"/><glyph glyph-name="X" unicode="X" horiz-adv-x="988" d="M937 1619 790 903 1012 0H622q-70 242-128 589-16-153-44-325L410 0H0l152 903L0 1619h407q11-67 44-223 26-119 43-218l90 441h353z"/><glyph glyph-name="Y" unicode="Y" horiz-adv-x="969" d="M981 1619 674 586V0H284v586L-12 1619h387q91-473 102-637 35 259 117 637h387z"/><glyph glyph-name="Z" unicode="Z" horiz-adv-x="813" d="M788 1619v-324L474 324h314V0H12v235l324 1060H50v324h738z"/><glyph glyph-name="bracketleft" unicode="[" horiz-adv-x="578" d="M541 1619v-249h-91V249h91V0H84v1619h457z"/><glyph glyph-name="backslash" unicode="\" horiz-adv-x="810" d="M12 1650h303L798-31H493z"/><glyph glyph-name="bracketright" unicode="]" horiz-adv-x="578" d="M36 0v249h91v1121H36v249h457V0H36z"/><glyph glyph-name="asciicircum" unicode="^" horiz-adv-x="990" d="m12 820 376 799h223l366-799H693l-198 489-197-489H12z"/><glyph glyph-name="underscore" unicode="_" horiz-adv-x="1131" d="M-12-154h1155v-102H-12v102z"/><glyph glyph-name="grave" unicode="`" horiz-adv-x="683" d="M0 1772h356l176-271H329z"/><glyph glyph-name="a" unicode="a" horiz-adv-x="1032" d="M433 813H54v89q0 154 35.5 237.5T232 1287t278 64q205 0 309-72.5t125-178T965 666V0H572v118q-37-71-95.5-106.5T337-24q-106 0-194.5 59.5T54 296v109q0 149 47 203t233 126q199 78 213 105t14 110q0 104-15.5 135.5T494 1116q-41 0-51-26.5T433 952V813zm128-182q-97-71-112.5-119T433 374q0-103 13.5-133t53.5-30q38 0 49.5 23.5T561 358v273z"/><glyph glyph-name="b" unicode="b" horiz-adv-x="1064" d="M476 1619v-383q50 58 111.5 86.5T721 1351q83 0 144-26t93-73 38.5-92 6.5-192V370q0-146-19.5-217.5T892 28.5 721-24q-71 0-132.5 31T476 100L450 0H72v1619h404zm123-669q0 103-13 134.5t-51 31.5q-37 0-48-27.5T476 950V378q0-107 12.5-137t49.5-30q38 0 49.5 31T599 391v559z"/><glyph glyph-name="c" unicode="c" horiz-adv-x="1013" d="M965 826H584v153q0 80-13 108.5t-48 28.5-47-25-12-112V353q0-71 18-106.5t53-35.5q41 0 55.5 37T605 388v158h360q-1-159-11.5-238.5t-67-163T739 18.5 514-24q-171 0-271 58.5t-141.5 164T60 498v377q0 169 34 255t145 153.5 270 67.5q158 0 270-67t149-169 37-289z"/><glyph glyph-name="d" unicode="d" horiz-adv-x="1064" d="M991 1619V0H587v96Q529 36 465 6T331-24q-94 0-163 49.5T79.5 140 60 352v621q0 153 19.5 217t89.5 112.5 167 48.5q75 0 137.5-27t113.5-81v376h404zM587 993q0 73-12.5 98t-49.5 25q-36 0-48.5-22.5T464 993V343q0-81 12-106.5t46-25.5q39 0 52 28.5T587 379v614z"/><glyph glyph-name="e" unicode="e" horiz-adv-x="1047" d="M987 640H464V353q0-90 13-116t50-26q46 0 61.5 34.5T604 379v175h383v-98q0-123-15.5-189T899 126 754.5 13.5 535-24q-128 0-226 37T156.5 114.5 81 256.5 60 482v387q0 174 47 274.5t154 154 246 53.5q170 0 280.5-64.5t155-171T987 816V640zM582 856v97q0 103-11 133t-45 30q-42 0-52-25.5T464 953v-97h118z"/><glyph glyph-name="f" unicode="f" horiz-adv-x="592" d="M587 1619v-205q-125 0-147.5-11.5T417 1337v-42h170v-210h-96V0H87v1085H4v210h83q0 131 9 175t44.5 78.5T240 1601t199 18h148z"/><glyph glyph-name="g" unicode="g" horiz-adv-x="1062" d="M990 1327V305q0-207-9.5-267.5T913-90.5t-161.5-103T491-229q-193 0-310 65.5T60 94h392q0-88 64-88 46 0 61 27t15 113v100q-52-47-109.5-71T362 151q-109 0-179.5 44T86 310.5 60 514v482q0 189 68 272t207 83q76 0 138.5-31t111.5-93l29 100h376zM585 975q0 91-10.5 116t-46.5 25q-35 0-49.5-28.5T464 975V529q0-89 11-115.5t46-26.5q40 0 52 32t12 145v411z"/><glyph glyph-name="h" unicode="h" horiz-adv-x="1073" d="M476 1619v-364q52 48 112.5 72t129.5 24q106 0 180.5-54t91-124.5T1006 915V0H602v934q0 116-11.5 149t-51.5 33q-37 0-50-34t-13-135V0H72v1619h404z"/><glyph glyph-name="i" unicode="i" horiz-adv-x="561" d="M488 1619v-211H72v211h416zm0-292V0H72v1327h416z"/><glyph glyph-name="j" unicode="j" horiz-adv-x="573" d="M500 1619v-211H84v211h416zm0-292V277q0-185-7.5-250.5t-46-115-103-73.5T150-186H-6V26q72 0 81 16t9 200v1085h416z"/><glyph glyph-name="k" unicode="k" horiz-adv-x="979" d="M942 1327 778 798 991 0H602L476 578V0H72v1619h404V939l126 388h340z"/><glyph glyph-name="l" unicode="l" horiz-adv-x="561" d="M488 1619V0H72v1619h416z"/><glyph glyph-name="m" unicode="m" horiz-adv-x="1579" d="m471 1327-7-126q47 75 112 112.5t148 37.5q162 0 255-150 51 75 115 112.5t142 37.5q103 0 170.5-50t86.5-122.5 19-235.5V0h-392v865q0 170-11.5 210.5T1055 1116q-43 0-55.5-40T987 865V0H595v843q0 195-9.5 234t-52.5 39q-27 0-46-20.5t-21-50-2-125.5V0H72v1327h399z"/><glyph glyph-name="n" unicode="n" horiz-adv-x="1071" d="m483 1327-7-122q44 73 107.5 109.5T730 1351q104 0 170-49t85-123.5 19-248.5V0H600v919q0 137-9 167t-50 30q-43 0-54-34.5T476 897V0H72v1327h411z"/><glyph glyph-name="o" unicode="o" horiz-adv-x="1047" d="M986 861V536q0-179-18-262.5t-77-156-151.5-107T527-24Q393-24 300 5.5t-144.5 89-73.5 144T60 492v340q0 185 40 289t144 167 266 63q136 0 233.5-40.5T894 1205t72.5-134T986 861zM582 961q0 102-11 128.5t-47 26.5-48-26.5T464 961V362q0-94 12-122.5t47-28.5q36 0 47.5 26T582 349v612z"/><glyph glyph-name="p" unicode="p" horiz-adv-x="1063" d="m483 1327-7-117q54 71 119 106t142 35q94 0 162.5-50.5T985 1184t17-224V401q0-181-21.5-257.5t-88-122T732-24q-75 0-139 35T476 115v-304H72v1516h411zm115-386q0 123-9 149t-50 26q-40 0-51.5-30T476 941V391q0-120 12-150t52-30q39 0 48.5 27.5T598 372v569z"/><glyph glyph-name="q" unicode="q" horiz-adv-x="1061" d="M988 1327V-189H584v296Q525 21 475.5-1.5T353-24q-106 0-175.5 50T84 155.5 60 399v585q0 135 18 201.5t86.5 116T327 1351q76 0 140-34t117-103l7 113h397zM584 966q0 88-13.5 119t-48.5 31q-34 0-46-27t-12-123V375q0-107 12-135.5t49-28.5q35 0 47 29.5T584 369v597z"/><glyph glyph-name="r" unicode="r" horiz-adv-x="733" d="m476 1327-16-174q88 187 255 198V884q-111 0-163-30t-64-83.5T476 524V0H72v1327h404z"/><glyph glyph-name="s" unicode="s" horiz-adv-x="964" d="M897 903H539v72q0 92-10.5 116.5T476 1116q-34 0-51-22.5t-17-67.5q0-61 8.5-89.5t51-62.5T642 775q176-86 231-162t55-221q0-162-42-244.5t-140.5-127T508-24q-154 0-263.5 48T94 154 53 402v64h358v-84q0-107 13.5-139t53.5-32q43 0 60 21.5t17 90.5q0 95-22 119-23 24-235 142Q120 684 81 765.5T42 959q0 159 42 234.5T226.5 1310t233.5 41q132 0 224.5-33.5t142-88.5 60-102T897 980v-77z"/><glyph glyph-name="t" unicode="t" horiz-adv-x="624" d="M498 1504v-209h109v-210H498V375q0-131 13.5-146T624 214V0H461Q323 0 264 11.5t-104 53-56 95T93 411v674H6v210h87v209h405z"/><glyph glyph-name="u" unicode="u" horiz-adv-x="1070" d="M997 1327V0H586l7 110Q551 43 489.5 9.5T348-24q-91 0-151 32t-88.5 85T73 203.5 66 432v895h404V424q0-155 9.5-184t51.5-29q45 0 53.5 30t8.5 193v893h404z"/><glyph glyph-name="v" unicode="v" horiz-adv-x="895" d="M907 1327 718 0H191L-12 1327h361l113-968q13 106 44 520 18 231 40 448h361z"/><glyph glyph-name="w" unicode="w" horiz-adv-x="1371" d="M1377 1327 1216 0H777q-36 243-83 640-16-174-45-352L604 0H165L-6 1327h348q4-52 88-759 6 72 90 759h335l82-759q19 332 92 759h348z"/><glyph glyph-name="x" unicode="x" horiz-adv-x="888" d="M872 1327 711 693 906 0H513q-58 262-88 451-40-236-87-451H0l174 693L0 1327h338q81-406 87-461 58 339 88 461h359z"/><glyph glyph-name="y" unicode="y" horiz-adv-x="918" d="M918 1327 802 367q-27-228-45.5-311T695-81t-119.5-79.5T331-186H86V26q94 0 121 9.5T234 78q0 16-25 139L-12 1327h367l132-895 64 895h367z"/><glyph glyph-name="z" unicode="z" horiz-adv-x="719" d="M701 1327v-294L403 266h298V0H12v278l305 783H43v266h658z"/><glyph glyph-name="braceleft" unicode="{" horiz-adv-x="757" d="M36 538v240q109 1 164 64.5t55 285.5q0 169 12.5 250.5T328 1515t124 79.5 215 24.5h53v-239q-145 0-173.5-30T516 1233q-6-240-15.5-312t-44-137.5T328 658q89-54 129.5-129T505 313l15-291q9-42 43-63.5T719-63v-240h-52q-160 0-247 36.5T294-147t-39 268q0 204-14 261t-54 104.5T36 538z"/><glyph glyph-name="bar" unicode="|" horiz-adv-x="555" d="M169 1619h217V-265H169v1884z"/><glyph glyph-name="braceright" unicode="}" horiz-adv-x="757" d="M720 538q-109-1-164-65t-55-284q0-170-12-251.5T429-199t-124-79.5T90-303H37v240q139 0 170.5 29T241 84q6 256 18.5 328.5t50 135.5T428 658q-86 56-120 110t-46 117.5-18 236-14 197.5-38.5 43T36 1380v239h53q160 0 247-36.5T462 1463t39-268q0-212 15.5-267t55-100.5T720 778V538z"/><glyph glyph-name="asciitilde" unicode="~" horiz-adv-x="1075" d="M1018 787Q860 656 734 656q-86 0-256 82-97 47-142 47-109 0-279-162v277q147 128 289 128 85 0 232-70 119-57 169-57 46 0 98 26.5t173 134.5V787z"/><glyph glyph-name="Adieresis" unicode="Ä" horiz-adv-x="1040" d="M811 1619 1052 0H621l-21 291H449L424 0H-12l214 1619h609zM588 578q-32 275-64 679-64-464-80-679h144zM419 1930v-260H158v260h261zm437 0v-260H595v260h261z"/><glyph glyph-name="Aring" unicode="Å" horiz-adv-x="1040" d="M811 1619 1052 0H621l-21 291H449L424 0H-12l214 1619h609zM588 578q-32 275-64 679-64-464-80-679h144zm-81 1488q84 0 147-60.5t63-150.5q0-87-62-148.5T507 1645q-88 0-149.5 61.5T296 1855t62 149 149 62zm-2-132q-33 0-57.5-24t-24.5-59q0-34 24.5-58t57.5-24q34 0 58.5 24t24.5 58q0 35-24.5 59t-58.5 24z"/><glyph glyph-name="Ccedilla" unicode="Ç" horiz-adv-x="1134" d="M606-33v-19q54 0 99-35.5t45-96.5q0-76-62-131.5T540-371q-156 0-199 158h148q14-42 50-42 30 0 44.5 15t14.5 45q0 33-20.5 49.5T515-129h-26v100Q318-13 222.5 64.5t-123 189T72 575v473q0 175 12 262.5t71.5 168.5 165 127.5T563 1653q186 0 307-72t159-179.5 38-334.5V913H646v282q0 123-13.5 153.5T573 1379q-52 0-66-37t-14-160V430q0-118 14-154t63-36q47 0 61.5 36T646 445v203h421v-63q0-233-28-334.5t-138.5-187T606-33z"/><glyph glyph-name="Eacute" unicode="É" horiz-adv-x="851" d="M84 1619h702v-324H505V988h263V680H505V324h309V0H84v1619zm682 322-329-271H234l176 271h356z"/><glyph glyph-name="Ntilde" unicode="Ñ" horiz-adv-x="1109" d="M1024 1619V0H655L436 736V0H84v1619h352l236-729v729h352zm-48 241q-46-101-113-141t-118-40q-71 0-153 33l-74 29q-71 29-106 29-74 0-122-100l-158 105q110 194 248 194 72 0 157-32l62-23q78-29 106-29 83 0 110 90z"/><glyph glyph-name="Odieresis" unicode="Ö" horiz-adv-x="1119" d="M1046 671q0-244-11.5-345.5t-72-185.5T799 11 559-34Q429-34 325.5 8.5T159 136 84 321 72 671v277q0 244 11.5 345.5t72 185.5T319 1608t240 45q130 0 233.5-42.5T959 1483t75-185 12-350V671zm-421 532q0 113-12.5 144.5T561 1379q-33 0-50.5-25.5T493 1203V447q0-141 11.5-174t53.5-33q43 0 55 38t12 181v744zm-154 727v-260H210v260h261zm437 0v-260H647v260h261z"/><glyph glyph-name="Udieresis" unicode="Ü" horiz-adv-x="1120" d="M1041 1619V537q0-184-12-258.5t-71-153-155.5-119T575-34q-145 0-256 48T153 139 88 301.5 78 661v958h421V405q0-106 11.5-135.5T557 240q40 0 51.5 32.5T620 426v1193h421zm-569 311v-260H211v260h261zm437 0v-260H648v260h261z"/><glyph glyph-name="aacute" unicode="á" horiz-adv-x="1032" d="M433 813H54v89q0 154 35.5 237.5T232 1287t278 64q205 0 309-72.5t125-178T965 666V0H572v118q-37-71-95.5-106.5T337-24q-106 0-194.5 59.5T54 296v109q0 149 47 203t233 126q199 78 213 105t14 110q0 104-15.5 135.5T494 1116q-41 0-51-26.5T433 952V813zm128-182q-97-71-112.5-119T433 374q0-103 13.5-133t53.5-30q38 0 49.5 23.5T561 358v273zm296 1056-329-271H325l176 271h356z"/><glyph glyph-name="agrave" unicode="à" horiz-adv-x="1032" d="M433 813H54v89q0 154 35.5 237.5T232 1287t278 64q205 0 309-72.5t125-178T965 666V0H572v118q-37-71-95.5-106.5T337-24q-106 0-194.5 59.5T54 296v109q0 149 47 203t233 126q199 78 213 105t14 110q0 104-15.5 135.5T494 1116q-41 0-51-26.5T433 952V813zm128-182q-97-71-112.5-119T433 374q0-103 13.5-133t53.5-30q38 0 49.5 23.5T561 358v273zM174 1687h356l176-271H503z"/><glyph glyph-name="acircumflex" unicode="â" horiz-adv-x="1032" d="M433 813H54v89q0 154 35.5 237.5T232 1287t278 64q205 0 309-72.5t125-178T965 666V0H572v118q-37-71-95.5-106.5T337-24q-106 0-194.5 59.5T54 296v109q0 149 47 203t233 126q199 78 213 105t14 110q0 104-15.5 135.5T494 1116q-41 0-51-26.5T433 952V813zm128-182q-97-71-112.5-119T433 374q0-103 13.5-133t53.5-30q38 0 49.5 23.5T561 358v273zm-37 916-118-131H126l257 282h282l241-282H635z"/><glyph glyph-name="adieresis" unicode="ä" horiz-adv-x="1032" d="M433 813H54v89q0 154 35.5 237.5T232 1287t278 64q205 0 309-72.5t125-178T965 666V0H572v118q-37-71-95.5-106.5T337-24q-106 0-194.5 59.5T54 296v109q0 149 47 203t233 126q199 78 213 105t14 110q0 104-15.5 135.5T494 1116q-41 0-51-26.5T433 952V813zm128-182q-97-71-112.5-119T433 374q0-103 13.5-133t53.5-30q38 0 49.5 23.5T561 358v273zM428 1676v-260H167v260h261zm437 0v-260H604v260h261z"/><glyph glyph-name="atilde" unicode="ã" horiz-adv-x="1032" d="M433 813H54v89q0 154 35.5 237.5T232 1287t278 64q205 0 309-72.5t125-178T965 666V0H572v118q-37-71-95.5-106.5T337-24q-106 0-194.5 59.5T54 296v109q0 149 47 203t233 126q199 78 213 105t14 110q0 104-15.5 135.5T494 1116q-41 0-51-26.5T433 952V813zm128-182q-97-71-112.5-119T433 374q0-103 13.5-133t53.5-30q38 0 49.5 23.5T561 358v273zm377 975q-46-101-113-141t-118-40q-71 0-153 33l-74 29q-71 29-106 29-74 0-122-100L94 1521q110 194 248 194 72 0 157-32l62-23q78-29 106-29 83 0 110 90z"/><glyph glyph-name="aring" unicode="å" horiz-adv-x="1032" d="M433 813H54v89q0 154 35.5 237.5T232 1287t278 64q205 0 309-72.5t125-178T965 666V0H572v118q-37-71-95.5-106.5T337-24q-106 0-194.5 59.5T54 296v109q0 149 47 203t233 126q199 78 213 105t14 110q0 104-15.5 135.5T494 1116q-41 0-51-26.5T433 952V813zm128-182q-97-71-112.5-119T433 374q0-103 13.5-133t53.5-30q38 0 49.5 23.5T561 358v273zm-45 1206q84 0 147-60.5t63-150.5q0-87-62-148.5T516 1416q-88 0-149.5 61.5T305 1626t62 149 149 62zm-2-132q-33 0-57.5-24t-24.5-59q0-34 24.5-58t57.5-24q34 0 58.5 24t24.5 58q0 35-24.5 59t-58.5 24z"/><glyph glyph-name="ccedilla" unicode="ç" horiz-adv-x="1013" d="M546-23v-29q52 0 98-35t46-97q0-76-62-131.5T480-371q-156 0-199 158h148q14-42 50-42 30 0 44.5 15t14.5 45q0 33-20.5 49.5T455-129h-26v110Q278-1 203.5 60.5T94.5 216 60 498v377q0 169 34 255t145 153.5 270 67.5q158 0 270-67t149-169 37-289H584v153q0 80-13 108.5t-48 28.5-47-25-12-112V353q0-71 18-106.5t53-35.5q41 0 55.5 37T605 388v158h360q-1-148-9.5-226.5T896 159 762.5 31 546-23z"/><glyph glyph-name="eacute" unicode="é" horiz-adv-x="1047" d="M987 640H464V353q0-90 13-116t50-26q46 0 61.5 34.5T604 379v175h383v-98q0-123-15.5-189T899 126 754.5 13.5 535-24q-128 0-226 37T156.5 114.5 81 256.5 60 482v387q0 174 47 274.5t154 154 246 53.5q170 0 280.5-64.5t155-171T987 816V640zM582 856v97q0 103-11 133t-45 30q-42 0-52-25.5T464 953v-97h118zm283 831-329-271H333l176 271h356z"/><glyph glyph-name="egrave" unicode="è" horiz-adv-x="1047" d="M987 640H464V353q0-90 13-116t50-26q46 0 61.5 34.5T604 379v175h383v-98q0-123-15.5-189T899 126 754.5 13.5 535-24q-128 0-226 37T156.5 114.5 81 256.5 60 482v387q0 174 47 274.5t154 154 246 53.5q170 0 280.5-64.5t155-171T987 816V640zM582 856v97q0 103-11 133t-45 30q-42 0-52-25.5T464 953v-97h118zm-400 831h356l176-271H511z"/><glyph glyph-name="ecircumflex" unicode="ê" horiz-adv-x="1047" d="M987 640H464V353q0-90 13-116t50-26q46 0 61.5 34.5T604 379v175h383v-98q0-123-15.5-189T899 126 754.5 13.5 535-24q-128 0-226 37T156.5 114.5 81 256.5 60 482v387q0 174 47 274.5t154 154 246 53.5q170 0 280.5-64.5t155-171T987 816V640zM582 856v97q0 103-11 133t-45 30q-42 0-52-25.5T464 953v-97h118zm-51 691-118-131H133l257 282h282l241-282H642z"/><glyph glyph-name="edieresis" unicode="ë" horiz-adv-x="1047" d="M987 640H464V353q0-90 13-116t50-26q46 0 61.5 34.5T604 379v175h383v-98q0-123-15.5-189T899 126 754.5 13.5 535-24q-128 0-226 37T156.5 114.5 81 256.5 60 482v387q0 174 47 274.5t154 154 246 53.5q170 0 280.5-64.5t155-171T987 816V640zM582 856v97q0 103-11 133t-45 30q-42 0-52-25.5T464 953v-97h118zm-147 820v-260H174v260h261zm437 0v-260H611v260h261z"/><glyph glyph-name="iacute" unicode="í" horiz-adv-x="561" d="M488 1327V0H72v1327h416zm137 360-329-271H93l176 271h356z"/><glyph glyph-name="igrave" unicode="ì" horiz-adv-x="561" d="M488 1327V0H72v1327h416zm-546 360h356l176-271H271z"/><glyph glyph-name="icircumflex" unicode="î" horiz-adv-x="561" d="M488 1327V0H72v1327h416zm-196 220-118-131h-280l257 282h282l241-282H403z"/><glyph glyph-name="idieresis" unicode="ï" horiz-adv-x="561" d="M488 1327V0H72v1327h416zm-292 349v-260H-65v260h261zm437 0v-260H372v260h261z"/><glyph glyph-name="ntilde" unicode="ñ" horiz-adv-x="1071" d="m483 1327-7-122q44 73 107.5 109.5T730 1351q104 0 170-49t85-123.5 19-248.5V0H600v919q0 137-9 167t-50 30q-43 0-54-34.5T476 897V0H72v1327h411zm474 279q-46-101-113-141t-118-40q-71 0-153 33l-74 29q-71 29-106 29-74 0-122-100l-158 105q110 194 248 194 72 0 157-32l62-23q78-29 106-29 83 0 110 90z"/><glyph glyph-name="oacute" unicode="ó" horiz-adv-x="1047" d="M986 861V536q0-179-18-262.5t-77-156-151.5-107T527-24Q393-24 300 5.5t-144.5 89-73.5 144T60 492v340q0 185 40 289t144 167 266 63q136 0 233.5-40.5T894 1205t72.5-134T986 861zM582 961q0 102-11 128.5t-47 26.5-48-26.5T464 961V362q0-94 12-122.5t47-28.5q36 0 47.5 26T582 349v612zm283 726-329-271H333l176 271h356z"/><glyph glyph-name="ograve" unicode="ò" horiz-adv-x="1047" d="M986 861V536q0-179-18-262.5t-77-156-151.5-107T527-24Q393-24 300 5.5t-144.5 89-73.5 144T60 492v340q0 185 40 289t144 167 266 63q136 0 233.5-40.5T894 1205t72.5-134T986 861zM582 961q0 102-11 128.5t-47 26.5-48-26.5T464 961V362q0-94 12-122.5t47-28.5q36 0 47.5 26T582 349v612zm-400 726h356l176-271H511z"/><glyph glyph-name="ocircumflex" unicode="ô" horiz-adv-x="1047" d="M986 861V536q0-179-18-262.5t-77-156-151.5-107T527-24Q393-24 300 5.5t-144.5 89-73.5 144T60 492v340q0 185 40 289t144 167 266 63q136 0 233.5-40.5T894 1205t72.5-134T986 861zM582 961q0 102-11 128.5t-47 26.5-48-26.5T464 961V362q0-94 12-122.5t47-28.5q36 0 47.5 26T582 349v612zm-51 586-118-131H133l257 282h282l241-282H642z"/><glyph glyph-name="odieresis" unicode="ö" horiz-adv-x="1047" d="M986 861V536q0-179-18-262.5t-77-156-151.5-107T527-24Q393-24 300 5.5t-144.5 89-73.5 144T60 492v340q0 185 40 289t144 167 266 63q136 0 233.5-40.5T894 1205t72.5-134T986 861zM582 961q0 102-11 128.5t-47 26.5-48-26.5T464 961V362q0-94 12-122.5t47-28.5q36 0 47.5 26T582 349v612zm-147 715v-260H174v260h261zm437 0v-260H611v260h261z"/><glyph glyph-name="otilde" unicode="õ" horiz-adv-x="1047" d="M986 861V536q0-179-18-262.5t-77-156-151.5-107T527-24Q393-24 300 5.5t-144.5 89-73.5 144T60 492v340q0 185 40 289t144 167 266 63q136 0 233.5-40.5T894 1205t72.5-134T986 861zM582 961q0 102-11 128.5t-47 26.5-48-26.5T464 961V362q0-94 12-122.5t47-28.5q36 0 47.5 26T582 349v612zm363 645q-46-101-113-141t-118-40q-71 0-153 33l-74 29q-71 29-106 29-74 0-122-100l-158 105q110 194 248 194 72 0 157-32l62-23q78-29 106-29 83 0 110 90z"/><glyph glyph-name="uacute" unicode="ú" horiz-adv-x="1070" d="M997 1327V0H586l7 110Q551 43 489.5 9.5T348-24q-91 0-151 32t-88.5 85T73 203.5 66 432v895h404V424q0-155 9.5-184t51.5-29q45 0 53.5 30t8.5 193v893h404zm-121 360-329-271H344l176 271h356z"/><glyph glyph-name="ugrave" unicode="ù" horiz-adv-x="1070" d="M997 1327V0H586l7 110Q551 43 489.5 9.5T348-24q-91 0-151 32t-88.5 85T73 203.5 66 432v895h404V424q0-155 9.5-184t51.5-29q45 0 53.5 30t8.5 193v893h404zm-804 360h356l176-271H522z"/><glyph glyph-name="ucircumflex" unicode="û" horiz-adv-x="1070" d="M997 1327V0H586l7 110Q551 43 489.5 9.5T348-24q-91 0-151 32t-88.5 85T73 203.5 66 432v895h404V424q0-155 9.5-184t51.5-29q45 0 53.5 30t8.5 193v893h404zm-454 220-118-131H145l257 282h282l241-282H654z"/><glyph glyph-name="udieresis" unicode="ü" horiz-adv-x="1070" d="M997 1327V0H586l7 110Q551 43 489.5 9.5T348-24q-91 0-151 32t-88.5 85T73 203.5 66 432v895h404V424q0-155 9.5-184t51.5-29q45 0 53.5 30t8.5 193v893h404zm-550 349v-260H186v260h261zm437 0v-260H623v260h261z"/><glyph glyph-name="dagger" unicode="†" horiz-adv-x="1112" d="M334 1619h444v-468h298V770H778v-959H334v959H36v380h298v469z"/><glyph glyph-name="degree" unicode="°" horiz-adv-x="711" d="M36 1314q0 142 95 234.5t224 92.5q133 0 226-93.5t93-225.5-93.5-225.5T356 1003q-141 0-230.5 97.5T36 1314zm166 12q0-68 45.5-112.5T355 1169q63 0 108 45t45 108-45 108-108 45q-66 0-109.5-47T202 1326z"/><glyph glyph-name="cent" unicode="¢" horiz-adv-x="1059" d="M1004 922H600v135q0 116-12.5 146.5T532 1234q-41 0-54.5-26T464 1071V450q0-109 13-139.5t53-30.5q50 0 68.5 41T617 494v146h387q1-45 1-66 0-239-89.5-366T629 38v-165H443V38q-132 18-233 98.5t-125.5 168T60 589v298q0 202 25.5 300T205 1365.5 443 1475v137h186v-137q98-18 178.5-67.5T934 1290t58-136.5 12-231.5z"/><glyph glyph-name="sterling" unicode="£" horiz-adv-x="1096" d="M999 1098H637v147q0 98-3.5 124.5t-24 47T558 1437q-40 0-66-34t-26-77q0-55 44-207 47-166 48-198h255V645H582q-3-272-194-409 18 2 45 6 30 5 54 5 33 0 92-10 23-4 41-4 40 0 65 25 24 25 24 132 0 16-1 64h340l-1-129q0-145-21-208.5T932 11 748-31q-70 0-205 34-131 34-226 34-150 0-245-68v236q43 29 70.5 73.5t50.5 146T216 601q0 16-1 44H72v276h99q-84 160-84 306 0 209 129 316t328 107q213 0 339-112.5t126-307.5q0-53-10-132z"/><glyph glyph-name="section" unicode="§" horiz-adv-x="991" d="M877 1273H558v25q0 50-20.5 75t-62.5 25q-30 0-45-14.5t-15-44.5q0-31 31-67 30-36 161-131 235-170 291.5-247T955 729q0-184-217-285 86-89 129-169.5T910 121q0-134-110.5-242T493-229q-167 0-272 90.5T113 146h320q0-129 79-129 32 0 47.5 16.5T575 83q0 36-31 71-31 34-108 90-228 163-314 253.5T36 694q0 165 216 289-84 76-126.5 156T83 1303q0 131 102.5 240.5T492 1653q162 0 273.5-83.5T877 1273zM382 869q-35-36-35-75 0-29 25-55.5T501 638q71-52 108-80 35 32 35 75 0 30-34.5 64T469 806q-45 32-87 63z"/><glyph glyph-name="bullet" unicode="•" horiz-adv-x="712" d="M651 817q0-132-88-217.5T356 514q-123 0-209.5 86.5T60 810q0 121 87 208t208 87q130 0 213-90t83-198z"/><glyph glyph-name="paragraph" unicode="¶" horiz-adv-x="1180" d="M673-221H430V797Q36 841 36 1200q0 117 45 206.5T202.5 1546t147 61.5T570 1619h597v-261h-113V-221H817v1579H673V-221z"/><glyph glyph-name="germandbls" unicode="ß" horiz-adv-x="1127" d="M902 1023q72-33 115-105t43-286V483q0-148-21-224t-84-141.5T810 26 608 0h-77v245h46q55 0 67 18t12 141v396q-1 69-15 93t-64 31v246q22 0 42 12.5t20 81.5q0 77-20.5 115.5T557 1418q-47 0-64-34t-17-135V0H72v1081q0 235 26.5 333.5t135 168.5 301.5 70q239 0 371.5-97t132.5-270q0-157-137-263z"/><glyph glyph-name="registered" unicode="®" horiz-adv-x="1605" d="M782 1532q343 0 564.5-228T1568 766q0-316-225-541T802 0Q484 0 260 224.5T36 766q0 223 118.5 409.5T451 1447t331 85zm38-149q-282 0-457-186T188 766q0-254 181-435t435-181q253 0 434 181t181 435q0 175-91 322.5t-234 221-274 73.5zM465 357v813h385q143 0 208-66.5t65-163.5q0-94-54.5-151T904 712q50-19 79.5-51.5T1077 520l95-163H969l-68 131q-61 117-107.5 159.5T672 690h-43V357H465zm164 462h134q101 0 143.5 26.5T949 932q0 54-42 81t-127 27H629V819z"/><glyph glyph-name="copyright" unicode="©" horiz-adv-x="1605" d="M782 1532q348 0 567-230t219-536q0-316-225-541T802 0Q484 0 260 224.5T36 766q0 218 113.5 401T441 1441t341 91zm36-151q-276 0-453.5-183T187 766q0-253 180.5-434T802 151t434.5 181T1417 766q0 264-186.5 439.5T818 1381zm170-728 161-55q-81-260-339-260-175 0-279.5 115.5T426 762q0 199 106 313.5T806 1190q256 0 343-243l-162-38q-52 139-178 139-100 0-153.5-75.5T602 773q0-139 51.5-215.5T799 481q135 0 189 172z"/><glyph glyph-name="trademark" unicode="™" horiz-adv-x="1603" d="M265 800v677H12v142h665v-142H431V800H265zm473 0v819h259l149-564 149 564h260V800h-158v653l-177-653h-150l-176 653V800H738z"/><glyph glyph-name="acute" unicode="´" horiz-adv-x="683" d="m683 1772-329-271H151l176 271h356z"/><glyph glyph-name="dieresis" unicode="¨" horiz-adv-x="683" d="M254 1761v-260H-7v260h261zm437 0v-260H430v260h261z"/><glyph glyph-name="notequal" unicode="≠" horiz-adv-x="1092" d="M65 1122h490l165 419h223l-162-419h246V878H686l-54-138h395V496H537L371 77H145l166 419H65v244h341l55 138H65v244z"/><glyph glyph-name="AE" unicode="Æ" horiz-adv-x="1461" d="M1404 1619v-324h-283V988h266V680h-266V324h303V0H700v291H458L390 0H-12l426 1619h990zm-704-303L521 578h179v738z"/><glyph glyph-name="Oslash" unicode="Ø" horiz-adv-x="1119" d="M1026 1340q20-76 20-392V671q0-244-11.5-345.5t-72-185.5T799 11 559-34q-146 0-249.5 48T144 157L37 17l-92 70L92 279q-20 72-20 392v277q0 244 11.5 345.5t72 185.5T319 1608t240 45q145 0 249-47.5T974 1462l107 140 92-69zM625 987v216q0 113-12.5 144.5T561 1379q-41 0-54.5-33.5T493 1203V813zM493 624V447q0-141 11.5-174t53.5-33q43 0 55 38t12 181v340z"/><glyph glyph-name="infinity" unicode="∞" horiz-adv-x="1460" d="M653 809q70 169 158 223t212 54q97 0 180-43.5T1346 903t60-234q0-123-49-216t-132.5-148.5T1057 249q-79 0-155 49.5T720 535q-56-116-137-174.5T396 302q-142 0-242.5 102T53 671q0 157 88.5 262T360 1038q77 0 147-42t146-187zm96-203q69-147 142.5-205t169.5-58q129 0 208.5 93t79.5 233q0 145-86.5 242t-195.5 97q-85 0-150-58T749 606zM624 732q-45 107-111.5 160.5T357 946q-101 0-175-72.5T108 672q0-137 72.5-214.5T338 380q63 0 133 51t142 267z"/><glyph glyph-name="plusminus" unicode="±" horiz-adv-x="1092" d="M667 543H423v355H64v244h359v360h244v-360h361V898H667V543zM64 423h964V179H64v244z"/><glyph glyph-name="lessequal" unicode="≤" horiz-adv-x="1092" d="M1027 486 65 887v203l962 402v-264L433 989l594-238V486zM64 406h964V162H64v244z"/><glyph glyph-name="greaterequal" unicode="≥" horiz-adv-x="1092" d="m65 1492 962-400V888L65 486v265l594 238-594 238v265zM64 406h964V162H64v244z"/><glyph glyph-name="yen" unicode="¥" horiz-adv-x="969" d="M792 982h174V810H741l-67-224h292V415H674V0H284v415H2v171h282l-64 224H2v172h168l-182 637h387q91-473 102-637 35 259 117 637h387z"/><glyph glyph-name="mu1" unicode="µ" horiz-adv-x="965" d="M72 1327h324V370q0-141 78-141 97 0 97 232v866h321V0H586v123Q525-19 396-21v-386H72v1734z"/><glyph glyph-name="partialdiff" unicode="∂" horiz-adv-x="1003" d="M354 1150h-42q52 142 139 213t209 71q100 0 165.5-46.5t97-122.5 31.5-231q0-344-95-586T650 91.5 378-23q-155 0-235.5 92T62 293q0 231 188.5 436T649 934q168 0 236-150 8 77 8 127 0 110-42 178t-101 106.5-170 38.5q-73 0-129.5-21t-96.5-63zm515-459q-63 192-214 192-86 0-163.5-90T366 528.5 318 212q0-94 29-131t91-37q134 0 259 199t172 448z"/><glyph glyph-name="summation" unicode="∑" d="M1351-83H38v36l669 831-669 816v38h1278l27-337h-40q-27 256-249 256H314l562-687L247 93h818q89 0 180.5 39T1375 339l40-8z"/><glyph glyph-name="product" unicode="∏" horiz-adv-x="1685" d="M1239 1558H444V110q0-86 39-120.5T606-45h36v-38H45v38h35q93 0 128 37.5T243 110v1334q0 85-38 120t-125 35H45v37h1594v-37h-35q-86 0-124-36t-38-119V110q0-86 39-120.5T1604-45h35v-38h-597v38h35q93 0 127.5 37.5T1239 110v1448z"/><glyph glyph-name="pi1" horiz-adv-x="1124" d="M1039 935V728H824q-36-291-36-423 0-79 22-119t65-40q99 0 118 170h37Q1018-28 819-28q-95 0-143 83t-48 248q0 143 35 425H465q-32-517-84-636.5T249-28q-47 0-76.5 30.5T143 74q0 53 56 152 52 94 74.5 198.5T300 728h-34q-130 0-177-116H52q36 122 92 202.5T248.5 915 407 935h632z"/><glyph glyph-name="integral" unicode="∫" horiz-adv-x="561" d="m200 895 12 445q9 344 75 433.5t148 89.5q53 0 89-34.5t36-72.5q0-44-25.5-74t-66.5-30q-35 0-76 36-23 20-40 20-40 0-40-63 0-42 9-146 37-411 37-665 0-68-12-470.5t-77-493T118-220q-49 0-83.5 32.5T0-99q0 45 26 72T90 0q40 0 70-33 28-31 48-31t29.5 15.5T247-3q0 42-9 120-38 317-38 778z"/><glyph glyph-name="ordfeminine" unicode="ª" horiz-adv-x="665" d="M282 1362H36q0 99 22 150.5t91 92.5 181 41q132 0 199-42t83-106 16-270V834H373v69q-25-44-63-66t-89-22q-92 0-138.5 49.5T36 1013v65q0 96 33.5 129.5T252 1294q105 38 109.5 55.5t4.5 43.5q0 65-9.5 82t-35.5 17q-27 0-33-13.5t-6-78.5v-38zm84-153q-56-41-69.5-61.5T283 1062q0-53 8-69t35-16q26 0 33 13t7 69v150z"/><glyph glyph-name="ordmasculine" unicode="º" horiz-adv-x="675" d="M638 1345v-188q0-125-22-191t-92-108.5T336 815q-125 0-187.5 35.5T61 949t-25 182v197q0 184 80.5 251t211.5 67q114 0 185-40t98-99.5 27-161.5zm-263 60q0 60-6 73.5t-32 13.5q-25 0-31.5-14t-6.5-73v-353q0-55 7-69.5t28-14.5q28 0 34.5 13.5t6.5 62.5v361z"/><glyph glyph-name="Ohm" unicode="Ω" horiz-adv-x="1573" d="M617 359 651 0H32v377h36q4-69 33.5-101T227 244h328l-7 69q-251 53-358.5 197T82 825q0 231 185 396.5T786 1387t519-165.5T1490 825q0-171-107.5-315T1024 313l-7-69h328q65 0 91.5 10t45.5 38 22 85h36V0H921l34 359q183 63 183 441 0 287-107 398t-245 111q-109 0-191.5-63T473 1083.5 434 813q0-392 183-454z"/><glyph glyph-name="ae" unicode="æ" horiz-adv-x="1543" d="M1482 640H955V372q0-102 13-131.5t55-29.5q45 0 61 30t16 124v189h382V420q0-131-39.5-221T1299 42.5 1044-24q-140 0-238 38T651 128Q596 52 521 14T352-24q-110 0-181.5 45t-94 114T54 361q0 140 20.5 191.5t84.5 92T380 740q83 28 112 47t40 47.5T543 957q0 89-12 124t-45 35q-32 0-41.5-29T435 940V813H56v99q0 110 15.5 173t71 126.5 141 101.5 218.5 38q74 0 143-18t132-54q46 36 107 54t137 18q152 0 261.5-66t154.5-169 45-305V640zm-404 216v120q0 93-17 116.5t-44 23.5q-33 0-47.5-27T955 976V856h123zM551 623q-77-56-103.5-101.5T421 352q0-77 15.5-109t56.5-32q29 0 43 20t14 59l1 119v214z"/><glyph glyph-name="oslash" unicode="ø" horiz-adv-x="1047" d="M912 1181q39-53 56.5-115.5T986 861V536q0-179-18-262.5t-77-156-151-107T527-24Q413-24 329-2.5T192 61l-31-47-79 51 45 69q-34 56-50.5 126T60 492v340q0 185 40 289t144 167 266 63q105 0 189-25t146-75l41 62 78-51zM582 835v126q0 102-11 128.5t-47 26.5-48-26.5T464 961V655zM464 481V362q0-94 12-122.5t47-28.5q36 0 47.5 26T582 349v313z"/><glyph glyph-name="questiondown" unicode="¿" horiz-adv-x="1075" d="M586 1100v324h377v-324H586zm0-773h404q-2-213-36-311.5T806.5-156 517-229q-127 0-222 40T144-77.5 62 77 36 336v198q0 136 25 217.5T170 895t197 62q153 0 219-114v173h377V571H595q-1 93-66 93-50 0-63.5-40.5T452 425V155q0-88 12.5-118.5T514 6q46 0 59 40t13 183v98z"/><glyph glyph-name="exclamdown" unicode="¡" horiz-adv-x="553" d="M69 1100v324h378v-324H69zM36-195l66 1219h312l66-1219H36z"/><glyph glyph-name="logicalnot" unicode="¬" horiz-adv-x="1092" d="M64 1126h964V492H784v389H64v245z"/><glyph glyph-name="radical" unicode="√" horiz-adv-x="1124" d="M1050 1869h74L812-78 316 943l-198-91-34 64 301 151 405-823z"/><glyph glyph-name="florin" unicode="ƒ" horiz-adv-x="908" d="m908 1650-42-212q-57 0-70-4.5t-20-44.5q-2-7-9-42l-68-343h148l-48-243H652L519 88q-38-191-109.5-254T133-229H-48L-5-16q61 0 70.5 8.5T88 67l139 694H88l45 243h144l60 312q35 183 75.5 234t93.5 75.5 188 24.5h214z"/><glyph glyph-name="approxequal" unicode="≈" horiz-adv-x="1075" d="M1018 982Q863 851 740 851q-53 0-101.5 14T478 934q-96 46-143 46-57 0-114-32.5T57 816v278q144 130 290 130 85 0 231-71 118-57 169-57 98 0 271 162V982zm0-386-14-11Q857 465 740 465q-53 0-101.5 14T478 547q-96 47-143 47-48 0-108.5-29T57 430v278q144 129 290 129 85 0 231-70 118-57 169-57 98 0 271 162V596z"/><glyph glyph-name="Delta" unicode="∆" horiz-adv-x="1259" d="M1229 0H29l628 1387zM993 82l-399 967L154 82h839z"/><glyph glyph-name="guillemotleft" unicode="«" horiz-adv-x="760" d="M120 1238h237l-84-543 84-571H120L36 695zm367 0h237l-85-543 85-571H487l-85 571z"/><glyph glyph-name="guillemotright" unicode="»" horiz-adv-x="760" d="m639 1238 85-543-85-571H402l85 571-85 543h237zm-366 0 84-543-84-571H36l84 571-84 543h237z"/><glyph glyph-name="ellipsis" unicode="…" horiz-adv-x="1133" d="M341 330V0H36v330h305zm756 0V0H792v330h305zm-378 0V0H414v330h305z"/><glyph glyph-name="nonbreakingspace" horiz-adv-x="361"/><glyph glyph-name="Agrave" unicode="À" horiz-adv-x="1040" d="M811 1619 1052 0H621l-21 291H449L424 0H-12l214 1619h609zM588 578q-32 275-64 679-64-464-80-679h144zM152 1941h356l176-271H481z"/><glyph glyph-name="Atilde" unicode="Ã" horiz-adv-x="1040" d="M811 1619 1052 0H621l-21 291H449L424 0H-12l214 1619h609zM588 578q-32 275-64 679-64-464-80-679h144zm341 1282q-46-101-113-141t-118-40q-71 0-153 33l-74 29q-71 29-106 29-74 0-122-100L85 1775q110 194 248 194 72 0 157-32l62-23q78-29 106-29 83 0 110 90z"/><glyph glyph-name="Otilde" unicode="Õ" horiz-adv-x="1119" d="M1046 671q0-244-11.5-345.5t-72-185.5T799 11 559-34Q429-34 325.5 8.5T159 136 84 321 72 671v277q0 244 11.5 345.5t72 185.5T319 1608t240 45q130 0 233.5-42.5T959 1483t75-185 12-350V671zm-421 532q0 113-12.5 144.5T561 1379q-33 0-50.5-25.5T493 1203V447q0-141 11.5-174t53.5-33q43 0 55 38t12 181v744zm356 657q-46-101-113-141t-118-40q-71 0-153 33l-74 29q-71 29-106 29-74 0-122-100l-158 105q110 194 248 194 72 0 157-32l62-23q78-29 106-29 83 0 110 90z"/><glyph glyph-name="OE" unicode="Œ" horiz-adv-x="1410" d="M1339 1619v-324h-284V988h271V680h-271V324h318V0H740Q603-17 551-17q-128 0-235 45.5T157 143 88.5 287.5 72 528v529q0 180 14 264t72 156.5T315 1593t243 43q83 0 185-17h596zm-705-509q0 50-1 74-2 44-2 61 0 117-70 117-41 0-54-26.5t-13-92.5l-1-73V521q0-188 10.5-226t56.5-38 60 43 14 202v608z"/><glyph glyph-name="oe" unicode="œ" horiz-adv-x="1567" d="M1506 640H986V343q0-82 12.5-107t48.5-25q43 0 60 42t17 137v164h382V423q0-135-42-225T1313 42t-258-66q-79 0-147 15.5T782 38Q727 7 663-8.5T525-24q-136 0-234 43T140.5 127.5 74 262 60 495v290q0 214 27.5 309.5t139 176T509 1351q76 0 144.5-20t128.5-60q52 40 117.5 60t143.5 20q141 0 264-67.5t161-175.5 38-277V640zM582 925q0 129-11 160t-50 31q-34 0-45.5-29T464 965V387q0-125 9-150.5t48-25.5q37 0 49 28.5T582 373v552zm520-70v142q0 85-18.5 102t-40.5 17q-33 0-45-22.5T986 997V855h116z"/><glyph glyph-name="endash" unicode="–" horiz-adv-x="1024" d="M-12 788h1048V539H-12v249z"/><glyph glyph-name="emdash" unicode="—" horiz-adv-x="2048" d="M-12 788h2072V539H-12v249z"/><glyph glyph-name="quotedblleft" unicode="“" horiz-adv-x="706" d="M398 1095v145q0 114 27.5 187t93.5 124 150 68v-116q-59-34-67-91h67v-317H398zm-362 0v145q0 114 27.5 187t94 124 149.5 68v-116q-59-34-67-91h67v-317H36z"/><glyph glyph-name="quotedblright" unicode="”" horiz-adv-x="706" d="M669 1619v-145q0-113-27-186.5t-93.5-124T398 1095v117q59 33 67 90h-67v317h271zm-362 0v-145q0-113-27-186.5t-93.5-124T36 1095v117q60 33 68 90H36v317h271z"/><glyph glyph-name="quoteleft" unicode="‘" horiz-adv-x="344" d="M36 1095v145q0 114 27.5 187t94 124 149.5 68v-116q-59-34-67-91h67v-317H36z"/><glyph glyph-name="quoteright" unicode="’" horiz-adv-x="344" d="M307 1619v-145q0-113-27-186.5t-93.5-124T36 1095v117q60 33 68 90H36v317h271z"/><glyph glyph-name="divide" unicode="÷" horiz-adv-x="1092" d="M404 1144q0 59 41.5 99t97.5 40q57 0 98-41t41-97q0-57-41-98t-98-41q-59 0-99 42t-40 96zM64 927h964V691H64v236zm340-451q0 63 42 103t98 40q57 0 98.5-40.5T684 479q0-57-41-98t-99-41q-59 0-99.5 42T404 476z"/><glyph glyph-name="lozenge" unicode="◊" horiz-adv-x="1012" d="m548 1422 418-713L548 0H437L46 709l391 713h111zm-54-97L154 709 494 94l359 615z"/><glyph glyph-name="ydieresis" unicode="ÿ" horiz-adv-x="918" d="M918 1327 802 367q-27-228-45.5-311T695-81t-119.5-79.5T331-186H86V26q94 0 121 9.5T234 78q0 16-25 139L-12 1327h367l132-895 64 895h367zm-533 349v-260H124v260h261zm437 0v-260H561v260h261z"/><glyph glyph-name="Ydieresis" unicode="Ÿ" horiz-adv-x="969" d="M981 1619 674 586V0H284v586L-12 1619h387q91-473 102-637 35 259 117 637h387zm-584 311v-260H136v260h261zm437 0v-260H573v260h261z"/><glyph glyph-name="fraction" unicode="∕" horiz-adv-x="256" d="M521 1650-111-31h-154l635 1681h151z"/><glyph glyph-name="Euro" unicode="€" horiz-adv-x="1087" d="M457 1036h114V864H457v-80h114V612H457V430q0-85 6-116t30-52.5 60-21.5q30 0 55.5 17.5t32 51T647 444v154h373v-63q0-225-42-332.5T823 30 549-35q-129 0-232 45.5T159 132 88 298 72 569v43h-97v172h97v80h-97v172h97v29q0 156 13.5 248t74.5 171 165.5 124 235.5 45q130 0 235.5-47T961 1454.5t59-338.5v-53H647v131q-3 103-7 129.5t-21.5 40.5-55.5 14q-44 0-70-20.5t-31-54-5-121.5v-146z"/><glyph glyph-name="guilsinglleft" unicode="‹" horiz-adv-x="405" d="M123 1257h245l-87-561 87-592H123L36 696z"/><glyph glyph-name="guilsinglright" unicode="›" horiz-adv-x="405" d="m281 1257 87-561-87-592H36l87 592-87 561h245z"/><glyph glyph-name="fi" unicode="ﬁ" horiz-adv-x="1148" d="M1075 1619v-211H659v211h416zm-488 0v-205q-125 0-147.5-11.5T417 1337v-42h170v-210h-96V0H87v1085H4v210h83q0 131 9 175t44.5 78.5T240 1601t199 18h148zm488-292V0H659v1327h416z"/><glyph glyph-name="fl" unicode="ﬂ" horiz-adv-x="1145" d="M587 1619v-205q-125 0-147.5-11.5T417 1337v-42h170v-210h-96V0H87v1085H4v210h83q0 131 9 175t44.5 78.5T240 1601t199 18h148zm485 0V0H656v1619h416z"/><glyph glyph-name="daggerdbl" unicode="‡" horiz-adv-x="1113" d="M334 1619h444v-375h298V864H778V566h298V185H778v-374H334v374H36v381h298v298H36v380h298v375z"/><glyph glyph-name="periodcentered" unicode="∙" horiz-adv-x="450" d="M377 972V642H72v330h305z"/><glyph glyph-name="quotesinglbase" unicode="‚" horiz-adv-x="344" d="M307 317V172q0-114-27-187t-93.5-124T36-207v116q60 34 68 91H36v317h271z"/><glyph glyph-name="quotedblbase" unicode="„" horiz-adv-x="706" d="M669 317V172q0-114-27-187t-93.5-124T398-207v116q59 34 67 91h-67v317h271zm-362 0V172q0-114-27-187t-93.5-124T36-207v116q60 34 68 91H36v317h271z"/><glyph glyph-name="perthousand" unicode="‰" horiz-adv-x="2099" d="M1103 1650 470-31H316l635 1681h152zm-471-307v-278q0-109-20.5-163.5t-88-95T345 766q-128 0-195 38.5T59.5 897 36 1052v291q0 120 24.5 177.5T155 1614t173 36q114 0 185-39.5t95-95.5 24-172zm-256 71q0 64-6.5 79t-35.5 15q-27 0-35-16t-8-78v-408q0-70 7-84t37-14q26 0 33.5 16t7.5 75v415zm1007-853V282q0-108-20.5-163t-88-95.5T1096-17q-127 0-194.5 39t-91 93T787 269v292q0 119 24.5 176.5t94.5 94 173 36.5q115 0 186-40t94.5-96 23.5-171zm-256 70q0 64-6.5 79.5T1085 726q-27 0-34.5-16t-7.5-79V223q0-69 7-83t36-14q27 0 34 15.5t7 75.5v414zm936-70V282q0-108-20.5-163t-88-95.5T1776-17q-127 0-194.5 39t-91 93-23.5 154v292q0 119 24.5 176.5t94.5 94 173 36.5q115 0 185.5-40t94.5-96 24-171zm-256 70q0 64-6.5 79.5T1765 726q-27 0-34.5-16t-7.5-79V223q0-69 7-83t36-14q26 0 33.5 15.5t7.5 75.5v414z"/><glyph glyph-name="Acircumflex" unicode="Â" horiz-adv-x="1040" d="M811 1619 1052 0H621l-21 291H449L424 0H-12l214 1619h609zM588 578q-32 275-64 679-64-464-80-679h144zm-78 1223-118-131H112l257 282h282l241-282H621z"/><glyph glyph-name="Ecircumflex" unicode="Ê" horiz-adv-x="851" d="M84 1619h702v-324H505V988h263V680H505V324h309V0H84v1619zm349 182-118-131H35l257 282h282l241-282H544z"/><glyph glyph-name="Aacute" unicode="Á" horiz-adv-x="1040" d="M811 1619 1052 0H621l-21 291H449L424 0H-12l214 1619h609zM588 578q-32 275-64 679-64-464-80-679h144zm274 1363-329-271H330l176 271h356z"/><glyph glyph-name="Edieresis" unicode="Ë" horiz-adv-x="851" d="M84 1619h702v-324H505V988h263V680H505V324h309V0H84v1619zm253 311v-260H76v260h261zm437 0v-260H513v260h261z"/><glyph glyph-name="Egrave" unicode="È" horiz-adv-x="851" d="M84 1619h702v-324H505V988h263V680H505V324h309V0H84v1619zm0 322h356l176-271H413z"/><glyph glyph-name="Iacute" unicode="Í" horiz-adv-x="590" d="M505 1619V0H84v1619h421zm131 322-329-271H104l176 271h356z"/><glyph glyph-name="Icircumflex" unicode="Î" horiz-adv-x="590" d="M505 1619V0H84v1619h421zm-202 182-118-131H-95l257 282h282l241-282H414z"/><glyph glyph-name="Idieresis" unicode="Ï" horiz-adv-x="590" d="M505 1619V0H84v1619h421zm-298 311v-260H-54v260h261zm437 0v-260H383v260h261z"/><glyph glyph-name="Igrave" unicode="Ì" horiz-adv-x="590" d="M505 1619V0H84v1619h421zm-552 322h356l176-271H282z"/><glyph glyph-name="Oacute" unicode="Ó" horiz-adv-x="1119" d="M1046 671q0-244-11.5-345.5t-72-185.5T799 11 559-34Q429-34 325.5 8.5T159 136 84 321 72 671v277q0 244 11.5 345.5t72 185.5T319 1608t240 45q130 0 233.5-42.5T959 1483t75-185 12-350V671zm-421 532q0 113-12.5 144.5T561 1379q-33 0-50.5-25.5T493 1203V447q0-141 11.5-174t53.5-33q43 0 55 38t12 181v744zm275 738-329-271H368l176 271h356z"/><glyph glyph-name="Ocircumflex" unicode="Ô" horiz-adv-x="1119" d="M1046 671q0-244-11.5-345.5t-72-185.5T799 11 559-34Q429-34 325.5 8.5T159 136 84 321 72 671v277q0 244 11.5 345.5t72 185.5T319 1608t240 45q130 0 233.5-42.5T959 1483t75-185 12-350V671zm-421 532q0 113-12.5 144.5T561 1379q-33 0-50.5-25.5T493 1203V447q0-141 11.5-174t53.5-33q43 0 55 38t12 181v744zm-58 598-118-131H169l257 282h282l241-282H678z"/><glyph glyph-name="apple" horiz-adv-x="1618"/><glyph glyph-name="Ograve" unicode="Ò" horiz-adv-x="1119" d="M1046 671q0-244-11.5-345.5t-72-185.5T799 11 559-34Q429-34 325.5 8.5T159 136 84 321 72 671v277q0 244 11.5 345.5t72 185.5T319 1608t240 45q130 0 233.5-42.5T959 1483t75-185 12-350V671zm-421 532q0 113-12.5 144.5T561 1379q-33 0-50.5-25.5T493 1203V447q0-141 11.5-174t53.5-33q43 0 55 38t12 181v744zm-407 738h356l176-271H547z"/><glyph glyph-name="Uacute" unicode="Ú" horiz-adv-x="1120" d="M1041 1619V537q0-184-12-258.5t-71-153-155.5-119T575-34q-145 0-256 48T153 139 88 301.5 78 661v958h421V405q0-106 11.5-135.5T557 240q40 0 51.5 32.5T620 426v1193h421zm-140 322-329-271H369l176 271h356z"/><glyph glyph-name="Ucircumflex" unicode="Û" horiz-adv-x="1120" d="M1041 1619V537q0-184-12-258.5t-71-153-155.5-119T575-34q-145 0-256 48T153 139 88 301.5 78 661v958h421V405q0-106 11.5-135.5T557 240q40 0 51.5 32.5T620 426v1193h421zm-473 182-118-131H170l257 282h282l241-282H679z"/><glyph glyph-name="Ugrave" unicode="Ù" horiz-adv-x="1120" d="M1041 1619V537q0-184-12-258.5t-71-153-155.5-119T575-34q-145 0-256 48T153 139 88 301.5 78 661v958h421V405q0-106 11.5-135.5T557 240q40 0 51.5 32.5T620 426v1193h421zm-823 322h356l176-271H547z"/><glyph glyph-name="dotlessi" unicode="ı" horiz-adv-x="561" d="M488 1327V0H72v1327h416z"/><glyph glyph-name="circumflex" unicode="ˆ" horiz-adv-x="683" d="m350 1632-118-131H-48l257 282h282l241-282H461z"/><glyph glyph-name="tilde" unicode="˜" horiz-adv-x="683" d="M763 1691q-46-101-113-141t-118-40q-71 0-153 33l-74 29q-71 29-106 29-74 0-122-100l-158 105q110 194 248 194 72 0 157-32l62-23q78-29 106-29 83 0 110 90z"/><glyph glyph-name="macron" unicode="ˉ" horiz-adv-x="683" d="M739 1674v-173H-57v173h796z"/><glyph glyph-name="breve" unicode="˘" horiz-adv-x="683" d="M455 1803h170q-6-136-79.5-219T341 1501q-132 0-204.5 83.5T58 1803h170q12-137 113-137 102 0 114 137z"/><glyph glyph-name="dotaccent" unicode="˙" horiz-adv-x="683" d="M472 1761v-260H211v260h261z"/><glyph glyph-name="ring" unicode="˚" horiz-adv-x="683" d="M342 1922q84 0 147-60.5t63-150.5q0-87-62-148.5T342 1501q-88 0-149.5 61.5T131 1711t62 149 149 62zm-2-132q-33 0-57.5-24t-24.5-59q0-34 24.5-58t57.5-24q34 0 58.5 24t24.5 58q0 35-24.5 59t-58.5 24z"/><glyph glyph-name="cedilla" unicode="¸" horiz-adv-x="683" d="M378 12v-124q52 0 98-35t46-97q0-76-62-132t-148-56q-156 0-199 158h148q14-41 50-41 30 0 44.5 15t14.5 45q0 33-20.5 49.5T287-189q-9 0-26-1V12h117z"/><glyph glyph-name="hungarumlaut" unicode="˝" horiz-adv-x="683" d="m414 1811-241-310H24l118 310h272zm389 0-240-310H414l118 310h271z"/><glyph glyph-name="ogonek" unicode="˛" horiz-adv-x="683" d="M262 21h146Q302-81 302-134q0-32 18-48.5t54-16.5q50 0 114 26l41-100q-84-43-174-43-86 0-142.5 41T156-161q0 89 106 182z"/><glyph glyph-name="caron" unicode="ˇ" horiz-adv-x="683" d="m350 1652 111 131h271l-241-282H209l-257 282h280z"/><glyph glyph-name="Lslash" unicode="Ł" horiz-adv-x="785" d="m517 1011 244 55V894l-244-55V324h256V0H96v744l-82-19v172l82 19v703h421v-608z"/><glyph glyph-name="lslash" unicode="ł" horiz-adv-x="585" d="m500 1045 70 21V894l-70-21V0H84v747l-70-22v172l70 21v701h416v-574z"/><glyph glyph-name="Scaron" unicode="Š" horiz-adv-x="1059" d="M976 1129H585v120q0 84-15 107t-50 23q-38 0-57.5-31t-19.5-94q0-81 22-122 21-41 119-99 281-167 354-274t73-345q0-173-40.5-255T814 21.5 544-34q-169 0-288.5 64T99 193 62 474v106h391V383q0-91 16.5-117t58.5-26 62.5 33 20.5 98q0 143-39 187-40 44-197 147-157 104-208 151T82.5 986 49 1198q0 186 47.5 272T250 1604.5t256 48.5q164 0 279.5-53t153-133.5T976 1193v-64zm-439 692 111 131h271l-241-282H396l-257 282h280z"/><glyph glyph-name="scaron" unicode="š" horiz-adv-x="964" d="M897 903H539v72q0 92-10.5 116.5T476 1116q-34 0-51-22.5t-17-67.5q0-61 8.5-89.5t51-62.5T642 775q176-86 231-162t55-221q0-162-42-244.5t-140.5-127T508-24q-154 0-263.5 48T94 154 53 402v64h358v-84q0-107 13.5-139t53.5-32q43 0 60 21.5t17 90.5q0 95-22 119-23 24-235 142Q120 684 81 765.5T42 959q0 159 42 234.5T226.5 1310t233.5 41q132 0 224.5-33.5t142-88.5 60-102T897 980v-77zm-407 664 111 131h271l-241-282H349L92 1698h280z"/><glyph glyph-name="Zcaron" unicode="Ž" horiz-adv-x="813" d="M788 1619v-324L474 324h314V0H12v235l324 1060H50v324h738zm-374 202 111 131h271l-241-282H273L16 1952h280z"/><glyph glyph-name="zcaron" unicode="ž" horiz-adv-x="719" d="M701 1327v-294L403 266h298V0H12v278l305 783H43v266h658zm-352 240 111 131h271l-241-282H208l-257 282h280z"/><glyph glyph-name="brokenbar" unicode="¦" horiz-adv-x="555" d="M169 1619h217V804H169v815zm0-1069h217v-815H169v815z"/><glyph glyph-name="Eth" unicode="Ð" horiz-adv-x="1144" d="M96 810H14v172h82v637h315q305 0 412.5-28t163.5-92 70-142.5 14-308.5V481q0-218-20.5-291.5T979 74.5t-126-58T627 0H96v810zm421 0V277q91 0 112 36.5T650 512v629q0 110-7 141t-31.5 45.5T517 1342V982h66V810h-66z"/><glyph glyph-name="Eth" unicode="Đ" horiz-adv-x="1144" d="M96 810H14v172h82v637h315q305 0 412.5-28t163.5-92 70-142.5 14-308.5V481q0-218-20.5-291.5T979 74.5t-126-58T627 0H96v810zm421 0V277q91 0 112 36.5T650 512v629q0 110-7 141t-31.5 45.5T517 1342V982h66V810h-66z"/><glyph glyph-name="eth" unicode="ð" horiz-adv-x="1047" d="M370 1619h245q27-19 51-40l161 40 30-89-114-32q68-79 129-190t88-224.5T987 775V473q0-167-43.5-272T791 36 516-24q-167 0-273.5 56.5T98 185.5 60 494v292q0 175 34.5 270t122 165 198.5 70q98 0 168-56-19 107-74 202l-192-52-30 91 167 46q-50 67-84 97zm213-712q0 99-11.5 124t-47.5 25q-34 0-47-30t-13-106V351q0-83 14.5-111.5T525 211q31 0 44.5 27.5T583 362v545z"/><glyph glyph-name="Yacute" unicode="Ý" horiz-adv-x="969" d="M981 1619 674 586V0H284v586L-12 1619h387q91-473 102-637 35 259 117 637h387zm-155 322-329-271H294l176 271h356z"/><glyph glyph-name="yacute" unicode="ý" horiz-adv-x="918" d="M918 1327 802 367q-27-228-45.5-311T695-81t-119.5-79.5T331-186H86V26q94 0 121 9.5T234 78q0 16-25 139L-12 1327h367l132-895 64 895h367zm-104 360-329-271H282l176 271h356z"/><glyph glyph-name="Thorn" unicode="Þ" horiz-adv-x="1028" d="M505 1317q176 0 263.5-25t140-79.5 67.5-123T991 864V724q0-144-28-217T851.5 392 618 350H505V0H84v1619h421v-302zm0-277V628h31q58 0 80.5 28.5T639 775v132q0 81-26 107t-108 26z"/><glyph glyph-name="thorn" unicode="þ" horiz-adv-x="1063" d="M476 1619v-409q107 141 261 141 94 0 162.5-50.5T985 1184t17-224V401q0-181-21.5-257.5t-88-122T732-24q-150 0-256 139v-304H72v1808h404zm122-678q0 123-9 149t-50 26q-40 0-51.5-30T476 941V391q0-120 12-150t52-30q39 0 48.5 27.5T598 372v569z"/><glyph glyph-name="minus" unicode="−" horiz-adv-x="1092" d="M64 931h964V687H64v244z"/><glyph glyph-name="multiply" unicode="×" horiz-adv-x="1092" d="m74 1122 172 172 300-299 299 299 173-172-299-300 297-296-172-173-297 297-298-296L77 526l297 296z"/><glyph glyph-name="onesuperior" unicode="¹" horiz-adv-x="501" d="M440 1636V783H185v457q0 98-5 115t-30 26.5-110 9.5H12v110q183 33 278 135h150z"/><glyph glyph-name="twosuperior" unicode="²" horiz-adv-x="651" d="M592 938V783H36v128q250 344 293.5 419t43.5 118q0 60-53 60-29 0-42-16.5t-13-69.5v-86H36v37q0 88 19 142.5t83 94.5 171 40q150 0 227.5-63t77.5-162q0-75-42.5-153.5T394 1026l-69-88h267z"/><glyph glyph-name="threesuperior" unicode="³" horiz-adv-x="668" d="M532 1263q45-14 72.5-53t27.5-169q0-170-82.5-222.5T336 766q-121 0-189.5 35T57 887t-21 170v56h255V986q0-53 7-65.5t33-12.5q29 0 37.5 17t8.5 94v54q0 67-27 84t-124 18v134q108 0 129.5 13t21.5 72v48q0 44-11 55t-32 11q-25 0-34-12t-9-60v-59H36v62q0 125 65.5 168t211.5 43q177 0 243-59t66-170q0-47-16-89.5t-74-68.5z"/><glyph glyph-name="onehalf" unicode="½" horiz-adv-x="1321" d="M1001 1650 368-31H214l635 1681h152zm-561-14V783H185v457q0 98-5 115t-30 26.5-110 9.5H12v110q183 33 278 135h150zm822-1481V0H706v128q250 344 293.5 419t43.5 119q0 60-54 60-28 0-41-16.5T935 639v-85H706v36q0 88 19 143t83 95 171 40q150 0 227.5-63.5T1284 642q0-73-43.5-153.5T1064 243l-69-88h267z"/><glyph glyph-name="onequarter" unicode="¼" horiz-adv-x="1277" d="M1001 1650 368-31H214l635 1681h152zm-561-14V783H185v457q0 98-5 115t-30 26.5-110 9.5H12v110q183 33 278 135h150zm742-782V304h71V148h-71V0H926v148H629v151l218 555h335zM926 304v335L800 304h126z"/><glyph glyph-name="threequarters" unicode="¾" horiz-adv-x="1416" d="M532 1263q45-14 72.5-53t27.5-169q0-170-82.5-222.5T336 766q-121 0-189.5 35T57 887t-21 170v56h255V986q0-53 7-65.5t33-12.5q29 0 37.5 17t8.5 94v54q0 67-27 84t-124 18v134q108 0 129.5 13t21.5 72v48q0 44-11 55t-32 11q-25 0-34-12t-9-60v-59H36v62q0 125 65.5 168t211.5 43q177 0 243-59t66-170q0-47-16-89.5t-74-68.5zm607 387L507-31H353l634 1681h152zm181-796V304h71V148h-71V0h-255v148H767v151l218 555h335zm-255-550v335L938 304h127z"/><glyph glyph-name="francXXX" horiz-adv-x="1493" d="M832 988v339h404l-16-174q88 187 255 198V884q-110 0-162.5-30t-64.5-83.5-12-246.5V0H832v680H505V0H84v1619h713v-324H505V988h327z"/><glyph glyph-name="Gbreve" unicode="Ğ" horiz-adv-x="1129" d="M1050 1023H629v147q0 139-12 174t-57 35q-39 0-53-30t-14-154V418q0-109 14-143.5t56-34.5q46 0 62.5 39T642 431v192h-85v246h493V0H785l-39 116Q703 41 637.5 3.5T483-34q-106 0-198.5 51.5T144 145 84 304.5 72 555v481q0 232 25 337t143.5 192.5T547 1653q185 0 307-76t159-180.5 37-303.5v-70zm-372 949h170q-6-136-79.5-219T564 1670q-132 0-204.5 83.5T281 1972h170q12-137 113-137 102 0 114 137z"/><glyph glyph-name="gbreve" unicode="ğ" horiz-adv-x="1062" d="M990 1327V305q0-207-9.5-267.5T913-90.5t-161.5-103T491-229q-193 0-310 65.5T60 94h392q0-88 64-88 46 0 61 27t15 113v100q-52-47-109.5-71T362 151q-109 0-179.5 44T86 310.5 60 514v482q0 189 68 272t207 83q76 0 138.5-31t111.5-93l29 100h376zM585 975q0 91-10.5 116t-46.5 25q-35 0-49.5-28.5T464 975V529q0-89 11-115.5t46-26.5q40 0 52 32t12 145v411zm59 743h170q-6-136-79.5-219T530 1416q-132 0-204.5 83.5T247 1718h170q12-137 113-137 102 0 114 137z"/><glyph glyph-name="Idotaccent" unicode="İ" horiz-adv-x="590" d="M505 1619V0H84v1619h421zm-80 311v-260H164v260h261z"/><glyph glyph-name="Scedilla" unicode="Ş" horiz-adv-x="1059" d="M565-33v-19q53 0 98.5-35t45.5-97q0-76-61.5-131.5T500-371q-157 0-199 158h147q14-42 51-42 59 0 59 60 0 66-83 66h-27v102Q287-5 197.5 67T85 234 62 474v106h391V383q0-91 16.5-117t58.5-26q83 0 83 131 0 143-39.5 187T375 705Q218 809 167 856T82.5 986 49 1198q0 186 47.5 272T250 1604.5t256 48.5q164 0 279.5-53t153-133.5T976 1193v-64H585v120q0 84-15 107t-50 23q-77 0-77-125 0-81 21.5-122t119.5-99q281-167 354-274t73-345q0-163-34-242.5t-146.5-141T565-33z"/><glyph glyph-name="scedilla" unicode="ş" horiz-adv-x="964" d="M518-24v-28q52 0 98-35t46-97q0-76-61.5-131.5T453-371q-157 0-200 158h148q14-42 51-42 59 0 59 60 0 66-83 66h-27v112Q286-2 207.5 42.5T91 160 53 402v64h358v-84q0-107 13.5-139t53.5-32q43 0 60 21.5t17 90.5q0 95-22.5 119T298 584Q120 684 81 765.5T42 959q0 159 42 234.5T226.5 1310t233.5 41q132 0 224.5-33.5t142-88.5 60-102T897 980v-77H539v72q0 92-10.5 116.5T476 1116q-68 0-68-90 0-61 8.5-89.5t51-62.5T642 775q176-86 231-162t55-221q0-154-37-234.5T761.5 28 518-24z"/><glyph glyph-name="Cacute" unicode="Ć" horiz-adv-x="1134" d="M1067 913H646v282q0 123-13.5 153.5T573 1379q-52 0-66-37t-14-160V430q0-118 14-154t63-36q47 0 61.5 36T646 445v203h421v-63q0-251-35.5-356t-157-184T575-34q-185 0-305 67T111 218.5 72 575v473q0 175 12 262.5t71.5 168.5 165 127.5T563 1653q186 0 307-72t159-179.5 38-334.5V913zM911 1941l-329-271H379l176 271h356z"/><glyph glyph-name="cacute" unicode="ć" horiz-adv-x="1013" d="M965 826H584v153q0 80-13 108.5t-48 28.5-47-25-12-112V353q0-71 18-106.5t53-35.5q41 0 55.5 37T605 388v158h360q-1-159-11.5-238.5t-67-163T739 18.5 514-24q-171 0-271 58.5t-141.5 164T60 498v377q0 169 34 255t145 153.5 270 67.5q158 0 270-67t149-169 37-289zm-114 861-329-271H319l176 271h356z"/><glyph glyph-name="Ccaron" unicode="Č" horiz-adv-x="1134" d="M1067 913H646v282q0 123-13.5 153.5T573 1379q-52 0-66-37t-14-160V430q0-118 14-154t63-36q47 0 61.5 36T646 445v203h421v-63q0-251-35.5-356t-157-184T575-34q-185 0-305 67T111 218.5 72 575v473q0 175 12 262.5t71.5 168.5 165 127.5T563 1653q186 0 307-72t159-179.5 38-334.5V913zm-489 908 111 131h271l-241-282H437l-257 282h280z"/><glyph glyph-name="ccaron" unicode="č" horiz-adv-x="1013" d="M965 826H584v153q0 80-13 108.5t-48 28.5-47-25-12-112V353q0-71 18-106.5t53-35.5q41 0 55.5 37T605 388v158h360q-1-159-11.5-238.5t-67-163T739 18.5 514-24q-171 0-271 58.5t-141.5 164T60 498v377q0 169 34 255t145 153.5 270 67.5q158 0 270-67t149-169 37-289zm-447 741 111 131h271l-241-282H377l-257 282h280z"/><glyph glyph-name="dmacron" unicode="đ" horiz-adv-x="1064" d="M991 1571h70v-172h-70V0H587v96Q470-24 331-24q-94 0-163 49.5T79.5 140 60 352v621q0 153 19.5 217t89.5 112.5 167 48.5q149 0 251-108v156H336v172h251v48h404v-48zM587 993q0 73-12.5 98t-49.5 25q-36 0-48.5-22.5T464 993V343q0-81 12-106.5t46-25.5q39 0 52 28.5T587 379v614z"/><glyph glyph-name="overscore" unicode="¯" horiz-adv-x="1131" d="M-12 1792h1155v-102H-12v102z"/><glyph glyph-name="middot" unicode="·" horiz-adv-x="683" d="M341 844q59 0 103-42t44-104q0-61-43-104t-104-43q-60 0-103 43t-43 104 43 103.5T341 844z"/><glyph glyph-name="foursuperior" unicode="⁴" horiz-adv-x="660" d="M565 1636v-550h71V931h-71V783H310v148H12v151l218 554h335zm-255-550v336l-127-336h127z"/><glyph glyph-name="commaaccent1" horiz-adv-x="683" d="M346-533h-78q47 130 55 222-82 32-82 108 0 47 29 76.5T341-97q49 0 77-37.5t28-93.5q0-112-100-305z"/><glyph glyph-name="Amacron" unicode="Ā" horiz-adv-x="1040" d="M811 1619 1052 0H621l-21 291H449L424 0H-12l214 1619h609zM588 578q-32 275-64 679-64-464-80-679h144zm317 1265v-173H109v173h796z"/><glyph glyph-name="amacron" unicode="ā" horiz-adv-x="1032" d="M433 813H54v89q0 154 35.5 237.5T232 1287t278 64q205 0 309-72.5t125-178T965 666V0H572v118q-37-71-95.5-106.5T337-24q-106 0-194.5 59.5T54 296v109q0 149 47 203t233 126q199 78 213 105t14 110q0 104-15.5 135.5T494 1116q-41 0-51-26.5T433 952V813zm128-182q-97-71-112.5-119T433 374q0-103 13.5-133t53.5-30q38 0 49.5 23.5T561 358v273zm366 958v-173H131v173h796z"/><glyph glyph-name="Abreve" unicode="Ă" horiz-adv-x="1040" d="M811 1619 1052 0H621l-21 291H449L424 0H-12l214 1619h609zM588 578q-32 275-64 679-64-464-80-679h144zm32 1394h170q-6-136-79.5-219T506 1670q-132 0-204.5 83.5T223 1972h170q12-137 113-137 102 0 114 137z"/><glyph glyph-name="abreve" unicode="ă" horiz-adv-x="1032" d="M433 813H54v89q0 154 35.5 237.5T232 1287t278 64q205 0 309-72.5t125-178T965 666V0H572v118q-37-71-95.5-106.5T337-24q-106 0-194.5 59.5T54 296v109q0 149 47 203t233 126q199 78 213 105t14 110q0 104-15.5 135.5T494 1116q-41 0-51-26.5T433 952V813zm128-182q-97-71-112.5-119T433 374q0-103 13.5-133t53.5-30q38 0 49.5 23.5T561 358v273zm57 1087h170q-6-136-79.5-219T504 1416q-132 0-204.5 83.5T221 1718h170q12-137 113-137 102 0 114 137z"/><glyph glyph-name="Aogonek" unicode="Ą" horiz-adv-x="1040" d="M879 0q-86-85-86-135 0-64 71-64 50 0 115 27l41-100q-96-45-174-45-91 0-145 43t-54 112q0 83 84 162H621l-21 291H449L424 0H-12l215 1620h608L1053 0H879zM444 580h144q-41 362-64 677-53-391-80-677z"/><glyph glyph-name="aogonek" unicode="ą" horiz-adv-x="1032" d="M838 0q-86-85-86-135 0-64 71-64 50 0 115 27l41-100q-96-45-174-45-91 0-145 43t-54 112q0 83 84 162H573v119q-35-65-86.5-93T338-2Q188-2 121.5 60.5T55 297v109q0 143 40 196t186 111q193 76 237.5 101T563 948q0 87-13.5 127.5T500 1116q-32 0-49-17.5t-17-86.5V813H55v88q0 128 22.5 204.5T167 1238t134.5 67.5T512 1317q129 0 215-16.5t136-58 73-117.5 27-162 4-297V0H838zM563 293v338q-83-63-106-106t-23-175q0-88 17.5-113.5T502 211q61 0 61 82z"/><glyph glyph-name="Ccircumflex" unicode="Ĉ" horiz-adv-x="1134" d="M1067 913H646v282q0 123-13.5 153.5T573 1379q-52 0-66-37t-14-160V430q0-118 14-154t63-36q47 0 61.5 36T646 445v203h421v-63q0-251-35.5-356t-157-184T575-34q-185 0-305 67T111 218.5 72 575v473q0 175 12 262.5t71.5 168.5 165 127.5T563 1653q186 0 307-72t159-179.5 38-334.5V913zm-503 888-118-131H166l257 282h282l241-282H675z"/><glyph glyph-name="ccircumflex" unicode="ĉ" horiz-adv-x="1013" d="M965 826H584v153q0 80-13 108.5t-48 28.5-47-25-12-112V353q0-71 18-106.5t53-35.5q41 0 55.5 37T605 388v158h360q-1-159-11.5-238.5t-67-163T739 18.5 514-24q-171 0-271 58.5t-141.5 164T60 498v377q0 169 34 255t145 153.5 270 67.5q158 0 270-67t149-169 37-289zm-461 721-118-131H106l257 282h282l241-282H615z"/><glyph glyph-name="Cdot" unicode="Ċ" horiz-adv-x="1134" d="M1067 913H646v282q0 123-13.5 153.5T573 1379q-52 0-66-37t-14-160V430q0-118 14-154t63-36q47 0 61.5 36T646 445v203h421v-63q0-251-35.5-356t-157-184T575-34q-185 0-305 67T111 218.5 72 575v473q0 175 12 262.5t71.5 168.5 165 127.5T563 1653q186 0 307-72t159-179.5 38-334.5V913zM681 1930v-260H420v260h261z"/><glyph glyph-name="cdot" unicode="ċ" horiz-adv-x="1013" d="M965 826H584v153q0 80-13 108.5t-48 28.5-47-25-12-112V353q0-71 18-106.5t53-35.5q41 0 55.5 37T605 388v158h360q-1-159-11.5-238.5t-67-163T739 18.5 514-24q-171 0-271 58.5t-141.5 164T60 498v377q0 169 34 255t145 153.5 270 67.5q158 0 270-67t149-169 37-289zm-333 850v-260H371v260h261z"/><glyph glyph-name="Dcaron" unicode="Ď" horiz-adv-x="1132" d="M84 1619h315q305 0 412.5-28t163.5-92 70-142.5 14-308.5V481q0-218-20.5-291.5T967 74.5t-126-58T615 0H84v1619zm421-277V277q91 0 112 36.5T638 512v629q0 110-7 141t-32 45.5-94 14.5zm48 479 111 131h271l-241-282H412l-257 282h280z"/><glyph glyph-name="dcaron" unicode="ď" horiz-adv-x="1352" d="M991 1619V0H587v96Q529 36 465 6T331-24q-94 0-163 49.5T79.5 140 60 352v621q0 153 19.5 217t89.5 112.5 167 48.5q75 0 137.5-27t113.5-81v376h404zM587 993q0 73-12.5 98t-49.5 25q-36 0-48.5-22.5T464 993V343q0-81 12-106.5t46-25.5q39 0 52 28.5T587 379v614zm493 626h272v-84q0-322-272-379v117q58 35 67 90h-67v256z"/><glyph glyph-name="Emacron" unicode="Ē" horiz-adv-x="851" d="M84 1619h702v-324H505V988h263V680H505V324h309V0H84v1619zm755 224v-173H43v173h796z"/><glyph glyph-name="emacron" unicode="ē" horiz-adv-x="1047" d="M987 640H464V353q0-90 13-116t50-26q46 0 61.5 34.5T604 379v175h383v-98q0-123-15.5-189T899 126 754.5 13.5 535-24q-128 0-226 37T156.5 114.5 81 256.5 60 482v387q0 174 47 274.5t154 154 246 53.5q170 0 280.5-64.5t155-171T987 816V640zM582 856v97q0 103-11 133t-45 30q-42 0-52-25.5T464 953v-97h118zm341 733v-173H127v173h796z"/><glyph glyph-name="Ebreve" unicode="Ĕ" horiz-adv-x="851" d="M84 1619h702v-324H505V988h263V680H505V324h309V0H84v1619zm477 353h170q-6-136-79.5-219T447 1670q-132 0-204.5 83.5T164 1972h170q12-137 113-137 102 0 114 137z"/><glyph glyph-name="ebreve" unicode="ĕ" horiz-adv-x="1047" d="M987 640H464V353q0-90 13-116t50-26q46 0 61.5 34.5T604 379v175h383v-98q0-123-15.5-189T899 126 754.5 13.5 535-24q-128 0-226 37T156.5 114.5 81 256.5 60 482v387q0 174 47 274.5t154 154 246 53.5q170 0 280.5-64.5t155-171T987 816V640zM582 856v97q0 103-11 133t-45 30q-42 0-52-25.5T464 953v-97h118zm40 862h170q-6-136-79.5-219T508 1416q-132 0-204.5 83.5T225 1718h170q12-137 113-137 102 0 114 137z"/><glyph glyph-name="Edot" unicode="Ė" horiz-adv-x="851" d="M84 1619h702v-324H505V988h263V680H505V324h309V0H84v1619zm499 311v-260H322v260h261z"/><glyph glyph-name="edot" unicode="ė" horiz-adv-x="1047" d="M987 640H464V353q0-90 13-116t50-26q46 0 61.5 34.5T604 379v175h383v-98q0-123-15.5-189T899 126 754.5 13.5 535-24q-128 0-226 37T156.5 114.5 81 256.5 60 482v387q0 174 47 274.5t154 154 246 53.5q170 0 280.5-64.5t155-171T987 816V640zM582 856v97q0 103-11 133t-45 30q-42 0-52-25.5T464 953v-97h118zm50 820v-260H371v260h261z"/><glyph glyph-name="Eogonek" unicode="Ę" horiz-adv-x="850" d="M571 0H84v1620h702v-324H506V987h262V680H506V324h307V0h-94q-86-85-86-135 0-64 72-64 49 0 114 27l41-100q-96-45-174-45-91 0-145 43t-54 112q0 83 84 162z"/><glyph glyph-name="eogonek" unicode="ę" horiz-adv-x="1047" d="M614 0q-86-82-86-135 0-64 72-64 50 0 115 27l41-100q-96-45-174-45-91 0-145 43t-54 112q0 83 84 162-118 8-203 45.5T131 151 71 292 59 481v387q0 108 17 190t70.5 145.5T291 1297t215 30q188 0 298.5-59.5T950 1099t35-284V639H463V352q0-95 16-118t47-23q41 0 59.5 30.5T604 350v205h381v-98q0-110-12.5-177t-63-138T788 38.5 614 0zM463 1018V856h119v96q0 94-9.5 128t-48.5 34q-31 0-46-19t-15-77z"/><glyph glyph-name="Ecaron" unicode="Ě" horiz-adv-x="851" d="M84 1619h702v-324H505V988h263V680H505V324h309V0H84v1619zm363 202 111 131h271l-241-282H306L49 1952h280z"/><glyph glyph-name="ecaron" unicode="ě" horiz-adv-x="1047" d="M987 640H464V353q0-90 13-116t50-26q46 0 61.5 34.5T604 379v175h383v-98q0-123-15.5-189T899 126 754.5 13.5 535-24q-128 0-226 37T156.5 114.5 81 256.5 60 482v387q0 174 47 274.5t154 154 246 53.5q170 0 280.5-64.5t155-171T987 816V640zM582 856v97q0 103-11 133t-45 30q-42 0-52-25.5T464 953v-97h118zm-73 711 111 131h271l-241-282H368l-257 282h280z"/><glyph glyph-name="Gcircumflex" unicode="Ĝ" horiz-adv-x="1129" d="M1050 1021H629v147q0 139-12 174t-57 35q-39 0-53-30t-14-154V416q0-109 14-143.5t56-34.5q46 0 62.5 39T642 429v192h-85v246h493V-2H785l-39 116Q703 39 637.5 1.5T483-36q-106 0-198.5 51.5T144 143 84 302.5 72 553v481q0 232 25 337t143.5 192.5T547 1651q185 0 307-76t159-180.5 37-303.5v-70zm-482 780-118-131H170l257 282h282l241-282H679z"/><glyph glyph-name="gcircumflex" unicode="ĝ" horiz-adv-x="1062" d="M990 1327V305q0-207-9.5-267.5T913-90.5t-161.5-103T491-229q-193 0-310 65.5T60 94h392q0-88 64-88 46 0 61 27t15 113v100q-52-47-109.5-71T362 151q-109 0-179.5 44T86 310.5 60 514v482q0 189 68 272t207 83q76 0 138.5-31t111.5-93l29 100h376zM585 975q0 91-10.5 116t-46.5 25q-35 0-49.5-28.5T464 975V529q0-89 11-115.5t46-26.5q40 0 52 32t12 145v411zm-31 572-118-131H156l257 282h282l241-282H665z"/><glyph glyph-name="Gdot" unicode="Ġ" horiz-adv-x="1129" d="M1050 1021H629v147q0 139-12 174t-57 35q-39 0-53-30t-14-154V416q0-109 14-143.5t56-34.5q46 0 62.5 39T642 429v192h-85v246h493V-2H785l-39 116Q703 39 637.5 1.5T483-36q-106 0-198.5 51.5T144 143 84 302.5 72 553v481q0 232 25 337t143.5 192.5T547 1651q185 0 307-76t159-180.5 37-303.5v-70zm-355 909v-260H434v260h261z"/><glyph glyph-name="gdot" unicode="ġ" horiz-adv-x="1062" d="M990 1327V305q0-207-9.5-267.5T913-90.5t-161.5-103T491-229q-193 0-310 65.5T60 94h392q0-88 64-88 46 0 61 27t15 113v100q-52-47-109.5-71T362 151q-109 0-179.5 44T86 310.5 60 514v482q0 189 68 272t207 83q76 0 138.5-31t111.5-93l29 100h376zM585 975q0 91-10.5 116t-46.5 25q-35 0-49.5-28.5T464 975V529q0-89 11-115.5t46-26.5q40 0 52 32t12 145v411zm98 701v-260H422v260h261z"/><glyph glyph-name="Gcedilla" unicode="Ģ" horiz-adv-x="1129" d="M1050 1023H629v147q0 139-12 174t-57 35q-39 0-53-30t-14-154V418q0-109 14-143.5t56-34.5q46 0 62.5 39T642 431v192h-85v246h493V0H785l-39 116Q703 41 637.5 3.5T483-34q-106 0-198.5 51.5T144 145 84 304.5 72 555v481q0 232 25 337t143.5 192.5T547 1653q185 0 307-76t159-180.5 37-303.5v-70zM428-80h272v-84q0-322-272-379v117q58 35 67 90h-67v256z"/><glyph glyph-name="gcedilla" unicode="ģ" horiz-adv-x="1062" d="M990 1327V305q0-207-9.5-267.5T913-90.5t-161.5-103T491-229q-193 0-310 65.5T60 94h392q0-88 64-88 46 0 61 27t15 113v100q-52-47-109.5-71T362 151q-109 0-179.5 44T86 310.5 60 514v482q0 189 68 272t207 83q76 0 138.5-31t111.5-93l29 100h376zM585 975q0 91-10.5 116t-46.5 25q-35 0-49.5-28.5T464 975V529q0-89 11-115.5t46-26.5q40 0 52 32t12 145v411zm-183 441v145q0 114 27.5 187t94 124 149.5 68v-116q-59-34-67-91h67v-317H402z"/><glyph glyph-name="Hcircumflex" unicode="Ĥ" horiz-adv-x="1137" d="M1052 1619V0H631v680H505V0H84v1619h421v-579h126v579h421zm-482 182-118-131H172l257 282h282l241-282H681z"/><glyph glyph-name="hcircumflex" unicode="ĥ" horiz-adv-x="1073" d="M476 1619v-364q52 48 112.5 72t129.5 24q106 0 180.5-54t91-124.5T1006 915V0H602v934q0 116-11.5 149t-51.5 33q-37 0-50-34t-13-135V0H72v1619h404zm74 182-118-131H152l257 282h282l241-282H661z"/><glyph glyph-name="Hbar" unicode="Ħ" horiz-adv-x="1137" d="M84 1403v217h422v-217h125v217h422v-217h67v-172h-67V0H631v680H506V0H84v1231H14v172h70zm422-172v-191h125v191H506z"/><glyph glyph-name="hbar" unicode="ħ" horiz-adv-x="1073" d="M72 1559v61h403v-61h94v-173h-94v-131q76 72 242 72 115 0 186-41t87-119 16-252V0H602v934q0 106-10 143t-53 37q-36 0-50-33t-14-133V0H72v1386H0v173h72z"/><glyph glyph-name="Itilde" unicode="Ĩ" horiz-adv-x="590" d="M505 1619V0H84v1619h421zm214 241q-46-101-113-141t-118-40q-71 0-153 33l-74 29q-71 29-106 29-74 0-122-100l-158 105q110 194 248 194 72 0 157-32l62-23q78-29 106-29 83 0 110 90z"/><glyph glyph-name="itilde" unicode="ĩ" horiz-adv-x="561" d="M488 1327V0H72v1327h416zm215 279q-46-101-113-141t-118-40q-71 0-153 33l-74 29q-71 29-106 29-74 0-122-100l-158 105q110 194 248 194 72 0 157-32l62-23q78-29 106-29 83 0 110 90z"/><glyph glyph-name="Imacron" unicode="Ī" horiz-adv-x="590" d="M505 1619V0H84v1619h421zm189 224v-173h-796v173h796z"/><glyph glyph-name="imacron" unicode="ī" horiz-adv-x="561" d="M488 1327V0H72v1327h416zm191 262v-173h-796v173h796z"/><glyph glyph-name="Ibreve" unicode="Ĭ" horiz-adv-x="590" d="M505 1619V0H84v1619h421zm-102 353h170q-6-136-79.5-219T289 1670q-132 0-204.5 83.5T6 1972h170q12-137 113-137 102 0 114 137z"/><glyph glyph-name="ibreve" unicode="ĭ" horiz-adv-x="561" d="M488 1327V0H72v1327h416zm-93 391h170q-6-136-79.5-219T281 1416q-132 0-204.5 83.5T-2 1718h170q12-137 113-137 102 0 114 137z"/><glyph glyph-name="Iogonek" unicode="Į" horiz-adv-x="590" d="M240 0H84v1620h422V0H387q-86-85-86-135 0-64 72-64 50 0 114 27l41-100q-96-45-174-45-91 0-144.5 43T156-162q0 83 84 162z"/><glyph glyph-name="iogonek" unicode="į" horiz-adv-x="561" d="M219 0H72v1327h415V0H367q-86-85-86-135 0-64 71-64 50 0 115 27l41-100q-96-45-174-45-91 0-145 43t-54 112q0 83 84 162z"/><glyph glyph-name="IJ" unicode="Ĳ" horiz-adv-x="1282" d="M84 0v1620h422V0H84zm692 412v1208h422V360q0-222-73.5-291T827 0H616v283l56-2q54 0 79 29t25 102z"/><glyph glyph-name="ij" unicode="ĳ" horiz-adv-x="1133" d="M72 1411v209h415v-209H72zm573 0v209h416v-209H645zM72 0v1327h415V0H72zm573 156v1171h416V152q0-198-78.5-268T711-186H555V27q56 0 69.5 5t17 28 3.5 96z"/><glyph glyph-name="Jcircumflex" unicode="Ĵ" horiz-adv-x="678" d="M599 1619V537q0-243-5-312.5T548.5 99t-110-77.5T229 0H18v283q38-3 55-3 45 0 71 22t30 54 4 124v1139h421zm-217 182-118-131H-16l257 282h282l241-282H493z"/><glyph glyph-name="jcircumflex" unicode="ĵ" horiz-adv-x="573" d="m397 1501-110 131-117-131h-281l258 283h281l242-283H397zM84 156v1171h416V152q0-198-78.5-268T150-186H-6V27q56 0 69.5 5t17 28 3.5 96z"/><glyph glyph-name="Kcedilla" unicode="Ķ" horiz-adv-x="1099" d="M1087 1619 846 888 1110 0H675L505 694V0H84v1619h421V990l187 629h395zM459-80h272v-84q0-322-272-379v117q58 35 67 90h-67v256z"/><glyph glyph-name="kcedilla" unicode="ķ" horiz-adv-x="979" d="M942 1327 778 798 991 0H602L476 578V0H72v1619h404V939l126 388h340zM397-80h272v-84q0-322-272-379v117q58 35 67 90h-67v256z"/><glyph glyph-name="kgreenlandic" unicode="ĸ" horiz-adv-x="1059" d="m475 817 217 510h350L793 748 1063 0H670L475 586V0H72v1327h403V817z"/><glyph glyph-name="Lacute" unicode="Ĺ" horiz-adv-x="779" d="M505 1619V324h256V0H84v1619h421zm187 322-329-271H160l176 271h356z"/><glyph glyph-name="lacute" unicode="ĺ" horiz-adv-x="561" d="M488 1619V0H72v1619h416zm138 322-329-271H94l176 271h356z"/><glyph glyph-name="Lcedilla" unicode="Ļ" horiz-adv-x="779" d="M505 1619V324h256V0H84v1619h421zM317-80h272v-84q0-322-272-379v117q58 35 67 90h-67v256z"/><glyph glyph-name="lcedilla" unicode="ļ" horiz-adv-x="561" d="M488 1619V0H72v1619h416zM144-80h272v-84q0-322-272-379v117q58 35 67 90h-67v256z"/><glyph glyph-name="Lcaron" unicode="Ľ" horiz-adv-x="885" d="M505 1619V324h256V0H84v1619h421zm91 1h272v-84q0-322-272-379v117q58 35 67 90h-67v256z"/><glyph glyph-name="lcaron" unicode="ľ" horiz-adv-x="879" d="M488 1619V0H72v1619h416zm98 1h272v-84q0-322-272-379v117q58 35 67 90h-67v256z"/><glyph glyph-name="Ldot" unicode="Ŀ" horiz-adv-x="872" d="M505 1619V324h256V0H84v1619h421zm330-391V968H574v260h261z"/><glyph glyph-name="ldot" unicode="ŀ" horiz-adv-x="872" d="M488 1619V0H72v1619h416zm347-391V968H574v260h261z"/><glyph glyph-name="Nacute" unicode="Ń" horiz-adv-x="1109" d="M1024 1619V0H655L436 736V0H84v1619h352l236-729v729h352zm-148 322-329-271H344l176 271h356z"/><glyph glyph-name="nacute" unicode="ń" horiz-adv-x="1071" d="m483 1327-7-122q44 73 107.5 109.5T730 1351q104 0 170-49t85-123.5 19-248.5V0H600v919q0 137-9 167t-50 30q-43 0-54-34.5T476 897V0H72v1327h411zm344 360-329-271H295l176 271h356z"/><glyph glyph-name="Ncedilla" unicode="Ņ" horiz-adv-x="1109" d="M1024 1619V0H655L436 736V0H84v1619h352l236-729v729h352zM418-80h272v-84q0-322-272-379v117q58 35 67 90h-67v256z"/><glyph glyph-name="ncedilla" unicode="ņ" horiz-adv-x="1071" d="m483 1327-7-122q44 73 107.5 109.5T730 1351q104 0 170-49t85-123.5 19-248.5V0H600v919q0 137-9 167t-50 30q-43 0-54-34.5T476 897V0H72v1327h411zM399-80h272v-84q0-322-272-379v117q58 35 67 90h-67v256z"/><glyph glyph-name="Ncaron" unicode="Ň" horiz-adv-x="1109" d="M1024 1619V0H655L436 736V0H84v1619h352l236-729v729h352zm-485 202 111 131h271l-241-282H398l-257 282h280z"/><glyph glyph-name="ncaron" unicode="ň" horiz-adv-x="1071" d="m483 1327-7-122q44 73 107.5 109.5T730 1351q104 0 170-49t85-123.5 19-248.5V0H600v919q0 137-9 167t-50 30q-43 0-54-34.5T476 897V0H72v1327h411zm46 240 111 131h271l-241-282H388l-257 282h280z"/><glyph glyph-name="napostrophe" unicode="ŉ" horiz-adv-x="1341" d="m749 1321-7-122q44 73 107.5 109.5T996 1345q104 0 170-49t85-123.5 19-248.5V-6H866v919q0 137-9 167t-50 30q-43 0-54-34.5T742 891V-6H338v1327h411zM10 1620h272v-84q0-322-272-379v117q58 35 67 90H10v256z"/><glyph glyph-name="Eng" unicode="Ŋ" horiz-adv-x="1133" d="M684 0H584v213q29 1 39 25.5T633 342v860q0 102-10.5 140t-55.5 38q-26 0-43.5-23.5T506 1311V0H84v1620h422v-84q21 28 79.5 54t112.5 26q152 0 218.5-66t102.5-157.5 36-444.5V672q0-223-11-329t-61-186T855 38.5 684 0z"/><glyph glyph-name="eng" unicode="ŋ" horiz-adv-x="1071" d="M668-252H512v213q62 0 75 8t13 121v830q0 130-8 163t-51 33q-47 0-56.5-41.5T475 897V0H72v1327h411l-8-123q86 135 254 135 79 0 131.5-18t89.5-70 45.5-119 8.5-202V92q0-344-336-344z"/><glyph glyph-name="Omacron" unicode="Ō" horiz-adv-x="1119" d="M1046 668q0-244-11.5-345.5t-72-185.5T799 8 559-37Q429-37 325.5 5.5T159 133 84 318 72 668v277q0 244 11.5 345.5t72 185.5T319 1605t240 45q130 0 233.5-42.5T959 1480t75-185 12-350V668zm-421 532q0 113-12.5 144.5T561 1376q-33 0-50.5-25.5T493 1200V444q0-141 11.5-174t53.5-33q43 0 55 38t12 181v744zm327 643v-173H156v173h796z"/><glyph glyph-name="omacron" unicode="ō" horiz-adv-x="1047" d="M986 861V536q0-179-18-262.5t-77-156-151.5-107T527-24Q393-24 300 5.5t-144.5 89-73.5 144T60 492v340q0 185 40 289t144 167 266 63q136 0 233.5-40.5T894 1205t72.5-134T986 861zM582 961q0 102-11 128.5t-47 26.5-48-26.5T464 961V362q0-94 12-122.5t47-28.5q36 0 47.5 26T582 349v612zm337 628v-173H123v173h796z"/><glyph glyph-name="Obreve" unicode="Ŏ" horiz-adv-x="1119" d="M1046 668q0-244-11.5-345.5t-72-185.5T799 8 559-37Q429-37 325.5 5.5T159 133 84 318 72 668v277q0 244 11.5 345.5t72 185.5T319 1605t240 45q130 0 233.5-42.5T959 1480t75-185 12-350V668zm-421 532q0 113-12.5 144.5T561 1376q-33 0-50.5-25.5T493 1200V444q0-141 11.5-174t53.5-33q43 0 55 38t12 181v744zm42 772h170q-6-136-79.5-219T553 1670q-132 0-204.5 83.5T270 1972h170q12-137 113-137 102 0 114 137z"/><glyph glyph-name="obreve" unicode="ŏ" horiz-adv-x="1047" d="M986 861V536q0-179-18-262.5t-77-156-151.5-107T527-24Q393-24 300 5.5t-144.5 89-73.5 144T60 492v340q0 185 40 289t144 167 266 63q136 0 233.5-40.5T894 1205t72.5-134T986 861zM582 961q0 102-11 128.5t-47 26.5-48-26.5T464 961V362q0-94 12-122.5t47-28.5q36 0 47.5 26T582 349v612zm44 757h170q-6-136-79.5-219T512 1416q-132 0-204.5 83.5T229 1718h170q12-137 113-137 102 0 114 137z"/><glyph glyph-name="Odblacute" unicode="Ő" horiz-adv-x="1119" d="M1046 668q0-244-11.5-345.5t-72-185.5T799 8 559-37Q429-37 325.5 5.5T159 133 84 318 72 668v277q0 244 11.5 345.5t72 185.5T319 1605t240 45q130 0 233.5-42.5T959 1480t75-185 12-350V668zm-421 532q0 113-12.5 144.5T561 1376q-33 0-50.5-25.5T493 1200V444q0-141 11.5-174t53.5-33q43 0 55 38t12 181v744zm-6 780-241-310H229l118 310h272zm389 0-240-310H619l118 310h271z"/><glyph glyph-name="odblacute" unicode="ő" horiz-adv-x="1047" d="M986 861V536q0-179-18-262.5t-77-156-151.5-107T527-24Q393-24 300 5.5t-144.5 89-73.5 144T60 492v340q0 185 40 289t144 167 266 63q136 0 233.5-40.5T894 1205t72.5-134T986 861zM582 961q0 102-11 128.5t-47 26.5-48-26.5T464 961V362q0-94 12-122.5t47-28.5q36 0 47.5 26T582 349v612zm-4 765-241-310H188l118 310h272zm389 0-240-310H578l118 310h271z"/><glyph glyph-name="Racute" unicode="Ŕ" horiz-adv-x="1103" d="M84 1619h298q298 0 403.5-23t172-117.5T1024 1177q0-189-47-254t-185-78q125-31 168-83t53.5-95.5T1024 427V0H633v538q0 130-20.5 161T505 730V0H84v1619zm421-277V982q71 0 99.5 19.5T633 1128v89q0 77-27.5 101T505 1342zm342 731-329-271H315l176 271h356z"/><glyph glyph-name="racute" unicode="ŕ" horiz-adv-x="733" d="m476 1327-16-174q88 187 255 198V884q-111 0-163-30t-64-83.5T476 524V0H72v1327h404zm208 445-329-271H152l176 271h356z"/><glyph glyph-name="Rcedilla" unicode="Ŗ" horiz-adv-x="1103" d="M84 1619h298q298 0 403.5-23t172-117.5T1024 1177q0-189-47-254t-185-78q125-31 168-83t53.5-95.5T1024 427V0H633v538q0 130-20.5 161T505 730V0H84v1619zm421-277V982q71 0 99.5 19.5T633 1128v89q0 77-27.5 101T505 1342zM415-80h272v-84q0-322-272-379v117q58 35 67 90h-67v256z"/><glyph glyph-name="rcedilla" unicode="ŗ" horiz-adv-x="733" d="m476 1327-16-174q88 187 255 198V884q-111 0-163-30t-64-83.5T476 524V0H72v1327h404zM139-80h272v-84q0-322-272-379v117q58 35 67 90h-67v256z"/><glyph glyph-name="Rcaron" unicode="Ř" horiz-adv-x="1103" d="M84 1619h298q298 0 403.5-23t172-117.5T1024 1177q0-189-47-254t-185-78q125-31 168-83t53.5-95.5T1024 427V0H633v538q0 130-20.5 161T505 730V0H84v1619zm421-277V982q71 0 99.5 19.5T633 1128v89q0 77-27.5 101T505 1342zm20 479 111 131h271l-241-282H384l-257 282h280z"/><glyph glyph-name="rcaron" unicode="ř" horiz-adv-x="733" d="m476 1327-16-174q88 187 255 198V884q-111 0-163-30t-64-83.5T476 524V0H72v1327h404zm-107 240 111 131h271l-241-282H228l-257 282h280z"/><glyph glyph-name="Sacute" unicode="Ś" horiz-adv-x="1059" d="M976 1126H585v120q0 84-15 107t-50 23q-38 0-57.5-31t-19.5-94q0-81 22-122 21-41 119-99 281-167 354-274t73-345q0-173-40.5-255T814 18.5 544-37q-169 0-288.5 64T99 190 62 471v106h391V380q0-91 16.5-117t58.5-26 62.5 33 20.5 98q0 143-39 187-40 44-197 147-157 104-208 151T82.5 983 49 1195q0 186 47.5 272T250 1601.5t256 48.5q164 0 279.5-53t153-133.5T976 1190v-64zm-125 815-329-271H319l176 271h356z"/><glyph glyph-name="sacute" unicode="ś" horiz-adv-x="964" d="M897 903H539v72q0 92-10.5 116.5T476 1116q-34 0-51-22.5t-17-67.5q0-61 8.5-89.5t51-62.5T642 775q176-86 231-162t55-221q0-162-42-244.5t-140.5-127T508-24q-154 0-263.5 48T94 154 53 402v64h358v-84q0-107 13.5-139t53.5-32q43 0 60 21.5t17 90.5q0 95-22 119-23 24-235 142Q120 684 81 765.5T42 959q0 159 42 234.5T226.5 1310t233.5 41q132 0 224.5-33.5t142-88.5 60-102T897 980v-77zm-86 784-329-271H279l176 271h356z"/><glyph glyph-name="Scircumflex" unicode="Ŝ" horiz-adv-x="1059" d="M976 1126H585v120q0 84-15 107t-50 23q-38 0-57.5-31t-19.5-94q0-81 22-122 21-41 119-99 281-167 354-274t73-345q0-173-40.5-255T814 18.5 544-37q-169 0-288.5 64T99 190 62 471v106h391V380q0-91 16.5-117t58.5-26 62.5 33 20.5 98q0 143-39 187-40 44-197 147-157 104-208 151T82.5 983 49 1195q0 186 47.5 272T250 1601.5t256 48.5q164 0 279.5-53t153-133.5T976 1190v-64zm-469 675-118-131H109l257 282h282l241-282H618z"/><glyph glyph-name="scircumflex" unicode="ŝ" horiz-adv-x="964" d="M897 903H539v72q0 92-10.5 116.5T476 1116q-34 0-51-22.5t-17-67.5q0-61 8.5-89.5t51-62.5T642 775q176-86 231-162t55-221q0-162-42-244.5t-140.5-127T508-24q-154 0-263.5 48T94 154 53 402v64h358v-84q0-107 13.5-139t53.5-32q43 0 60 21.5t17 90.5q0 95-22 119-23 24-235 142Q120 684 81 765.5T42 959q0 159 42 234.5T226.5 1310t233.5 41q132 0 224.5-33.5t142-88.5 60-102T897 980v-77zm-433 644-118-131H66l257 282h282l241-282H575z"/><glyph glyph-name="Tcedilla" unicode="Ţ" horiz-adv-x="944" d="M932 1619v-324H682V0H261v1295H12v324h920zM538 12v-124q52 0 98-35t46-97q0-76-62-132t-148-56q-156 0-199 158h148q14-41 50-41 30 0 44.5 15t14.5 45q0 33-20.5 49.5T447-189q-9 0-26-1V12h117z"/><glyph glyph-name="tcedilla" unicode="ţ" horiz-adv-x="624" d="M498 1504v-209h109v-210H498V375q0-131 13.5-146T624 214V0H461Q323 0 264 11.5t-104 53-56 95T93 411v674H6v210h87v209h405zM488 4v-124q52 0 98-35t46-97q0-76-62-132t-148-56q-156 0-199 158h148q14-41 50-41 30 0 44.5 15t14.5 45q0 33-20.5 49.5T397-197q-9 0-26-1V4h117z"/><glyph glyph-name="Tcaron" unicode="Ť" horiz-adv-x="944" d="M932 1619v-324H682V0H261v1295H12v324h920zm-460 202 111 131h271l-241-282H331L74 1952h280z"/><glyph glyph-name="tcaron" unicode="ť" horiz-adv-x="944" d="M498 1504v-209h109v-210H498V375q0-131 13.5-146T624 214V0H461Q323 0 264 11.5t-104 53-56 95T93 411v674H6v210h87v209h405zm174 115h272v-84q0-322-272-379v117q58 35 67 90h-67v256z"/><glyph glyph-name="Tbar" unicode="Ŧ" horiz-adv-x="944" d="M262 911v385H12v324h920v-324H684V911h160V739H684V0H262v739H104v172h158z"/><glyph glyph-name="tbar" unicode="ŧ" horiz-adv-x="623" d="M94 911v174H6v209h88v211h404v-211h108v-209H498V911h106V739H498V375q0-93 5-121t25-34.5 97-6.5V0H461Q334 0 271 10T160 63.5t-57 110T94 412v327H6v172h88z"/><glyph glyph-name="Utilde" unicode="Ũ" horiz-adv-x="1120" d="M1041 1635V553q0-184-12-258.5t-71-153-155.5-119T575-18q-145 0-256 48T153 155 88 317.5 78 677v958h421V421q0-106 11.5-135.5T557 256q40 0 51.5 32.5T620 442v1193h421zm-66 225q-46-101-113-141t-118-40q-71 0-153 33l-74 29q-71 29-106 29-74 0-122-100l-158 105q110 194 248 194 72 0 157-32l62-23q78-29 106-29 83 0 110 90z"/><glyph glyph-name="utilde" unicode="ũ" horiz-adv-x="1070" d="M997 1338V11H586l7 110Q551 54 489.5 20.5T348-13q-91 0-151 32t-88.5 85T73 214.5 66 443v895h404V435q0-155 9.5-184t51.5-29q45 0 53.5 30t8.5 193v893h404zm-57 268q-46-101-113-141t-118-40q-71 0-153 33l-74 29q-71 29-106 29-74 0-122-100L96 1521q110 194 248 194 72 0 157-32l62-23q78-29 106-29 83 0 110 90z"/><glyph glyph-name="Umacron" unicode="Ū" horiz-adv-x="1120" d="M1041 1635V553q0-184-12-258.5t-71-153-155.5-119T575-18q-145 0-256 48T153 155 88 317.5 78 677v958h421V421q0-106 11.5-135.5T557 256q40 0 51.5 32.5T620 442v1193h421zm-85 208v-173H160v173h796z"/><glyph glyph-name="umacron" unicode="ū" horiz-adv-x="1070" d="M997 1327V0H586l7 110Q551 43 489.5 9.5T348-24q-91 0-151 32t-88.5 85T73 203.5 66 432v895h404V424q0-155 9.5-184t51.5-29q45 0 53.5 30t8.5 193v893h404zm-72 262v-173H129v173h796z"/><glyph glyph-name="Ubreve" unicode="Ŭ" horiz-adv-x="1120" d="M1041 1635V553q0-184-12-258.5t-71-153-155.5-119T575-18q-145 0-256 48T153 155 88 317.5 78 677v958h421V421q0-106 11.5-135.5T557 256q40 0 51.5 32.5T620 442v1193h421zm-372 337h170q-6-136-79.5-219T555 1670q-132 0-204.5 83.5T272 1972h170q12-137 113-137 102 0 114 137z"/><glyph glyph-name="ubreve" unicode="ŭ" horiz-adv-x="1070" d="M997 1327V0H586l7 110Q551 43 489.5 9.5T348-24q-91 0-151 32t-88.5 85T73 203.5 66 432v895h404V424q0-155 9.5-184t51.5-29q45 0 53.5 30t8.5 193v893h404zm-352 391h170q-6-136-79.5-219T531 1416q-132 0-204.5 83.5T248 1718h170q12-137 113-137 102 0 114 137z"/><glyph glyph-name="Uring" unicode="Ů" horiz-adv-x="1120" d="M1041 1635V553q0-184-12-258.5t-71-153-155.5-119T575-18q-145 0-256 48T153 155 88 317.5 78 677v958h421V421q0-106 11.5-135.5T557 256q40 0 51.5 32.5T620 442v1193h421zm-486 456q84 0 147-60.5t63-150.5q0-87-62-148.5T555 1670q-88 0-149.5 61.5T344 1880t62 149 149 62zm-2-132q-33 0-57.5-24t-24.5-59q0-34 24.5-58t57.5-24q34 0 58.5 24t24.5 58q0 35-24.5 59t-58.5 24z"/><glyph glyph-name="uring" unicode="ů" horiz-adv-x="1070" d="M997 1327V0H586l7 110Q551 43 489.5 9.5T348-24q-91 0-151 32t-88.5 85T73 203.5 66 432v895h404V424q0-155 9.5-184t51.5-29q45 0 53.5 30t8.5 193v893h404zm-467 510q84 0 147-60.5t63-150.5q0-87-62-148.5T530 1416q-88 0-149.5 61.5T319 1626t62 149 149 62zm-2-132q-33 0-57.5-24t-24.5-59q0-34 24.5-58t57.5-24q34 0 58.5 24t24.5 58q0 35-24.5 59t-58.5 24z"/><glyph glyph-name="Udblacute" unicode="Ű" horiz-adv-x="1120" d="M1041 1635V553q0-184-12-258.5t-71-153-155.5-119T575-18q-145 0-256 48T153 155 88 317.5 78 677v958h421V421q0-106 11.5-135.5T557 256q40 0 51.5 32.5T620 442v1193h421zm-444 345-241-310H207l118 310h272zm389 0-240-310H597l118 310h271z"/><glyph glyph-name="udblacute" unicode="ű" horiz-adv-x="1070" d="M997 1327V0H586l7 110Q551 43 489.5 9.5T348-24q-91 0-151 32t-88.5 85T73 203.5 66 432v895h404V424q0-155 9.5-184t51.5-29q45 0 53.5 30t8.5 193v893h404zm-427 399-241-310H180l118 310h272zm389 0-240-310H570l118 310h271z"/><glyph glyph-name="Uogonek" unicode="Ų" horiz-adv-x="1120" d="M494-2Q364 8 273 48T140 158 88 308.5 78 537v1083h422V369q0-87 15-108t44-21q30 0 46 25t16 126v1229h421V463q0-128-20-209t-75.5-142T817 27 637-2q-82-84-82-133 0-64 72-64 50 0 114 27l41-100q-96-45-174-45-91 0-144.5 43T410-162q0 81 84 160z"/><glyph glyph-name="uogonek" unicode="ų" horiz-adv-x="1069" d="M801 0H586l6 111q-45-64-100-88.5T321-2q-77 0-123 15.5T115.5 85t-43 119T66 432v895h403V301q0-90 61-90 34 0 49 21.5t15 91.5v1003h403V0h-49q-86-85-86-135 0-64 72-64 50 0 115 27l41-100q-97-45-175-45-90 0-144 43t-54 112q0 83 84 162z"/><glyph glyph-name="Wcircumflex" unicode="Ŵ" horiz-adv-x="1668" d="M1668 1619 1481 0H955q-72 373-127 848Q803 645 711 0H188L0 1619h409l43-565 44-545q23 423 116 1110h438q9-71 46-534l46-615q35 587 117 1149h409zm-834 182-118-131H436l257 282h282l241-282H945z"/><glyph glyph-name="wcircumflex" unicode="ŵ" horiz-adv-x="1371" d="M1377 1327 1216 0H777q-36 243-83 640-16-174-45-352L604 0H165L-6 1327h348q4-52 88-759 6 72 90 759h335l82-759q19 332 92 759h348zm-688 220-118-131H291l257 282h282l241-282H800z"/><glyph glyph-name="Ycircumflex" unicode="Ŷ" horiz-adv-x="969" d="M981 1619 674 586V0H284v586L-12 1619h387q91-473 102-637 35 259 117 637h387zm-495 182-118-131H88l257 282h282l241-282H597z"/><glyph glyph-name="ycircumflex" unicode="ŷ" horiz-adv-x="918" d="M918 1327 802 367q-27-228-45.5-311T695-81t-119.5-79.5T331-186H86V26q94 0 121 9.5T234 78q0 16-25 139L-12 1327h367l132-895 64 895h367zm-465 220-118-131H55l257 282h282l241-282H564z"/><glyph glyph-name="Zacute" unicode="Ź" horiz-adv-x="813" d="M788 1619v-324L474 324h314V0H12v235l324 1060H50v324h738zm-70 322-329-271H186l176 271h356z"/><glyph glyph-name="zacute" unicode="ź" horiz-adv-x="719" d="M701 1327v-294L403 266h298V0H12v278l305 783H43v266h658zm-17 360-329-271H152l176 271h356z"/><glyph glyph-name="Zdot" unicode="Ż" horiz-adv-x="813" d="M788 1619v-324L474 324h314V0H12v235l324 1060H50v324h738zm-242 311v-260H285v260h261z"/><glyph glyph-name="zdot" unicode="ż" horiz-adv-x="719" d="M701 1327v-294L403 266h298V0H12v278l305 783H43v266h658zm-209 349v-260H231v260h261z"/><glyph glyph-name="longs" unicode="ſ" horiz-adv-x="590" d="M559 1417q-84 0-84-168V0H72v1081q0 179 12 268.5t67.5 162 159.5 107 248 34.5h25v-236h-25z"/><glyph glyph-name="Aringacute" unicode="Ǻ" horiz-adv-x="1040" d="M811 1619 1052 0H621l-21 291H449L424 0H-12l214 1619h609zM588 578q-32 275-64 679-64-464-80-679h144zm-67 1513q84 0 147-60.5t63-150.5q0-87-62-148.5T521 1670q-88 0-149.5 61.5T310 1880t62 149 149 62zm-2-132q-33 0-57.5-24t-24.5-59q0-34 24.5-58t57.5-24q34 0 58.5 24t24.5 58q0 35-24.5 59t-58.5 24zm332 433-329-271H319l176 271h356z"/><glyph glyph-name="aringacute" unicode="ǻ" horiz-adv-x="1032" d="M433 813H54v89q0 154 35.5 237.5T232 1287t278 64q205 0 309-72.5t125-178T965 666V0H572v118q-37-71-95.5-106.5T337-24q-106 0-194.5 59.5T54 296v109q0 149 47 203t233 126q199 78 213 105t14 110q0 104-15.5 135.5T494 1116q-41 0-51-26.5T433 952V813zm128-182q-97-71-112.5-119T433 374q0-103 13.5-133t53.5-30q38 0 49.5 23.5T561 358v273zm-55 1206q84 0 147-60.5t63-150.5q0-87-62-148.5T506 1416q-88 0-149.5 61.5T295 1626t62 149 149 62zm-2-132q-33 0-57.5-24t-24.5-59q0-34 24.5-58t57.5-24q34 0 58.5 24t24.5 58q0 35-24.5 59t-58.5 24zm321 449-329-271H293l176 271h356z"/><glyph glyph-name="AEacute" unicode="Ǽ" horiz-adv-x="1461" d="M1404 1619v-324h-283V988h266V680h-266V324h303V0H700v291H458L390 0H-12l426 1619h990zm-704-303L521 578h179v738zm459 625-329-271H627l176 271h356z"/><glyph glyph-name="aeacute" unicode="ǽ" horiz-adv-x="1543" d="M1482 640H955V372q0-102 13-131.5t55-29.5q45 0 61 30t16 124v189h382V420q0-131-39.5-221T1299 42.5 1044-24q-140 0-238 38T651 128Q596 52 521 14T352-24q-110 0-181.5 45t-94 114T54 361q0 140 20.5 191.5t84.5 92T380 740q83 28 112 47t40 47.5T543 957q0 89-12 124t-45 35q-32 0-41.5-29T435 940V813H56v99q0 110 15.5 173t71 126.5 141 101.5 218.5 38q74 0 143-18t132-54q46 36 107 54t137 18q152 0 261.5-66t154.5-169 45-305V640zm-404 216v120q0 93-17 116.5t-44 23.5q-33 0-47.5-27T955 976V856h123zM551 623q-77-56-103.5-101.5T421 352q0-77 15.5-109t56.5-32q29 0 43 20t14 59l1 119v214zm539 1064-329-271H558l176 271h356z"/><glyph glyph-name="Oslashacute" unicode="Ǿ" horiz-adv-x="1119" d="M1026 1339q20-76 20-392V670q0-244-11.5-345.5t-72-185.5T799 10 559-35q-146 0-249.5 48T144 156L37 16l-92 70L92 278q-20 72-20 392v277q0 244 11.5 345.5t72 185.5T319 1607t240 45q145 0 249-47.5T974 1461l107 140 92-69zM625 986v216q0 113-12.5 144.5T561 1378q-41 0-54.5-33.5T493 1202V812zM493 623V446q0-141 11.5-174t53.5-33q43 0 55 38t12 181v340zm375 1318-329-271H336l176 271h356z"/><glyph glyph-name="oslashacute" unicode="ǿ" horiz-adv-x="1047" d="M912 1181q39-53 56.5-115.5T986 861V536q0-179-18-262.5t-77-156-151-107T527-24Q413-24 329-2.5T192 61l-31-47-79 51 45 69q-34 56-50.5 126T60 492v340q0 185 40 289t144 167 266 63q105 0 189-25t146-75l41 62 78-51zM582 835v126q0 102-11 128.5t-47 26.5-48-26.5T464 961V655zM464 481V362q0-94 12-122.5t47-28.5q36 0 47.5 26T582 349v313zm379 1206-329-271H311l176 271h356z"/><glyph glyph-name="tonos" unicode="΄" horiz-adv-x="682" d="M250 1620h274l-125-270H197z"/><glyph glyph-name="dieresistonos" unicode="΅" horiz-adv-x="682" d="M256 2124h274l-124-271H203zM-6 1761h256v-260H-6v260zm434 0h262v-260H428v260z"/><glyph glyph-name="Alphatonos" unicode="Ά" horiz-adv-x="1040" d="M811 1619 1052 0H621l-21 291H449L424 0H-12l214 1619h609zM588 578q-32 275-64 679-64-464-80-679h144zm-698 1042h274L39 1350h-202z"/><glyph glyph-name="anoteleia" unicode="·" horiz-adv-x="450" d="M377 972V642H72v330h305z"/><glyph glyph-name="Epsilontonos" unicode="Έ" horiz-adv-x="1100" d="M334 1619h702v-324H755V988h263V680H755V324h309V0H334v1619zm-297 1h274l-125-270H-16z"/><glyph glyph-name="Etatonos" unicode="Ή" horiz-adv-x="1386" d="M1302 1619V0H881v680H755V0H334v1619h421v-579h126v579h421zm-1265 1h274l-125-270H-16z"/><glyph glyph-name="Iotatonos" unicode="Ί" horiz-adv-x="840" d="M755 1619V0H334v1619h421zm-718 1h274l-125-270H-16z"/><glyph glyph-name="Omicrontonos" unicode="Ό" horiz-adv-x="1311" d="M1226 672q0-244-11.5-345.5t-72-185.5T979 12 739-33Q609-33 505.5 9.5T339 137t-75 185-12 350v277q0 244 11.5 345.5t72 185.5T499 1609t240 45q130 0 233.5-42.5T1139 1484t75-185 12-350V672zm-421 532q0 113-12.5 144.5T741 1380q-33 0-50.5-25.5T673 1204V448q0-141 11.5-174t53.5-33q43 0 55 38t12 181v744zM37 1620h274l-125-270H-16z"/><glyph glyph-name="Upsilontonos" unicode="Ύ" horiz-adv-x="1311" d="M1321 1619 1014 586V0H624v586L328 1619h387q91-473 102-637 35 259 117 637h387zm-1284 1h274l-125-270H-16z"/><glyph glyph-name="Omegatonos" unicode="Ώ" horiz-adv-x="1341" d="M740 246V0H254v244h62q46 0 158-11-88 58-142.5 171.5T277 668v383q0 210 10 280.5t66.5 150 155 115T764 1632q145 0 247.5-34.5t163-109.5 72-148 11.5-289V668q0-150-54.5-263.5T1061 233q93 11 150 11h69V0H795v246q41 40 41 207v766q0 119-14.5 148.5T771 1397q-40 0-56-28t-16-150V453q0-167 41-207zM37 1620h274l-125-270H-16z"/><glyph glyph-name="iotadieresistonos" unicode="ΐ" horiz-adv-x="623" d="M72 379v948h403V358q0-70 25.5-109.5T608 209V0h-65Q336 0 246 19.5t-132 98T72 379zm118 1660h274l-124-271H137zm-262-363h256v-260H-72v260zm434 0h262v-260H362v260z"/><glyph glyph-name="Alpha" unicode="Α" horiz-adv-x="1040" d="M811 1619 1052 0H621l-21 291H449L424 0H-12l214 1619h609zM588 578q-32 275-64 679-64-464-80-679h144z"/><glyph glyph-name="Beta" unicode="Β" horiz-adv-x="1131" d="M84 1619h420q199 0 301.5-31T971 1462.5t63-304.5q0-142-44.5-198T814 874q146-33 198-109.5t52-234.5V380q0-164-37.5-243T907 29 571 0H84v1619zm421-277V982q27 1 42 1 62 0 79 30.5t17 174.5q0 76-14 106.5t-36.5 38.5-87.5 9zm0-612V277q89 3 113.5 28T643 428v151q0 104-22 126t-116 25z"/><glyph glyph-name="Gamma" unicode="Γ" horiz-adv-x="778" d="M84 0v1620h676v-322H506V0H84z"/><glyph glyph-name="Delta" unicode="Δ" horiz-adv-x="1040" d="M203 1620h608L1053 0H-12zM444 289h144q0 31-26.5 467.5T524 1257q-11-65-45.5-506.5T444 289z"/><glyph glyph-name="Epsilon" unicode="Ε" horiz-adv-x="851" d="M84 1619h702v-324H505V988h263V680H505V324h309V0H84v1619z"/><glyph glyph-name="Zeta" unicode="Ζ" horiz-adv-x="813" d="M788 1619v-324L474 324h314V0H12v235l324 1060H50v324h738z"/><glyph glyph-name="Eta" unicode="Η" horiz-adv-x="1137" d="M1052 1619V0H631v680H505V0H84v1619h421v-579h126v579h421z"/><glyph glyph-name="Theta" unicode="Θ" horiz-adv-x="1118" d="M1047 664q0-262-16.5-368t-80-176.5-161-101T559-12q-124 0-217 27t-155.5 86T104 228 78 396.5 72 664v301q0 259 15.5 365.5t79 175T327 1603t232 29 232-28 160-96.5 79.5-176.5 16.5-366V664zM625 934v285q0 102-10.5 140t-55.5 38q-36 0-50.5-30T494 1219V934h131zM494 698V362q0-62 11.5-96.5T557 231q35 0 51.5 28T625 391v307H494z"/><glyph glyph-name="Iota" unicode="Ι" horiz-adv-x="590" d="M84 0v1620h422V0H84z"/><glyph glyph-name="Kappa" unicode="Κ" horiz-adv-x="1099" d="M1087 1619 846 888 1110 0H675L505 694V0H84v1619h421V990l187 629h395z"/><glyph glyph-name="Lambda" unicode="Λ" horiz-adv-x="1073" d="M1085 0H641q-66 566-109 1133Q492 566 434 0H-10l213 1620h639z"/><glyph glyph-name="Mu" unicode="Μ" horiz-adv-x="1468" d="M1383 1619V0h-368v1093L868 0H607L452 1068V0H84v1619h545q24-146 51-344l58-412 96 756h549z"/><glyph glyph-name="Nu" unicode="Ν" horiz-adv-x="1109" d="M1024 1619V0H655L436 736V0H84v1619h352l236-729v729h352z"/><glyph glyph-name="Xi" unicode="Ξ" horiz-adv-x="944" d="M33 1296v324h878v-324H33zm82-630v323h714V666H115zM33 0v324h878V0H33z"/><glyph glyph-name="Omicron" unicode="Ο" horiz-adv-x="1119" d="M1046 671q0-244-11.5-345.5t-72-185.5T799 11 559-34Q429-34 325.5 8.5T159 136 84 321 72 671v277q0 244 11.5 345.5t72 185.5T319 1608t240 45q130 0 233.5-42.5T959 1483t75-185 12-350V671zm-421 532q0 113-12.5 144.5T561 1379q-33 0-50.5-25.5T493 1203V447q0-141 11.5-174t53.5-33q43 0 55 38t12 181v744z"/><glyph glyph-name="Pi" unicode="Π" horiz-adv-x="1137" d="M631 1296H506V0H84v1620h969V0H631v1296z"/><glyph glyph-name="Rho" unicode="Ρ" horiz-adv-x="1028" d="M506 0H84v1620h424q157 0 246.5-20t149.5-81.5 73.5-132.5 13.5-221v-139q0-243-97-309t-276-66H506V0zm133 1077v131q0 82-25.5 107.5T506 1341V930h31q57 0 79.5 27.5T639 1077z"/><glyph glyph-name="Sigma" unicode="Σ" horiz-adv-x="807" d="M446 324h322V0H-18l276 868-281 752h785v-324H451l167-430z"/><glyph glyph-name="Tau" unicode="Τ" horiz-adv-x="944" d="M932 1619v-324H682V0H261v1295H12v324h920z"/><glyph glyph-name="Upsilon" unicode="Υ" horiz-adv-x="969" d="M981 1619 674 586V0H284v586L-12 1619h387q91-473 102-637 35 259 117 637h387z"/><glyph glyph-name="Phi" unicode="Φ" horiz-adv-x="1632" d="M1599 793q0-159-15-229-21-97-89-175-106-121-399-121h-74V0H600v268h-65q-294 0-400 121-68 78-89 175-15 70-15 229v28q0 159 15 229 21 97 89 175 105 118 400 118 22 0 65 3v274h422v-274q51-3 74-3 295 0 399-118 68-78 89-175 15-70 15-229v-28zm-421-91v209q0 83-32.5 133t-80.5 50h-43V520h43q48 0 80.5 50t32.5 132zM600 520v574h-35q-47 0-79.5-50T453 911V702q0-82 32.5-132t79.5-50h35zm1002 273z"/><glyph glyph-name="Chi" unicode="Χ" horiz-adv-x="988" d="M937 1619 790 903 1012 0H622q-70 242-128 589-16-153-44-325L410 0H0l152 903L0 1619h407q11-67 44-223 26-119 43-218l90 441h353z"/><glyph glyph-name="Psi" unicode="Ψ" horiz-adv-x="1608" d="M594 1620h422V834q61 2 97 38.5t36 94.5v419q0 176 68 234h389q-56-75-56-260V956q0-181-106.5-276.5T1151 584h-135V0H594v584H459q-186 0-293 95.5T59 956v404q0 185-55 260h389q68-58 68-234V967q0-58 36-94.5t97-38.5v786z"/><glyph glyph-name="Omega" unicode="Ω" horiz-adv-x="1149" d="M547 246V0H61v244h62q46 0 158-11-88 58-142.5 171.5T84 668v383q0 210 10 280.5t66.5 150 155 115T571 1632q145 0 247.5-34.5t163-109.5 72-148 11.5-289V668q0-150-54.5-263.5T868 233q93 11 150 11h69V0H602v246q41 40 41 207v766q0 119-14.5 148.5T578 1397q-40 0-56-28t-16-150V453q0-167 41-207z"/><glyph glyph-name="Iotadieresis" unicode="Ϊ" horiz-adv-x="590" d="M505 1619V0H84v1619h421zm-299 311v-260H-55v260h261zm437 0v-260H382v260h261z"/><glyph glyph-name="Upsilondieresis" unicode="Ϋ" horiz-adv-x="969" d="M981 1619 674 586V0H284v586L-12 1619h387q91-473 102-637 35 259 117 637h387zm-583 311v-260H137v260h261zm437 0v-260H574v260h261z"/><glyph glyph-name="alphatonos" unicode="ά" horiz-adv-x="1073" d="M59 342v647q0 114 9 171.5t48.5 106T204 1327t132 12q168 0 276-129 14 62 58 117h381q-60-138-60-340V516q0-332 111-516H694q-60 71-78 131-47-67-126.5-105T332-12q-103 0-170.5 37t-85 107.5T59 342zm404 707V334q0-71 9.5-102t47.5-31q47 0 57.5 35.5T588 369v641q0 79-16 101t-48 22q-61 0-61-84zm-7 637h274l-125-270H403z"/><glyph glyph-name="epsilontonos" unicode="έ" horiz-adv-x="1057" d="M1016 319q0-181-116-256T512-12Q51-12 51 334v82q0 106 71.5 179.5T311 696q-105 12-177.5 84.5T61 948v80q0 153 120 232t345 79q228 0 347.5-76T993 1040V889H635v119q0 67-21.5 92.5T549 1126q-50 0-72-29t-22-100q0-86 46-134.5T623 809V606q-76-7-122-65t-46-160q0-103 19.5-141.5T537 201q60 0 76 35t16 133v106h387V319zM456 1686h274l-125-270H403z"/><glyph glyph-name="etatonos" unicode="ή" horiz-adv-x="1071" d="M426 1327q43-53 49-117 82 129 254 129 79 0 131.5-18t89.5-70 45.5-119 8.5-202V-186H600V926q0 130-8 163t-51 33q-47 0-56.5-41.5T475 903V0H72v1145q0 95-58 182h412zm30 359h274l-125-270H403z"/><glyph glyph-name="iotatonos" unicode="ί" horiz-adv-x="623" d="M72 379v948h403V358q0-70 25.5-109.5T608 209V0h-65Q336 0 246 19.5t-132 98T72 379zm122 1307h274l-125-270H141z"/><glyph glyph-name="upsilondieresistonos" unicode="ΰ" horiz-adv-x="1069" d="M1004 1327V414q0-156-42.5-248T824 31 537-12Q268-12 170 92T72 424v903h403V293q0-90 62-90 33 0 48 21.5t15 90.5v1012h404zm-548 712h274l-124-271H403zm-262-363h256v-260H194v260zm434 0h262v-260H628v260z"/><glyph glyph-name="alpha" unicode="α" horiz-adv-x="1073" d="M59 342v647q0 114 9 171.5t48.5 106T204 1327t132 12q168 0 276-129 14 62 58 117h381q-60-138-60-340V516q0-332 111-516H694q-60 71-78 131-47-67-126.5-105T332-12q-103 0-170.5 37t-85 107.5T59 342zm404 707V334q0-71 9.5-102t47.5-31q47 0 57.5 35.5T588 369v641q0 79-16 101t-48 22q-61 0-61-84z"/><glyph glyph-name="beta" unicode="β" horiz-adv-x="1077" d="M475 106v-292H72v1421q0 182 120.5 283.5T530 1620q222 0 343.5-84.5T995 1290v-162q0-95-72.5-168.5T745 874q123-23 198-87t75-158V340q0-152-76.5-249T729-6Q568-6 475 106zm0 168q0-13 24-38t46-25q28 0 42.5 20t14.5 80v342q0 59-12.5 96.5T514 797v176q60 3 74 46.5t14 104.5v183q0 60-18 80t-52 20q-57 0-57-111V274z"/><glyph glyph-name="gamma" unicode="γ" horiz-adv-x="1024" d="M1034 1327 725 203v-389H322v395L96 958q-30 104-52.5 131t-55.5 27v219q30 4 53 4 134 0 202.5-27t107-95T430 996l84-314 160 645h360z"/><glyph glyph-name="delta" unicode="δ" horiz-adv-x="1044" d="M360 1147 90 1407v213h823v-209H553q275-214 353.5-356T985 705V526q0-181-18.5-269t-83-153.5T727 13 460-12q-88 0-145 10T199.5 48t-90 100.5-41 136T59 481v187q0 105 8.5 169.5t45 129.5T213 1078t147 69zm222-350q0 107-14 131t-46 24q-30 0-44.5-23.5T463 797V315q0-114 59-114 26 0 43 20t17 51v525z"/><glyph glyph-name="epsilon" unicode="ε" horiz-adv-x="1057" d="M1016 319q0-181-116-256T512-12Q51-12 51 334v82q0 106 71.5 179.5T311 696q-105 12-177.5 84.5T61 948v80q0 153 120 232t345 79q228 0 347.5-76T993 1040V889H635v119q0 67-21.5 92.5T549 1126q-50 0-72-29t-22-100q0-86 46-134.5T623 809V606q-76-7-122-65t-46-160q0-103 19.5-141.5T537 201q60 0 76 35t16 133v106h387V319z"/><glyph glyph-name="zeta" unicode="ζ" horiz-adv-x="786" d="M53 852q0 132 74.5 254T420 1411H61v209h703v-203q-179-153-243-270t-64-270V627q0-44 8.5-70t24-36.5T561 496q119-31 166-112.5T774 170q0-180-69-268t-242-88H266V41h158q65 0 83.5 24t18.5 72-21.5 74-74.5 37l-208 39q-63 12-100 44t-53 93-16 186v242z"/><glyph glyph-name="eta" unicode="η" horiz-adv-x="1071" d="M426 1327q43-53 49-117 82 129 254 129 79 0 131.5-18t89.5-70 45.5-119 8.5-202V-186H600V926q0 130-8 163t-51 33q-47 0-56.5-41.5T475 903V0H72v1145q0 95-58 182h412z"/><glyph glyph-name="theta" unicode="θ" horiz-adv-x="1047" d="M76 481v647q0 118 14 203.5t70.5 157.5T309 1596.5t217 35.5q133 0 232-35.5t158.5-105 72-139.5 12.5-195V526q0-181-18.5-269T900 103.5 743.5 13 476-12q-87 0-144.5 10T216 48t-90 100.5-41 136T76 481zm522 441v335q0 97-9 131.5t-50 34.5-50.5-35.5T479 1257V922h119zM479 702V315q0-125 60-125 24 0 41.5 25t17.5 57v430H479z"/><glyph glyph-name="iota" unicode="ι" horiz-adv-x="623" d="M72 379v948h403V358q0-70 25.5-109.5T608 209V0h-65Q336 0 246 19.5t-132 98T72 379z"/><glyph glyph-name="kappa" unicode="κ" horiz-adv-x="1069" d="M1077 0H643L475 530V0H72v1327h403V827q120 261 149 319t74.5 107 100 64.5T930 1333q57 0 127-8v-209q-54 0-83.5-23t-49.5-66L793 743z"/><glyph glyph-name="lambda" unicode="λ" horiz-adv-x="995" d="m-2 0 221 1219q14 78 14 129 0 63-83 63H96v209h246q204 0 293-45t120.5-149.5T813 1069l80-760q6-65 18.5-79.5T942 215q15 0 53 2V2Q878-12 764-12q-195 0-211 229l-55 787L365 0H-2z"/><glyph glyph-name="mu" unicode="μ" horiz-adv-x="1079" d="M72 1327h403V301q0-90 62-90 33 0 48 21.5t15 91.5v1003h404V0H592l6 111q-55-76-123-97v-184H72v1497z"/><glyph glyph-name="nu" unicode="ν" horiz-adv-x="895" d="M907 1327 718 0H191L-12 1327h361l113-968q13 106 44 520 18 231 40 448h361z"/><glyph glyph-name="xi" unicode="ξ" horiz-adv-x="782" d="M248 852Q61 937 61 1098q0 58 24 106.5t71.5 89 97 69.5 78.5 48H57v209h711v-203q-151-65-241.5-144T436 1120q0-78 57-117.5T631 963V764q-178-32-178-156 0-35 8.5-57t24.5-31.5 71-23.5q119-31 166-112.5T770 170q0-180-69-268t-242-88H262V41h158q62 0 82 21.5t20 76.5q0 50-22.5 74.5T428 247l-215 42Q49 319 49 569q0 113 46.5 179.5T248 852z"/><glyph glyph-name="omicron" unicode="ο" horiz-adv-x="1047" d="M986 861V536q0-179-18-262.5t-77-156-151.5-107T527-24Q393-24 300 5.5t-144.5 89-73.5 144T60 492v340q0 185 40 289t144 167 266 63q136 0 233.5-40.5T894 1205t72.5-134T986 861zM582 961q0 102-11 128.5t-47 26.5-48-26.5T464 961V362q0-94 12-122.5t47-28.5q36 0 47.5 26T582 349v612z"/><glyph glyph-name="pi" unicode="π" horiz-adv-x="1114" d="M1108 1327v-229h-84V0H621v1098H496V0H92v1098H6v229h1102z"/><glyph glyph-name="rho" unicode="ρ" horiz-adv-x="1059" d="M475 8v-198H72V836q0 117 14 202.5t70.5 157.5T305 1303.5t217 35.5q133 0 232-35.5t158.5-105 72-139.5T997 864V459q0-240-67.5-349.5T684 0q-95 0-209 8zm0 957V215q33-2 60-2 25 0 42 20.5t17 51.5v680q0 92-9 123.5t-50 31.5q-42 0-51-32.5T475 965z"/><glyph glyph-name="sigma1" unicode="ς" horiz-adv-x="793" d="M457 627q0-44 8.5-70t24-36.5T561 496q119-31 166-112.5T774 170q0-180-69-268t-242-88H266V41h158q64 0 83 19.5t19 82.5q0 50-18.5 71.5T430 248l-217 44q-55 11-91.5 44.5t-52.5 96T53 610v275q0 216 97 335t270 119q101 0 307-14v-205q-84 6-137 6-68 0-100.5-47.5T457 913V627z"/><glyph glyph-name="sigma" unicode="σ" horiz-adv-x="1065" d="M1073 1327v-227H956q29-59 29-262V526q0-181-18.5-269t-83-153.5T727 13 460-12q-88 0-145 10T199.5 48t-90 100.5-41 136T59 481v342q0 120 15 204.5t73 156.5 150 107.5 213 35.5h563zM582 272v666q0 93-9 124.5t-51 31.5q-41 0-50-32.5T463 938V315q0-114 59-114 26 0 43 20t17 51z"/><glyph glyph-name="tau" unicode="τ" horiz-adv-x="752" d="M745 1327v-229H578V358q0-70 25.5-109.5T711 209V0h-66Q439 0 348.5 19.5t-132.5 98T174 379v719H6v229h739z"/><glyph glyph-name="upsilon" unicode="υ" horiz-adv-x="1069" d="M1004 1327V414q0-156-42.5-248T824 31 537-12Q268-12 170 92T72 424v903h403V293q0-90 62-90 33 0 48 21.5t15 90.5v1012h404z"/><glyph glyph-name="phi" unicode="φ" horiz-adv-x="1573" d="M61 936q0 197 133 298t371 101v-213q-39 0-69.5-42.5T465 969V303q0-90 82-90h41v623q0 117 14 202.5t70.5 157.5T821 1303.5t217 35.5q133 0 232-35.5t158.5-105 72-139.5 12.5-195V459q0-115-33-224.5t-146-172T1065 0h-74v-190H588V0h-76Q355 0 243.5 61t-147 172T61 451v485zm1049-633v662q0 105-15 130t-44 25q-30 0-45-28t-15-127V213h39q37 0 58.5 26t21.5 64z"/><glyph glyph-name="chi" unicode="χ" horiz-adv-x="1018" d="M147 995q-17 71-33 97t-61 26q-11 0-33-2v205q93 14 207 14 100 0 148.5-54t67.5-161l57-319 112 526h359L770 590l79-315q42-167 47.5-184t18-35.5 27-26.5 62.5-11v-200q-118-15-232-15-85 0-134.5 55T567 25l-75 389-127-604H20l222 800z"/><glyph glyph-name="psi" unicode="ψ" horiz-adv-x="1516" d="M479 252q-207 0-316.5 111T53 711v354q0 185-55 262h369q67-60 67-235V584q0-50 29-84.5t72-34.5h22v1155h401V465h23q42 0 71 35t29 84v508q0 175 68 235h369q-56-77-56-262V711q0-112-32-221t-135.5-173.5T1036 252h-78v-442H557v442h-78z"/><glyph glyph-name="omega" unicode="ω" horiz-adv-x="1604" d="M1128 954q0 142-133 154l-45 4v217q50 4 78 4 224 0 340-62 164-89 164-310V453q0-188-33-267-49-117-163-163-88-35-242-35-98 0-182 50.5T801 168Q780 90 692.5 40T500-10q-310-2-400 213-28 68-28 248v507q0 222 163 310 117 63 340 63 29 0 78-4v-217l-45-4q-133-12-133-154V301q0-98 62-98 63 0 63 67v670h404V268q0-27 21-46t48-19q55 0 55 100v651z"/><glyph glyph-name="iotadieresis" unicode="ϊ" horiz-adv-x="623" d="M72 379v948h403V358q0-70 25.5-109.5T608 209V0h-65Q336 0 246 19.5t-132 98T72 379zm150 1297v-260H-39v260h261zm437 0v-260H398v260h261z"/><glyph glyph-name="upsilondieresis" unicode="ϋ" horiz-adv-x="1069" d="M1004 1327V414q0-156-42.5-248T824 31 537-12Q268-12 170 92T72 424v903h403V293q0-90 62-90 33 0 48 21.5t15 90.5v1012h404zm-559 349v-260H184v260h261zm437 0v-260H621v260h261z"/><glyph glyph-name="omicrontonos" unicode="ό" horiz-adv-x="1047" d="M986 861V536q0-179-18-262.5t-77-156-151.5-107T527-24Q393-24 300 5.5t-144.5 89-73.5 144T60 492v340q0 185 40 289t144 167 266 63q136 0 233.5-40.5T894 1205t72.5-134T986 861zM582 961q0 102-11 128.5t-47 26.5-48-26.5T464 961V362q0-94 12-122.5t47-28.5q36 0 47.5 26T582 349v612zm-144 725h274l-125-270H385z"/><glyph glyph-name="upsilontonos" unicode="ύ" horiz-adv-x="1069" d="M1004 1327V414q0-156-42.5-248T824 31 537-12Q268-12 170 92T72 424v903h403V293q0-90 62-90 33 0 48 21.5t15 90.5v1012h404zm-548 359h274l-125-270H403z"/><glyph glyph-name="omegatonos" unicode="ώ" horiz-adv-x="1604" d="M1128 954q0 142-133 154l-45 4v217q50 4 78 4 224 0 340-62 164-89 164-310V453q0-188-33-267-49-117-163-163-88-35-242-35-98 0-182 50.5T801 168Q780 90 692.5 40T500-10q-310-2-400 213-28 68-28 248v507q0 222 163 310 117 63 340 63 29 0 78-4v-217l-45-4q-133-12-133-154V301q0-98 62-98 63 0 63 67v670h404V268q0-27 21-46t48-19q55 0 55 100v651zm-407 732h274l-125-270H668z"/><glyph glyph-name="afii10023" unicode="Ё" horiz-adv-x="851" d="M84 1619h702v-324H505V988h263V680H505V324h309V0H84v1619zm286 311v-260H109v260h261zm437 0v-260H546v260h261z"/><glyph glyph-name="afii10051" unicode="Ђ" horiz-adv-x="1354" d="M1270 360q0-222-74-291T899 0H758v279q53 0 71.5 31.5T848 406v292q0 134-16 165.5T776 895q-94 0-94-162V0H260v1337H10v283h920v-283H682V989q42 63 127 96t186 33q80 0 148-38t97.5-107.5T1270 772V360z"/><glyph glyph-name="afii10052" unicode="Ѓ" horiz-adv-x="844" d="M815 1296H506V0H84v1620h731v-324zm-27 645-329-271H256l176 271h356z"/><glyph glyph-name="afii10053" unicode="Є" horiz-adv-x="1135" d="M1055 457q0-245-122-357T547-12Q309-12 196.5 96T84 440v793q0 399 473 399 281 0 389.5-91t108.5-302v-137H651v186q0 96-73 96-36 0-54-26t-18-113V965h242V729H506V461q0-133 11.5-178t64.5-45q69 0 69 98v248h404V457z"/><glyph glyph-name="afii10054" unicode="Ѕ" horiz-adv-x="1059" d="M976 1129H585v120q0 84-15 107t-50 23q-38 0-57.5-31t-19.5-94q0-81 22-122 21-41 119-99 281-167 354-274t73-345q0-173-40.5-255T814 21.5 544-34q-169 0-288.5 64T99 193 62 474v106h391V383q0-91 16.5-117t58.5-26 62.5 33 20.5 98q0 143-39 187-40 44-197 147-157 104-208 151T82.5 986 49 1198q0 186 47.5 272T250 1604.5t256 48.5q164 0 279.5-53t153-133.5T976 1193v-64z"/><glyph glyph-name="afii10055" unicode="І" horiz-adv-x="590" d="M505 1619V0H84v1619h421z"/><glyph glyph-name="afii10056" unicode="Ї" horiz-adv-x="590" d="M505 1619V0H84v1619h421zm-301 311v-260H-57v260h261zm437 0v-260H380v260h261z"/><glyph glyph-name="afii10057" unicode="Ј" horiz-adv-x="678" d="M599 1619V537q0-243-5-312.5T548.5 99t-110-77.5T229 0H18v283q38-3 55-3 45 0 71 22t30 54 4 124v1139h421z"/><glyph glyph-name="afii10058" unicode="Љ" horiz-adv-x="1720" d="M1671 379q0-181-47-260t-142.5-99T1178 0H690v1296H567V379q0-181-46.5-260T379 20 76 0H10v279q77 0 106 19t29 130v1192h967v-555h66q194 0 294-23t149.5-101.5T1671 694V379zm-422 49v234q0 102-20.5 124T1112 811V279q80 0 108.5 20.5T1249 428z"/><glyph glyph-name="afii10059" unicode="Њ" horiz-adv-x="1663" d="M1610 379q0-181-47-260t-142.5-99T1116 0H629v680H506V0H84v1620h422v-580h123v580h422v-555h65q195 0 294.5-23T1560 940.5t50-246.5V379zm-422 49v234q0 102-20.5 124T1051 811V279q80 0 108.5 20.5T1188 428z"/><glyph glyph-name="afii10060" unicode="Ћ" horiz-adv-x="1354" d="M682 983q43 65 129.5 100t183.5 35q117 0 180-46t79-123 16-240V0H848v698q0 134-16 165.5T776 895q-94 0-94-162V0H260v1337H10v283h920v-283H682V983z"/><glyph glyph-name="afii10061" unicode="Ќ" horiz-adv-x="1098" d="M84 1620h422l2-684q119 3 123 132l8 316q4 175 68 236h389q-57-59-56-244l2-278q2-252-284-287 286-35 284-291l-2-258q-1-184 56-262H707q-68 61-68 236v316q0 60-36.5 96.5T508 686L506 0H84v1620zm418 169h274l-125-270H449z"/><glyph glyph-name="afii10062" unicode="Ў" horiz-adv-x="918" d="M918 1620 803 547q-27-254-58-356.5T625 44 332 0H86v209h25q83 0 102.5 13.5T233 264q0 2-24 137L-12 1620h366L487 612l64 1008h367zm-337 352h170q-6-136-79.5-219T467 1670q-132 0-204.5 83.5T184 1972h170q12-137 113-137 102 0 114 137z"/><glyph glyph-name="afii10145" unicode="Џ" horiz-adv-x="1137" d="M1053 0H717v-279H426V0H84v1620h422V324h125v1296h422V0z"/><glyph glyph-name="afii10017" unicode="А" horiz-adv-x="1040" d="M811 1619 1052 0H621l-21 291H449L424 0H-12l214 1619h609zM588 578q-32 275-64 679-64-464-80-679h144z"/><glyph glyph-name="afii10018" unicode="Б" horiz-adv-x="1130" d="M1065 379q0-181-47-260T875.5 20 571 0H84v1620h825v-281H506v-274h65q195 0 295-23t149.5-101.5T1065 694V379zm-422 49v234q0 102-20.5 124T506 811V279q80 0 108.5 20.5T643 428z"/><glyph glyph-name="afii10019" unicode="В" horiz-adv-x="1131" d="M84 1619h420q199 0 301.5-31T971 1462.5t63-304.5q0-142-44.5-198T814 874q146-33 198-109.5t52-234.5V380q0-164-37.5-243T907 29 571 0H84v1619zm421-277V982q27 1 42 1 62 0 79 30.5t17 174.5q0 76-14 106.5t-36.5 38.5-87.5 9zm0-612V277q89 3 113.5 28T643 428v151q0 104-22 126t-116 25z"/><glyph glyph-name="afii10020" unicode="Г" horiz-adv-x="844" d="M815 1296H506V0H84v1620h731v-324z"/><glyph glyph-name="afii10021" unicode="Д" horiz-adv-x="1335" d="M1288-279H997V0H317v-279H27v617h86q68 199 111.5 523.5T268 1571v49h934V340h86v-619zM780 340v960H655v-12q0-465-100-948h225z"/><glyph glyph-name="afii10022" unicode="Е" horiz-adv-x="851" d="M84 1619h702v-324H505V988h263V680H505V324h309V0H84v1619z"/><glyph glyph-name="afii10024" unicode="Ж" horiz-adv-x="1516" d="M549 696q-133-3-133-114V156q0-85-18.5-120.5T371 0H23q45 65 45 193v364q0 116 64.5 177T354 821v2Q70 838 70 1087v343q0 127-45 190h348q15-6 30-43.5t15-110.5v-403q0-111 131-115v672h422V948q133 4 133 115v403q0 84 18 119t27 35h348q-45-63-45-190v-343q0-249-285-264v-2q157-26 222-87t65-177V193q0-128 45-193h-348q-16 7-30.5 45T1106 156v426q0 111-135 114V0H549v696z"/><glyph glyph-name="afii10025" unicode="З" horiz-adv-x="1086" d="M831 917q92-31 137-101.5t45-330.5q0-193-44-299.5t-152-162T540-32q-192 0-301.5 64.5t-144 158T60 515v128h404V380q0-105 12.5-133.5T532 218q47 0 62 36t15 188v112q0 93-21 136t-62 56.5T367 762v235q144 0 178 11t49 48 15 116v90q0 85-17.5 112t-54.5 27q-42 0-57.5-28.5T464 1251v-133H60v138q0 232 106 313.5t337 81.5q289 0 392-113t103-314q0-136-37-196.5T831 917z"/><glyph glyph-name="afii10026" unicode="И" horiz-adv-x="1108" d="M1024 0H672v737L453 0H84v1620h352V889l236 731h352V0z"/><glyph glyph-name="afii10027" unicode="Й" horiz-adv-x="1108" d="M1024 0H672v737L453 0H84v1620h352V889l236 731h352V0zM665 1972h170q-6-136-79.5-219T551 1670q-132 0-204.5 83.5T268 1972h170q12-137 113-137 102 0 114 137z"/><glyph glyph-name="afii10028" unicode="К" horiz-adv-x="1098" d="M84 1620h422l2-684q119 3 123 132l8 316q4 175 68 236h389q-57-59-56-244l2-278q2-252-284-287 286-35 284-291l-2-258q-1-184 56-262H707q-68 61-68 236v316q0 60-36.5 96.5T508 686L506 0H84v1620z"/><glyph glyph-name="afii10029" unicode="Л" horiz-adv-x="1196" d="M1112 0H690v1296H567V379q0-181-46.5-260T379 20 76 0H10v279q77 0 106 19t29 130v1192h967V0z"/><glyph glyph-name="afii10030" unicode="М" horiz-adv-x="1468" d="M1383 1619V0h-368v1093L868 0H607L452 1068V0H84v1619h545q24-146 51-344l58-412 96 756h549z"/><glyph glyph-name="afii10031" unicode="Н" horiz-adv-x="1137" d="M1052 1619V0H631v680H505V0H84v1619h421v-579h126v579h421z"/><glyph glyph-name="afii10032" unicode="О" horiz-adv-x="1119" d="M1046 671q0-244-11.5-345.5t-72-185.5T799 11 559-34Q429-34 325.5 8.5T159 136 84 321 72 671v277q0 244 11.5 345.5t72 185.5T319 1608t240 45q130 0 233.5-42.5T959 1483t75-185 12-350V671zm-421 532q0 113-12.5 144.5T561 1379q-33 0-50.5-25.5T493 1203V447q0-141 11.5-174t53.5-33q43 0 55 38t12 181v744z"/><glyph glyph-name="afii10033" unicode="П" horiz-adv-x="1137" d="M1053 0H631v1296H506V0H84v1620h969V0z"/><glyph glyph-name="afii10034" unicode="Р" horiz-adv-x="1028" d="M84 1619h424q172 0 264.5-27t139-78 63-123.5T991 1166v-141q0-155-32-226T841.5 690 618 652H505V0H84v1619zm421-277V930q18-1 31-1 58 0 80.5 28.5T639 1076v133q0 83-26 108t-108 25z"/><glyph glyph-name="afii10035" unicode="С" horiz-adv-x="1134" d="M1067 913H646v282q0 123-13.5 153.5T573 1379q-52 0-66-37t-14-160V430q0-118 14-154t63-36q47 0 61.5 36T646 445v203h421v-63q0-251-35.5-356t-157-184T575-34q-185 0-305 67T111 218.5 72 575v473q0 175 12 262.5t71.5 168.5 165 127.5T563 1653q186 0 307-72t159-179.5 38-334.5V913z"/><glyph glyph-name="afii10036" unicode="Т" horiz-adv-x="944" d="M932 1619v-324H682V0H261v1295H12v324h920z"/><glyph glyph-name="afii10037" unicode="У" horiz-adv-x="918" d="M918 1620 803 547q-27-254-58-356.5T625 44 332 0H86v209h25q83 0 102.5 13.5T233 264q0 2-24 137L-12 1620h366L487 612l64 1008h367z"/><glyph glyph-name="afii10038" unicode="Ф" horiz-adv-x="1632" d="M1599 793q0-159-15-229-21-97-89-175-106-121-399-121h-74V0H600v268h-65q-294 0-400 121-68 78-89 175-15 70-15 229v28q0 159 15 229 21 97 89 175 105 118 400 118 22 0 65 3v274h422v-274q51-3 74-3 295 0 399-118 68-78 89-175 15-70 15-229v-28zm-421-91v209q0 83-32.5 133t-80.5 50h-43V520h43q48 0 80.5 50t32.5 132zM600 520v574h-35q-47 0-79.5-50T453 911V702q0-82 32.5-132t79.5-50h35zm1002 273z"/><glyph glyph-name="afii10039" unicode="Х" horiz-adv-x="988" d="M937 1619 790 903 1012 0H622q-70 242-128 589-16-153-44-325L410 0H0l152 903L0 1619h407q11-67 44-223 26-119 43-218l90 441h353z"/><glyph glyph-name="afii10040" unicode="Ц" horiz-adv-x="1167" d="M1139-279H848V0H84v1620h422V324h125v1296h422V324h86v-603z"/><glyph glyph-name="afii10041" unicode="Ч" horiz-adv-x="1165" d="M659 621q-51-54-133-86.5T360 502q-151 0-219.5 84T72 846v774h422V891q0-95 16.5-130.5T565 725q94 0 94 162v733h422V0H659v621z"/><glyph glyph-name="afii10042" unicode="Ш" horiz-adv-x="1686" d="M1602 0H84v1620h422V324h125v1296h422V324h125v1296h424V0z"/><glyph glyph-name="afii10043" unicode="Щ" horiz-adv-x="1720" d="M1681-279h-290V0H84v1620h422V324h121v1296h422V324h125v1296h421V324h86v-603z"/><glyph glyph-name="afii10044" unicode="Ъ" horiz-adv-x="1272" d="M1208 379q0-181-47-260t-142.5-99T715 0H227v1366H25v254h624v-555h66q195 0 294.5-23t149-101.5T1208 694V379zm-422 49v234q0 102-20.5 124T649 811V279q80 0 108.5 20.5T786 428z"/><glyph glyph-name="afii10045" unicode="Ы" horiz-adv-x="1700" d="M1065 379q0-181-47-260T875.5 20 571 0H84v1620h422v-555h65q195 0 295-23t149.5-101.5T1065 694V379zm-422 49v234q0 102-20.5 124T506 811V279q80 0 108.5 20.5T643 428zM1630 0h-422v1620h422V0z"/><glyph glyph-name="afii10046" unicode="Ь" horiz-adv-x="1130" d="M1065 379q0-181-47-260T875.5 20 571 0H84v1620h422v-555h65q195 0 295-23t149.5-101.5T1065 694V379zm-422 49v234q0 102-20.5 124T506 811V279q80 0 108.5 20.5T643 428z"/><glyph glyph-name="afii10047" unicode="Э" horiz-adv-x="1085" d="M1004 440q0-234-115-343T535-12Q281-12 170 94T59 457v127h404V336q0-98 69-98 50 0 59 38t9 185v268H367v236h233v276q0 78-10 108.5t-53 30.5q-74 0-74-96v-186H59v137q0 227 104 311t361 84q237 0 358.5-102t121.5-299V440z"/><glyph glyph-name="afii10048" unicode="Ю" horiz-adv-x="1667" d="M621 680H506V0H84v1620h422v-580h115q2 211 21.5 304.5t83.5 156 158.5 89T1108 1616q135 0 231.5-28.5T1499 1491t79.5-176 16.5-367V672q0-262-16-368t-79.5-176-161-101T1108-4Q984-4 891 23t-155.5 86T653 236t-26 168.5-6 267.5v8zm553-281v803q0 102-10.5 140t-55.5 38q-36 0-51-29.5t-15-148.5V371q0-63 12-97t52-34q35 0 51.5 27.5T1174 399z"/><glyph glyph-name="afii10049" unicode="Я" horiz-adv-x="1102" d="M1022 0H600v729q-80 0-103.5-26.5T473 586V0H82v483q0 123 13.5 187T158 776t155 70q-145 13-188 82.5T82 1178q0 162 40 253.5T238 1563t175 48.5 310 8.5h299V0zM600 983v358h-20q-53 0-80-23.5T473 1217v-89q0-90 22.5-117.5T600 983z"/><glyph glyph-name="afii10065" unicode="а" horiz-adv-x="1032" d="M433 813H54v89q0 154 35.5 237.5T232 1287t278 64q205 0 309-72.5t125-178T965 666V0H572v118q-37-71-95.5-106.5T337-24q-106 0-194.5 59.5T54 296v109q0 149 47 203t233 126q199 78 213 105t14 110q0 104-15.5 135.5T494 1116q-41 0-51-26.5T433 952V813zm128-182q-97-71-112.5-119T433 374q0-103 13.5-133t53.5-30q38 0 49.5 23.5T561 358v273z"/><glyph glyph-name="afii10066" unicode="б" horiz-adv-x="1069" d="M594 272v678q0 89-5 110-11 46-54 46-44 0-55-47-5-22-5-109V315q0-114 60-114 59 0 59 71zm96 1055q288 0 301-233 6-111 6-244V526q0-225-30-307Q879-12 532-12q-130 0-170 4-84 11-143 51-94 65-125 177-22 82-22 261v779q0 165 110 268.5T469 1632q74 0 212-10t181-10q53 0 90 12v-209q-49-14-78-14-54 0-153.5 8t-142.5 8q-82 0-101-78-6-23-6-129 96 117 219 117z"/><glyph glyph-name="afii10067" unicode="в" horiz-adv-x="1053" d="M1008 350q0-203-88.5-276.5T535 0H72v1327h477q245 0 337.5-81T979 969q0-225-234-256 122-20 192.5-95.5T1008 428v-78zM473 834q92 0 112.5 23t20.5 91q0 57-23 79t-110 22V834zm133-422v45q0 86-23 107.5T473 586V279q81 0 107 23.5T606 412z"/><glyph glyph-name="afii10068" unicode="г" horiz-adv-x="707" d="M72 0v1327h635v-229H475V0H72z"/><glyph glyph-name="afii10069" unicode="д" horiz-adv-x="1276" d="M1247-256H977V0H297v-256H27v573h86q77 119 126.5 369.5T289 1278v49h872V319h86v-575zM760 319v709H655v-14q0-370-120-695h225z"/><glyph glyph-name="afii10070" unicode="е" horiz-adv-x="1047" d="M987 640H464V353q0-90 13-116t50-26q46 0 61.5 34.5T604 379v175h383v-98q0-123-15.5-189T899 126 754.5 13.5 535-24q-128 0-226 37T156.5 114.5 81 256.5 60 482v387q0 174 47 274.5t154 154 246 53.5q170 0 280.5-64.5t155-171T987 816V640zM582 856v97q0 103-11 133t-45 30q-42 0-52-25.5T464 953v-97h118z"/><glyph glyph-name="afii10072" unicode="ж" horiz-adv-x="1530" d="M1518 0h-390q-45 61-45 156v280q0 135-129 135V0H555v571q-109 0-109-135V156q0-136-45-156H12q45 65 45 193v233q0 165 207 231 58 19 131 33-35 2-135 35-101 47-132 74-69 59-69 157v179q0 127-45 192h389q46-61 46-156V946q0-135 106-135v516h399V811q127 0 127 135v225q0 136 45 156h390q-46-65-46-192V956q0-98-68-157-31-27-132-74-61-28-135-35 34-6 131-33 207-66 207-231V193q0-128 45-193z"/><glyph glyph-name="afii10073" unicode="з" horiz-adv-x="1034" d="M788 711q95-30 140-88t45-181q0-136-20-197.5t-77.5-125T718 28 496 0Q253 0 156 95T59 440v97h383V350q0-100 70-100 37 0 56.5 28.5T588 428v84q0 58-39 80t-162 22v189h31q85 0 111 4t42.5 28.5T588 918v28q0 85-18.5 108t-53.5 23q-74 0-74-88V881H59v59q0 210 102.5 298.5T504 1327q230 0 341-85t111-263q0-120-36-178.5T788 711z"/><glyph glyph-name="afii10074" unicode="и" horiz-adv-x="1145" d="M1073 0H721v717L440 0H72v1327h352V616l276 711h373V0z"/><glyph glyph-name="afii10075" unicode="й" horiz-adv-x="1145" d="M1073 0H721v717L440 0H72v1327h352V616l276 711h373V0zM684 1718h170q-6-136-79.5-219T570 1416q-132 0-204.5 83.5T287 1718h170q12-137 113-137 102 0 114 137z"/><glyph glyph-name="afii10076" unicode="к" horiz-adv-x="1047" d="M471 1327V811q127 0 127 135v225q0 136 45 156h389q-45-65-45-192V950q0-97-79-161-29-24-122-68-60-29-135-31 35-6 131-33 207-66 207-231V193q0-128 45-193H645q-45 61-45 156v280q0 135-129 135V0H72v1327h399z"/><glyph glyph-name="afii10077" unicode="л" horiz-adv-x="1149" d="M686 0v1049H543V379q0-183-42-261.5t-132.5-98T72 0H6v217q77 1 106 19.5T141 367v960h946V0H686z"/><glyph glyph-name="afii10078" unicode="м" horiz-adv-x="1399" d="M1327 0H981v915L813 0H592L418 915V0H72v1327h501l129-733 117 733h508V0z"/><glyph glyph-name="afii10079" unicode="н" horiz-adv-x="1092" d="M1020 0H618v489H473V0H72v1327h401V850h145v477h402V0z"/><glyph glyph-name="afii10080" unicode="о" horiz-adv-x="1047" d="M986 861V536q0-179-18-262.5t-77-156-151.5-107T527-24Q393-24 300 5.5t-144.5 89-73.5 144T60 492v340q0 185 40 289t144 167 266 63q136 0 233.5-40.5T894 1205t72.5-134T986 861zM582 961q0 102-11 128.5t-47 26.5-48-26.5T464 961V362q0-94 12-122.5t47-28.5q36 0 47.5 26T582 349v612z"/><glyph glyph-name="afii10081" unicode="п" horiz-adv-x="1090" d="M72 0v1327h946V0H616v1049H473V0H72z"/><glyph glyph-name="afii10082" unicode="р" horiz-adv-x="1063" d="m483 1327-7-117q54 71 119 106t142 35q94 0 162.5-50.5T985 1184t17-224V401q0-181-21.5-257.5t-88-122T732-24q-75 0-139 35T476 115v-304H72v1516h411zm115-386q0 123-9 149t-50 26q-40 0-51.5-30T476 941V391q0-120 12-150t52-30q39 0 48.5 27.5T598 372v569z"/><glyph glyph-name="afii10083" unicode="с" horiz-adv-x="1013" d="M965 826H584v153q0 80-13 108.5t-48 28.5-47-25-12-112V353q0-71 18-106.5t53-35.5q41 0 55.5 37T605 388v158h360q-1-159-11.5-238.5t-67-163T739 18.5 514-24q-171 0-271 58.5t-141.5 164T60 498v377q0 169 34 255t145 153.5 270 67.5q158 0 270-67t149-169 37-289z"/><glyph glyph-name="afii10084" unicode="т" horiz-adv-x="881" d="M872 1327v-278H641V0H238v1049H6v278h866z"/><glyph glyph-name="afii10085" unicode="у" horiz-adv-x="918" d="M918 1327 802 367q-27-228-45.5-311T695-81t-119.5-79.5T331-186H86V26q94 0 121 9.5T234 78q0 16-25 139L-12 1327h367l132-895 64 895h367z"/><glyph glyph-name="afii10086" unicode="ф" horiz-adv-x="1575" d="M1513 401q0-139-16.5-222.5t-76.5-134T1237-6q-160 0-250 121v-305H586v303Q489-8 324-8 216-8 153 34T74.5 149.5 59 362v560q0 139 17 222.5t77 134 183 50.5q160 0 250-121v326h401v-324q97 121 262 121 108 0 171-42t78-115.5 15-212.5V401zm-403-90v631q0 97-1 118t-14 38.5-44 17.5q-34 0-49-24.5t-15-87.5V313q0-102 66-102 28 0 42.5 20t14.5 80zm-524 8v691q0 102-66 102-28 0-42.5-20t-14.5-80V381q0-97 1-118t14-38.5 44-17.5q34 0 49 24.5t15 87.5z"/><glyph glyph-name="afii10087" unicode="х" horiz-adv-x="888" d="M872 1327 711 693 906 0H513q-58 262-88 451-40-236-87-451H0l174 693L0 1327h338q81-406 87-461 58 339 88 461h359z"/><glyph glyph-name="afii10088" unicode="ц" horiz-adv-x="1133" d="M72 0v1327h401V279h143v1048h402V279h86v-535H834V0H72z"/><glyph glyph-name="afii10089" unicode="ч" horiz-adv-x="1055" d="M993 0H590v365q-76-72-242-72-115 0-186 41T75 453 59 705v622h404V686q0-106 10-143t53-37q36 0 50 33t14 133v655h403V0z"/><glyph glyph-name="afii10090" unicode="ш" horiz-adv-x="1640" d="M1022 279h143v1048h404V0H72v1327h403V279h143v1048h404V279z"/><glyph glyph-name="afii10091" unicode="щ" horiz-adv-x="1683" d="M72 0v1327h403V279h143v1048h404V279h143v1048h404V279h86v-535h-271V0H72z"/><glyph glyph-name="afii10092" unicode="ъ" horiz-adv-x="1214" d="M1153 379q0-182-42.5-261t-133-98.5T680 0H213v1049H10v278h604V885h66q193 0 288-23t140-101 45-247V379zm-401 49v53q0 103-21 125t-117 25V279q80 0 109 20.5T752 428z"/><glyph glyph-name="afii10093" unicode="ы" horiz-adv-x="1606" d="M1012 379q0-182-42.5-261T836 19.5 539 0H72v1327h401V885h66q193 0 288-23t140-101 45-247V379zm-402 49v53q0 103-20.5 125T473 631V279q80 0 108.5 20.5T610 428zM1536 0h-401v1327h401V0z"/><glyph glyph-name="afii10094" unicode="ь" horiz-adv-x="1069" d="M1012 379q0-182-42.5-261T836 19.5 539 0H72v1327h401V885h66q193 0 288-23t140-101 45-247V379zm-402 49v53q0 103-20.5 125T473 631V279q80 0 108.5 20.5T610 428z"/><glyph glyph-name="afii10095" unicode="э" horiz-adv-x="1024" d="M397 786h183v230q0 58-15 77t-47 19q-38 0-47.5-34T461 950v-84H59v60q0 130 56.5 224T271 1284.5t266 40.5q213 0 319.5-99T963 866V479q0-127-15-204.5t-70.5-146T731.5 28 508-4Q376-4 290.5 23.5t-145 97-74 144T57 455v57h381V348q0-78 18.5-108.5T516 209q31 0 47.5 23T580 350v256H397v180z"/><glyph glyph-name="afii10096" unicode="ю" horiz-adv-x="1585" d="M598 535H475V0H72v1327h405V813h121v18q0 118 14 203.5t70.5 157.5T831 1299.5t218 35.5q132 0 231-35.5t159-105 72.5-139.5 12.5-195V537q0-182-18.5-269.5t-83-153.5T1266 23 998-2Q911-2 853.5 8T738 58t-90 101-41 136-9 197v43zm522-252v678q0 92-9 123.5t-50 31.5-50.5-32.5T1001 961V326q0-115 60-115 26 0 42.5 20.5T1120 283z"/><glyph glyph-name="afii10097" unicode="я" horiz-adv-x="1047" d="M975 0H573v522q-78 0-107.5-33T436 365V0H66v311q0 119 13 171.5t59.5 82.5T297 625q-145 13-188 82.5T66 956q0 198 114.5 284.5T676 1327h299V0zM573 752v317h-41q-44 0-70-25.5T436 924v-17q0-96 29.5-125.5T573 752z"/><glyph glyph-name="afii10071" unicode="ё" horiz-adv-x="1047" d="M987 640H464V353q0-90 13-116t50-26q46 0 61.5 34.5T604 379v175h383v-98q0-123-15.5-189T899 126 754.5 13.5 535-24q-128 0-226 37T156.5 114.5 81 256.5 60 482v387q0 174 47 274.5t154 154 246 53.5q170 0 280.5-64.5t155-171T987 816V640zM582 856v97q0 103-11 133t-45 30q-42 0-52-25.5T464 953v-97h118zm-149 820v-260H172v260h261zm437 0v-260H609v260h261z"/><glyph glyph-name="afii10099" unicode="ђ" horiz-adv-x="1096" d="M100 1290H8v209h92v123h404v-123h217v-209H504v-192q80 71 241 71 116 0 187-40.5t86.5-119T1034 758V76q0-196-96-287.5T575-303h-24v278q49 0 64.5 41T631 125v651q0 107-10 143.5T567 956q-36 0-49.5-33T504 791V0H100v1290z"/><glyph glyph-name="afii10100" unicode="ѓ" horiz-adv-x="707" d="M72 12v1327h635v-229H475V12H72zm624 1678-329-271H164l176 271h356z"/><glyph glyph-name="afii10101" unicode="є" horiz-adv-x="1024" d="M967 446q0-117-15.5-192.5t-76-144-145-95T516-12q-134 0-225.5 32.5t-146 102-69 146.5T61 471v410q0 107 16.5 187.5T145 1214t135 95 207 30q263 0 370.5-109.5T965 940v-59H563v84q0 94-9.5 127.5T506 1126q-32 0-47-19t-15-77V786h183V598H444V342q0-96 16.5-118.5T508 201q41 0 59.5 30.5T586 340v164h381v-58z"/><glyph glyph-name="afii10102" unicode="ѕ" horiz-adv-x="964" d="M897 903H539v72q0 92-10.5 116.5T476 1116q-34 0-51-22.5t-17-67.5q0-61 8.5-89.5t51-62.5T642 775q176-86 231-162t55-221q0-162-42-244.5t-140.5-127T508-24q-154 0-263.5 48T94 154 53 402v64h358v-84q0-107 13.5-139t53.5-32q43 0 60 21.5t17 90.5q0 95-22 119-23 24-235 142Q120 684 81 765.5T42 959q0 159 42 234.5T226.5 1310t233.5 41q132 0 224.5-33.5t142-88.5 60-102T897 980v-77z"/><glyph glyph-name="afii10103" unicode="і" horiz-adv-x="561" d="M488 1619v-211H72v211h416zm0-292V0H72v1327h416z"/><glyph glyph-name="afii10104" unicode="ї" horiz-adv-x="561" d="M488 1327V0H72v1327h416zm-293 350v-260H-66v260h261zm437 0v-260H371v260h261z"/><glyph glyph-name="afii10105" unicode="ј" horiz-adv-x="573" d="M500 1619v-211H84v211h416zm0-292V277q0-185-7.5-250.5t-46-115-103-73.5T150-186H-6V26q72 0 81 16t9 200v1085h416z"/><glyph glyph-name="afii10106" unicode="љ" horiz-adv-x="1688" d="M543 1049V379q0-183-42-261.5t-132.5-98T72 0H6v279q77 0 106 19t29 130v899h946V885h66q193 0 288-23t140-101 45-247V379q0-182-42.5-261t-133-98.5T1153 0H686v1049H543zm682-621v53q0 103-21 125t-117 25V279q80 0 109 20.5t29 128.5z"/><glyph glyph-name="afii10107" unicode="њ" horiz-adv-x="1606" d="M1006 1327V885h65q193 0 288-23t140-101 45-247V379q0-182-42.5-261t-133-98.5T1071 0H604v496H461V0H59v1327h402V850h143v477h402zm137-899v53q0 103-21 125t-116 25V279q80 0 108.5 20.5T1143 428z"/><glyph glyph-name="afii10108" unicode="ћ" horiz-adv-x="1096" d="M631 0v776q0 107-10 143.5T567 956q-36 0-49.5-33T504 791V0H100v1290H8v209h92v123h404v-123h217v-209H504v-192q76 71 241 71 116 0 187-40.5t86.5-119T1034 758V0H631z"/><glyph glyph-name="afii10109" unicode="ќ" horiz-adv-x="1047" d="M471 1327V811q127 0 127 135v225q0 136 45 156h389q-45-65-45-192V950q0-97-79-161-29-24-122-68-60-29-135-31 35-6 131-33 207-66 207-231V193q0-128 45-193H645q-45 61-45 156v280q0 135-129 135V0H72v1327h399zm401 360-329-271H340l176 271h356z"/><glyph glyph-name="afii10110" unicode="ў" horiz-adv-x="918" d="M918 1327 802 367q-27-228-45.5-311T695-81t-119.5-79.5T331-186H86V26q94 0 121 9.5T234 78q0 16-25 139L-12 1327h367l132-895 64 895h367zm-337 391h170q-6-136-79.5-219T467 1416q-132 0-204.5 83.5T184 1718h170q12-137 113-137 102 0 114 137z"/><glyph glyph-name="afii10193" unicode="џ" horiz-adv-x="1067" d="M397 0H59v1327h402V279h143v1048h402V0H668v-256H397V0z"/><glyph glyph-name="afii10050" unicode="Ґ" horiz-adv-x="881" d="M563 1743h291v-447H506V0H84v1620h479v123z"/><glyph glyph-name="afii10098" unicode="ґ" horiz-adv-x="827" d="M553 1327v191h270v-469H475V0H72v1327h481z"/><glyph glyph-name="Wgrave" unicode="Ẁ" horiz-adv-x="1668" d="M1668 1619 1481 0H955q-72 373-127 848Q803 645 711 0H188L0 1619h409l43-565 44-545q23 423 116 1110h438q9-71 46-534l46-615q35 587 117 1149h409zM487 1941h356l176-271H816z"/><glyph glyph-name="wgrave" unicode="ẁ" horiz-adv-x="1371" d="M1377 1327 1216 0H777q-36 243-83 640-16-174-45-352L604 0H165L-6 1327h348q4-52 88-759 6 72 90 759h335l82-759q19 332 92 759h348zM373 1687h356l176-271H702z"/><glyph glyph-name="Wacute" unicode="Ẃ" horiz-adv-x="1668" d="M1668 1619 1481 0H955q-72 373-127 848Q803 645 711 0H188L0 1619h409l43-565 44-545q23 423 116 1110h438q9-71 46-534l46-615q35 587 117 1149h409zm-542 322-329-271H594l176 271h356z"/><glyph glyph-name="wacute" unicode="ẃ" horiz-adv-x="1371" d="M1377 1327 1216 0H777q-36 243-83 640-16-174-45-352L604 0H165L-6 1327h348q4-52 88-759 6 72 90 759h335l82-759q19 332 92 759h348zm-399 360-329-271H446l176 271h356z"/><glyph glyph-name="Wdieresis" unicode="Ẅ" horiz-adv-x="1667" d="M1668 1619 1481 0H955q-72 373-127 848Q803 645 711 0H188L0 1619h409l43-565 44-545q23 423 116 1110h438q9-71 46-534l46-615q35 587 117 1149h409zm-922 311v-260H485v260h261zm437 0v-260H922v260h261z"/><glyph glyph-name="wdieresis" unicode="ẅ" horiz-adv-x="1371" d="M1377 1327 1216 0H777q-36 243-83 640-16-174-45-352L604 0H165L-6 1327h348q4-52 88-759 6 72 90 759h335l82-759q19 332 92 759h348zm-782 349v-260H334v260h261zm437 0v-260H771v260h261z"/><glyph glyph-name="Ygrave" unicode="Ỳ" horiz-adv-x="969" d="M981 1619 674 586V0H284v586L-12 1619h387q91-473 102-637 35 259 117 637h387zm-813 322h356l176-271H497z"/><glyph glyph-name="ygrave" unicode="ỳ" horiz-adv-x="918" d="M918 1327 802 367q-27-228-45.5-311T695-81t-119.5-79.5T331-186H86V26q94 0 121 9.5T234 78q0 16-25 139L-12 1327h367l132-895 64 895h367zm-775 360h356l176-271H472z"/><glyph glyph-name="afii00208" unicode="―" horiz-adv-x="2048" d="M-12 788h2072V539H-12v249z"/><glyph glyph-name="underscoredbl" unicode="‗" horiz-adv-x="1130" d="M-12-256v102h1155v-102H-12zm0-205v103h1155v-103H-12z"/><glyph glyph-name="quotereversed" unicode="‛" horiz-adv-x="344" d="M37 1619h271v-317h-68q8-57 68-90v-117q-189 40-244 193-27 73-27 186v145z"/><glyph glyph-name="minute" unicode="′" horiz-adv-x="379" d="M297 1098H90l-10 522h305z"/><glyph glyph-name="second" unicode="″" horiz-adv-x="795" d="M297 1098H90l-10 522h305zm410 0H500l-11 522h306z"/><glyph glyph-name="exclamdbl" unicode="‼" horiz-adv-x="1114" d="M72 1620h444L451 399H137zm518 0h444L969 399H655zM104 324h379V0H104v324zm519 0h378V0H623v324z"/><glyph glyph-name="radicalex" unicode="‾" horiz-adv-x="1201" d="M-42 1869h1286v-74H-42v74z"/><glyph glyph-name="nsuperior" unicode="ⁿ" horiz-adv-x="682" d="m305 1620-6-74q56 84 178 84 61 0 100-26t49.5-72 10.5-146V840H375v538q0 81-7.5 99t-25.5 18q-24 0-33.5-29.5T299 1366V840H37v780h268z"/><glyph glyph-name="franc" unicode="₣" horiz-adv-x="815" d="M506 289V0H84v289H2v172h82v1159h713v-324H506V987h260V680H506V461h139V289H506z"/><glyph glyph-name="afii08941" unicode="₤" horiz-adv-x="1096" d="M389 236q80 12 98 12 28 0 80-8 38-7 54-7 45 0 66.5 30.5T709 389v66h338V326q0-139-18-203T937.5 14 748-31q-66 0-195 32-149 36-236 36-150 0-245-68v236q110 67 147 330H72v172h166q0 30-13 90H68v170h104q-16 31-37.5 69.5t-34 82.5T88 1227q0 196 121.5 310T541 1651q219 0 344-114.5t125-305.5q0-43-11-133H637v235q0 105-80 105-38 0-65-33.5t-27-79.5q0-63 54-219 38-111 38-139h174V797H580q4-60 4-95h151V535H575q-24-195-186-299z"/><glyph glyph-name="peseta" unicode="₧" horiz-adv-x="2630" d="M506 0H84v1620h424q157 0 246.5-20t149.5-81.5 73.5-132.5 13.5-221v-139q0-243-97-309t-276-66H506V0zm133 1077v131q0 82-25.5 107.5T506 1341V930h31q57 0 79.5 27.5T639 1077zm483 217v211h404v-211h108v-209h-108V375q0-93 5-121t25.5-34.5 96.5-6.5V0h-164q-127 0-190 10t-111 53.5-57 110-9 238.5v673h-88v209h88zm944-827V326q0-115 72-115 37 0 54.5 20t17.5 95q0 78-18 106.5t-99 73.5q-219 123-283 175t-88 116.5-24 210.5q0 168 99.5 245.5T2120 1331q132 0 224.5-26.5t140.5-80 58.5-102T2554 979v-76h-359v123q0 51-14.5 71.5T2132 1118q-38 0-54-24.5t-16-94.5q0-53 25-90.5t96-72.5q167-86 251-139t116.5-124 32.5-180q0-221-99-311T2165-8q-125 0-215.5 22t-147 73.5-75.5 125-19 188.5v66h358z"/><glyph glyph-name="afii61248" unicode="℅" horiz-adv-x="1419" d="M952 1651h152L471-31H317zm-319-586q0-98-23-163t-94.5-100.5T346 766q-89 0-150 18.5t-101.5 63-49 86.5-8.5 117v292q0 130 31.5 191t96 89 163.5 28q107 0 182.5-37.5t99-98.5 23.5-163v-39H387v43q0 153-51 153-43 0-43-61V967q0-39 12-49.5t31-10.5q28 0 34.5 19t6.5 73v88h256v-22zm155-797v293q0 115 24.5 176.5t99.5 96 167 34.5q111 0 189-42.5t97-100 19-164.5V283q0-179-76-239t-210-60q-90 0-153 20T843.5 68t-47 86-8.5 114zm340-51v414q0 58-6 77t-37 19q-41 0-41-61V184q0-39 12-49t31-10q29 0 35 18.5t6 73.5z"/><glyph glyph-name="afii61289" unicode="ℓ" horiz-adv-x="1201" d="M623 542q-56-292-56-372 0-55 29-55 38 0 83 96 20 42 47 42 38 0 38-45 0-81-68.5-160.5T534-32q-76 0-121 64.5T368 268q0 34 3 91-52-55-68-55-13 0-26.5 15.5T263 361t27 57q68 76 97 112 61 353 166.5 603T818 1383q80 0 123-55.5t43-137.5q0-288-361-648zm30 187q90 100 147.5 224t57.5 219q0 74-35 74-40 0-82-131t-88-386z"/><glyph glyph-name="afii61352" unicode="№" horiz-adv-x="1780" d="M672 889v731h352V0H655L436 737V0H84v1620h352zm461-342v293q0 115 24 176.5t99 96 167 34.5q111 0 189-42.5t97.5-100.5 19.5-164V561q0-179-76.5-239T1442 262q-90 0-152.5 20T1188 346t-47 86-8 115zm340-51v413q0 59-6.5 78t-36.5 19q-41 0-41-62V463q0-29 7-44.5t36-15.5q28 0 34.5 19t6.5 74zm-363-287h643V37h-643v172z"/><glyph glyph-name="estimated" unicode="℮" horiz-adv-x="1229" d="M321 531V160Q441 39 619 39q254 0 395 246l72-43Q968 72 854.5 19T619-34q-232 0-380.5 158.5T90 531q0 252 149.5 408.5T619 1096q214 0 366-142t163-423H321zm596 74v297q-124 121-300 121-174 0-296-121V605h596z"/><glyph glyph-name="oneeighth" unicode="⅛" horiz-adv-x="1365" d="M291 1636h149V782H184v533q0 47-28 63-21 13-76 13H12v110q182 32 279 135zm559 15h151L369-31H215zM738 650q0 111 89 169 77 51 200 51 294 0 294-226 0-61-30-97-23-30-86-63 123-55 123-237 0-263-298-263-299 0-299 274 0 160 111 226-104 55-104 166zm334-68v105q0 51-44 51-41 0-41-55V576q0-42 44-42 41 0 41 48zm5-261q0 73-49 73-46 0-46-82V193q0-78 50-78 45 0 45 78v128z"/><glyph glyph-name="threeeighths" unicode="⅜" horiz-adv-x="1508" d="M37 1378v62q0 118 62.5 165.5T315 1653q156 0 228-51 80-55 80-181 0-114-91-157 69-24 90-90 11-37 11-132 0-140-59-203-69-73-236-73-194 0-259 89-42 58-42 202v57h256V952q0-45 39-45 31 0 39 26 6 18 6 85v55q0 69-33 87-24 14-117 16v133h19q82 0 99 7 32 14 32 79v47q0 67-41 67-43 0-43-45v-86H37zm952 273h152L508-31H354zM882 650q0 111 88 169 77 51 201 51 293 0 293-226 0-61-29-97-24-30-86-63 123-55 123-237 0-263-299-263T874 258q0 160 111 226-103 55-103 166zm334-68v105q0 51-44 51-42 0-42-55V576q0-42 44-42 42 0 42 48zm4-261q0 73-48 73-46 0-46-82V193q0-78 49-78 45 0 45 78v128z"/><glyph glyph-name="fiveeighths" unicode="⅝" horiz-adv-x="1513" d="M994 1651h151L512-31H359zM886 650q0 111 88 169 77 51 201 51 293 0 293-226 0-61-29-97-24-30-86-63 123-55 123-237 0-263-299-263-298 0-298 274 0 160 111 226-104 55-104 166zm334-68v105q0 51-44 51-42 0-42-55V576q0-42 44-42 42 0 42 48zm4-261q0 73-48 73-46 0-46-82V193q0-78 49-78 45 0 45 78v128zM48 1638h546v-149H286v-133q52 59 124 59 113 0 174-69 56-64 56-170v-135q0-273-298-273-171 0-243 93-62 79-62 244h258q2-110 2-114 10-91 50-91 27 0 43 90 12 63 12 112 0 88-3 108-12 73-59 73-37 0-45-76H39z"/><glyph glyph-name="seveneighths" unicode="⅞" horiz-adv-x="1293" d="M774 1651h152L293-31H139zM667 650q0 111 88 169 77 51 201 51 293 0 293-226 0-61-29-97-24-30-86-63 122-55 122-237 0-263-298-263-299 0-299 274 0 160 111 226-103 55-103 166zm334-68v105q0 51-44 51-42 0-42-55V576q0-42 44-42 42 0 42 48zm4-261q0 73-48 73-46 0-46-82V193q0-78 49-78 45 0 45 78v128zM12 1634h452v-187L328 780H72l147 683-207 2v169z"/><glyph glyph-name="fraction1" unicode="⁄" horiz-adv-x="256" d="M521 1650-111-31h-154l635 1681h151z"/><glyph glyph-name="arrowleft" unicode="←" horiz-adv-x="2048" d="M492 157Q371 292 283 362.5T79 494v46q116 61 203 130.5T492 876h76q-46-96-77.5-147.5T402 604h1566V429H402q55-69 88-122.5T568 157h-76z"/><glyph glyph-name="arrowup" unicode="↑" horiz-adv-x="1024" d="M153 926q135 122 205.5 209.5T490 1339h45q61-116 130.5-202.5T872 926v-76q-97 46-148.5 78T600 1016V-429H425v1445q-69-54-122.5-87T153 850v76z"/><glyph glyph-name="arrowright" unicode="→" horiz-adv-x="2048" d="M1555 876q122-135 209.5-205T1968 539v-45q-116-61-202.5-130.5T1555 157h-76q46 97 78 148.5t88 123.5H79v175h1566q-54 69-87 122.5T1479 876h76z"/><glyph glyph-name="arrowdown" unicode="↓" horiz-adv-x="1024" d="M871-16Q736-138 665.5-225.5T534-429h-45q-61 116-131 202.5T152-16v76q97-46 148.5-78T424-106v1445h175V-106q69 54 122.5 87T871 60v-76z"/><glyph glyph-name="arrowboth" unicode="↔" horiz-adv-x="2048" d="M402 604h1243q-54 68-87 122t-79 150h76q122-135 209.5-205T1968 539v-45q-116-61-202.5-130.5T1555 157h-76q46 97 77.5 148t88.5 124H402q55-69 88-122.5T568 157h-76Q371 292 283 362.5T79 494v46q116 61 203 130.5T492 876h76q-46-96-77.5-147.5T402 604z"/><glyph glyph-name="arrowupdn" unicode="↕" horiz-adv-x="1024" d="M600 1139V-104q68 54 122 87.5T872 63v-77Q737-135 666.5-222.5T535-427h-45q-61 116-131 203T153-14v77q96-47 147.5-78T425-104v1243q-69-54-122.5-87T153 973v76q135 122 205.5 209.5T490 1463h45q61-117 130.5-203.5T872 1049v-76q-97 46-148.5 78T600 1139z"/><glyph glyph-name="arrowupdnbse" unicode="↨" horiz-adv-x="1024" d="M599 1139V-104q68 54 122 87.5T871 63v-77Q736-135 665.5-222.5T534-427h-45q-61 116-131 203T152-14v77q96-47 147.5-78T424-104v1243q-69-54-122.5-87T152 973v76q135 122 205.5 209.5T489 1463h45q61-117 130.5-203.5T871 1049v-76q-97 46-148.5 78T599 1139zM152-502h719v-175H152v175z"/><glyph glyph-name="orthogonal" unicode="∟" horiz-adv-x="2048" d="M123 0v1782h135V135h1667V0H123z"/><glyph glyph-name="intersection" unicode="∩" horiz-adv-x="1473" d="M350 0H144v636q0 271 14.5 386t84 226 205 185.5T737 1508t289-75 203-181 84-222.5 16-393.5V0h-206v642q0 274-21.5 386t-125 195-239.5 83q-103 0-194.5-53t-132-124.5-50.5-167T350 642V0z"/><glyph glyph-name="equivalence" unicode="≡" horiz-adv-x="1092" d="M65 1190h942V946H65v244zm0-382h942V564H65v244zm0-382h942V182H65v244z"/><glyph glyph-name="house" unicode="⌂" horiz-adv-x="1229" d="M153 0v634l461 519 462-519V0H153zm81 81h761v519l-381 427-380-427V81z"/><glyph glyph-name="revlogicalnot" unicode="⌐" horiz-adv-x="1092" d="M1029 1126H65V492h244v389h720v245z"/><glyph glyph-name="integraltp" unicode="⌠" horiz-adv-x="1237" d="M691-515H546v1811q0 219 89.5 330T838 1737q67 0 102.5-32.5T976 1628q0-40-25.5-66t-62.5-26q-30 0-57 15-18 10-41.5 46.5T743 1634q-17 0-31-12-10-8-14-27-7-33-7-139V-515z"/><glyph glyph-name="integralbt" unicode="⌡" horiz-adv-x="1237" d="M546 1737h145V-74q0-219-89.5-330T399-515q-67 0-102.5 32.5T261-406q0 40 25.5 66t61.5 26q31 0 59-16 18-10 41-46t46-36q17 0 31 11 10 8 14 29 7 32 7 138v1971z"/><glyph glyph-name="SF100000" unicode="─" d="M1473 534H-23v175h1496V534z"/><glyph glyph-name="SF110000" unicode="│" d="M638-621v2485h175V-621H638z"/><glyph glyph-name="SF010000" unicode="┌" d="M1474 709V534H813V-621H638V709h836z"/><glyph glyph-name="SF030000" unicode="┐" d="M637 534H-23v175h835V-621H637V534z"/><glyph glyph-name="SF020000" unicode="└" d="M638 534v1330h175V709h661V534H638z"/><glyph glyph-name="SF040000" unicode="┘" d="M812 534H-23v175h660v1155h175V534z"/><glyph glyph-name="SF080000" unicode="├" d="M638-621v2485h175V709h661V534H813V-621H638z"/><glyph glyph-name="SF090000" unicode="┤" d="M637-621V534H-23v175h660v1155h175V-621H637z"/><glyph glyph-name="SF060000" unicode="┬" d="M637 534H-23v175h1496V534H812V-621H637V534z"/><glyph glyph-name="SF070000" unicode="┴" d="M1473 534H-23v175h660v1155h175V709h661V534z"/><glyph glyph-name="SF050000" unicode="┼" d="M637 534H-23v175h660v1155h175V709h661V534H812V-621H637V534z"/><glyph glyph-name="SF430000" unicode="═" d="M1473 724H-23v175h1496V724zm0-380H-23v175h1496V344z"/><glyph glyph-name="SF240000" unicode="║" d="M829-621v2485h175V-621H829zm-381 0v2485h175V-621H448z"/><glyph glyph-name="SF510000" unicode="╒" d="M638-621V899h836V724H813V519h661V344H813v-965H638z"/><glyph glyph-name="SF520000" unicode="╓" d="M448-621V709h1027V534h-471V-621H829V534H623V-621H448z"/><glyph glyph-name="SF390000" unicode="╔" d="M623-621H448V899h1026V724H623V-621zm381 965v-965H829V519h645V344h-470z"/><glyph glyph-name="SF220000" unicode="╕" d="M637 344H-23v175h660v205H-23v175h835V-621H637v965z"/><glyph glyph-name="SF210000" unicode="╖" d="M448-621V534H-23v175h1026V-621H828V534H622V-621H448z"/><glyph glyph-name="SF250000" unicode="╗" d="M828-621V724H-23v175h1026V-621H828zM447 344H-23v175h645V-621H447v965z"/><glyph glyph-name="SF500000" unicode="╘" d="M638 344v1520h175V899h661V724H813V519h661V344H638z"/><glyph glyph-name="SF490000" unicode="╙" d="M1475 534H448v1330h175V709h206v1155h175V709h471V534z"/><glyph glyph-name="SF380000" unicode="╚" d="M623 1864V519h850V344H448v1520h175zm381-965h470V724H829v1140h175V899z"/><glyph glyph-name="SF280000" unicode="╛" d="M812 344H-23v175h660v205H-23v175h660v965h175V344z"/><glyph glyph-name="SF270000" unicode="╜" d="M1003 534H-23v175h470v1155h175V709h206v1155h175V534z"/><glyph glyph-name="SF260000" unicode="╝" d="M828 1864h175V344H-23v175h851v1345zM447 899v965h175V724H-23v175h470z"/><glyph glyph-name="SF360000" unicode="╞" d="M638-621v2485h175V899h661V724H813V519h661V344H813v-965H638z"/><glyph glyph-name="SF370000" unicode="╟" d="M829-621v2485h175V709h470V534h-470V-621H829zm-381 0v2485h175V-621H448z"/><glyph glyph-name="SF420000" unicode="╠" d="M448-621v2485h175V-621H448zM829 724v1140h175V899h470V724H829zm0-1345V519h645V344h-470v-965H829z"/><glyph glyph-name="SF190000" unicode="╡" d="M637 344H-23v175h660v205H-23v175h660v965h175V-621H637v965z"/><glyph glyph-name="SF200000" unicode="╢" d="m447-621 1 1155H-23v175h470v1155h175V-621H447zm381 0v2485h175V-621H828z"/><glyph glyph-name="SF230000" unicode="╣" d="M828-621v2485h175V-621H828zM622 1864V724H-23v175h470v965h175zM447 344H-23v175h645V-621H447v965z"/><glyph glyph-name="SF470000" unicode="╤" d="M1473 724H-23v175h1496V724zM637 344H-23v175h1496V344H812v-965H637v965z"/><glyph glyph-name="SF480000" unicode="╥" d="M447-621V534H-23v175h1496V534h-470V-621H828V534H622V-621H447z"/><glyph glyph-name="SF410000" unicode="╦" d="M1473 724H-23v175h1496V724zM447 344H-23v175h645V-621H447v965zm381-965V519h645V344h-470v-965H828z"/><glyph glyph-name="SF450000" unicode="╧" d="M1473 724H-23v175h660v965h175V899h661V724zm0-380H-23v175h1496V344z"/><glyph glyph-name="SF460000" unicode="╨" d="M1473 534H-23v175h470v1155h175V709h206v1155h175V709h470V534z"/><glyph glyph-name="SF400000" unicode="╩" d="M622 724H-23v175h470v965h175V724zm851 0H828v1140h175V899h470V724zm0-380H-23v175h1496V344z"/><glyph glyph-name="SF540000" unicode="╪" d="M637 344H-23v175h660v205H-23v175h660v965h175V899h661V724H812V519h661V344H812v-965H637v965z"/><glyph glyph-name="SF530000" unicode="╫" d="M447-621V534H-23v175h470v1155h175V709h206v1155h175V709h470V534h-470V-621H828V534H622V-621H447z"/><glyph glyph-name="SF440000" unicode="╬" d="M1003 899h470V724H828v1140h175V899zm-556 0v965h175V724H-23v175h470zm0-555H-23v175h645V-621H447v965zm556 0v-965H828V519h645V344h-470z"/><glyph glyph-name="upblock" unicode="▀" d="M1473 621H-23v1243h1496V621z"/><glyph glyph-name="dnblock" unicode="▄" d="M1473-621H-23V621h1496V-621z"/><glyph glyph-name="block" unicode="█" d="M-23-621v2485h1496V-621H-23z"/><glyph glyph-name="lfblock" unicode="▌" d="M-23-621v2485h748V-621H-23z"/><glyph glyph-name="rtblock" unicode="▐" d="M726-621v2485h748V-621H726z"/><glyph glyph-name="ltshade" unicode="░" d="M0 1864h121v-125H0v125zm482 0h121v-125H482v125zm483 0h121v-125H965v125zm-724-249h121v-125H241v125zm482 0h121v-125H723v125zm483 0h121v-125h-121v125zm-241-249h121v-125H965v125zm-483 0h121v-125H482v125zm-482 0h121v-125H0v125zm1206-249h121V992h-121v125zm-483 0h121V992H723v125zm-482 0h121V992H241v125zM0 867h121V742H0v125zm482 0h121V742H482v125zm483 0h121V742H965v125zm241-249h121V493h-121v125zm-483 0h121V493H723v125zm-482 0h121V493H241v125zM0 369h121V244H0v125zm482 0h121V244H482v125zm483 0h121V244H965v125zM241 120h121V-5H241v125zm482 0h121V-5H723v125zm483 0h121V-5h-121v125zM965-130h121v-125H965v125zm-483 0h121v-125H482v125zM0-130h121v-125H0v125zm241-249h121v-125H241v125zm482 0h121v-125H723v125zm483 0h121v-125h-121v125z"/><glyph glyph-name="shade" unicode="▒" d="M121 1864h120v-125H121v125zm241 0h120v-125H362v125zm241 0h121v-125H603v125zm241 0h121v-125H844v125zm242 0h120v-125h-120v125zm241 0h120v-125h-120v125zM0 1615h121v-125H0v125zm241 0h121v-125H241v125zm241 0h121v-125H482v125zm242 0h120v-125H724v125zm241 0h121v-125H965v125zm241 0h121v-125h-121v125zM121 1366h120v-125H121v125zm241 0h120v-125H362v125zm241 0h121v-125H603v125zm241 0h121v-125H844v125zm242 0h120v-125h-120v125zm241 0h120v-125h-120v125zM241 1116h121V992H241v124zm241 0h121V992H482v124zm242 0h120V992H724v124zm241 0h121V992H965v124zm241 0h121V992h-121v124zM0 1116h121V992H0v124zm121-249h120V742H121v125zm241 0h120V742H362v125zm241 0h121V742H603v125zm241 0h121V742H844v125zm242 0h120V742h-120v125zm241 0h120V742h-120v125zM0 618h121V493H0v125zm482 0h121V493H482v125zm242 0h120V493H724v125zm241 0h121V493H965v125zm241 0h121V493h-121v125zm-965 0h121V493H241v125zm1086-249h120V244h-120v125zm-241 0h120V244h-120v125zm-242 0h121V244H844v125zm-241 0h121V244H603v125zm-241 0h120V244H362v125zm-241 0h120V244H121v125zM0 119h121V-5H0v124zm241 0h121V-5H241v124zm241 0h121V-5H482v124zm242 0h120V-5H724v124zm241 0h121V-5H965v124zm241 0h121V-5h-121v124zm121-249h120v-125h-120v125zm-241 0h120v-125h-120v125zm-242 0h121v-125H844v125zm-241 0h121v-125H603v125zm-241 0h120v-125H362v125zm-241 0h120v-125H121v125zM0-379h121v-125H0v125zm241 0h121v-125H241v125zm241 0h121v-125H482v125zm242 0h120v-125H724v125zm241-1 121 1v-125H965v124zm241 1h121v-125h-121v125z"/><glyph glyph-name="dkshade" unicode="▓" d="M1447 1490v-374h-120V992h120V618h-120V493h120V119h-120V-5h120v-374h-120v-125h120v-124H0v373h121v125H0v374h121v125H0v373h121v125H0v374h121v125H0v373h121v125h120v-125h121v125h120v-125h121v125h121v-125h120v125h121v-125h121v125h120v-125h121v125h120v-249h-120v-125h120zM121 1615v-125h120v125H121zm241 0v-125h120v125H362zm241 0v-125h121v125H603zm241 0v-125h121v125H844zm242 0v-125h120v125h-120zm241-249h-121v-125h121v125zm-241 0H965v-125h121v125zm-242 0H724v-125h120v125zm-241 0H482v-125h121v125zm-241 0H241v-125h121v125zm-241-250V992h120v124H121zm241 0V992h120v124H362zm241 0V992h121v124H603zm241 0V992h121v124H844zm242 0V992h120v124h-120zM362 867H241V742h121v125zm120 0V742h121v125H482zm242 0V742h120v125H724zm241 0V742h121v125H965zm241 0V742h121v125h-121zM121 618V493h120v125H121zm482 0V493h121v125H603zM482 493v125H362V493h120zm362 125V493h121v125H844zm242 0V493h120v125h-120zm241-374v125h-121V244h121zm-241 0v125H965V244h121zm-242 0v125H724V244h120zm-241 0v125H482V244h121zm-241 0v125H241V244h121zM121 119V-5h120v124H121zm241 0V-5h120v124H362zm241 0V-5h121v124H603zm241 0V-5h121v124H844zm242 0V-5h120v124h-120zm241-374v125h-121v-125h121zm-241 0v125H965v-125h121zm-242 0v125H724v-125h120zm-241 0v125H482v-125h121zm-241 0v125H241v-125h121zM121-379v-125h120v125H121zm241 0v-125h120v125H362zm241 0v-125h121v125H603zm241 0v-125h121v125H844zm242 0v-125h120v125h-120z"/><glyph glyph-name="filledbox" unicode="■" horiz-adv-x="1237" d="M146 944h944V0H146v944z"/><glyph glyph-name="H22073" unicode="□" horiz-adv-x="1237" d="M146 944h944V0H146v944zm76-76V76h792v792H222z"/><glyph glyph-name="H18543" unicode="▪" horiz-adv-x="726" d="M594 909V445H131v463z"/><glyph glyph-name="H18551" unicode="▫" horiz-adv-x="726" d="M594 909V445H131v463zm-76-76-311-1V521h311v312z"/><glyph glyph-name="filledrect" unicode="▬" horiz-adv-x="2048" d="M340 386h1368V0H340v386z"/><glyph glyph-name="triagup" unicode="▲" horiz-adv-x="2027" d="m304 0 710 1419L1724 0H304z"/><glyph glyph-name="triagrt" unicode="►" horiz-adv-x="2027" d="m288 1417 1451-724L288-31v1448z"/><glyph glyph-name="triagdn" unicode="▼" horiz-adv-x="2027" d="M1724 1388 1014-31 304 1388h1420z"/><glyph glyph-name="triaglf" unicode="◄" horiz-adv-x="2027" d="M1739 1417V-31L288 693z"/><glyph glyph-name="circle" unicode="○" horiz-adv-x="1237" d="M619 1018q110 0 216-57t165-163 59-220q0-183-129-312T619 137q-183 0-312 129T178 578q0 115 59 220.5T402 961t217 57zm0-76q-93 0-180-47T303 760t-49-182q0-151 107-258t258-107 257.5 107T983 578q0 94-49 182T798 895t-179 47z"/><glyph glyph-name="H18533" unicode="●" horiz-adv-x="1237" d="M619 1018q110 0 216-57t165-163 59-220q0-183-129-312T619 137q-183 0-312 129T178 578q0 115 59 220.5T402 961t217 57z"/><glyph glyph-name="invbullet" unicode="◘" horiz-adv-x="1237" d="M128 0v980h980V0H128zm490 692q-84 0-143-59t-59-143q0-83 59.5-142.5T618 288q84 0 143 59.5T820 490q0 84-59 143t-143 59z"/><glyph glyph-name="invcircle" unicode="◙" horiz-adv-x="1237" d="M42 0v1155h1155V0H42zm577 1018q-111 0-216.5-57T238 798t-59-221q0-182 129-311t311-129q183 0 312 129t129 311q0 115-59 221T836.5 961 619 1018zm1-76q91 0 178.5-47T935 760.5 984 577q0-151-106.5-257.5T620 213q-152 0-258.5 106.5T255 577q0 96 49 183.5T440.5 895 620 942z"/><glyph glyph-name="openbullet" unicode="◦" horiz-adv-x="726" d="M363 928q104 0 177.5-73.5T614 677t-73.5-177.5T363 426t-177.5 73.5T112 677t73 177.5T363 928zm0-76q-73 0-124-51.5T188 677q0-73 51.5-124T363 502t123.5 51T538 677q0 72-51 123.5T363 852z"/><glyph glyph-name="smileface" unicode="☺" horiz-adv-x="2048" d="M1024 1156q160 0 313-82.5t239-236 86-319.5q0-165-84.5-316.5T1341-34.5 1024-119q-166 0-317.5 84.5t-236 236T386 518q0 166 85.5 319.5t238.5 236 314 82.5zm0-93q-137 0-267.5-70.5T552.5 791 479 518q0-141 72-270.5T753 46t271-72 271 72 202 201.5 72 270.5q0 142-73.5 273t-204 201.5T1024 1063zM779 731q34 0 57.5-23.5T860 650q0-33-23.5-57T779 569q-33 0-57 24t-24 57q0 34 24 57.5t57 23.5zm489 0q34 0 57.5-23.5T1349 650q0-33-23.5-57t-57.5-24q-33 0-57 24t-24 57q0 34 23.5 57.5T1268 731zM730 313l62 36q79-144 232-144t231 144l63-36q-50-95-123.5-145T1024 118q-98 0-171 50T730 313z"/><glyph glyph-name="invsmileface" unicode="☻" horiz-adv-x="2048" d="M1024 1156q160 0 313-82.5t239-236 86-319.5q0-165-84.5-316.5T1341-34.5 1024-119q-166 0-317.5 84.5t-236 236T386 518q0 166 85.5 319.5t238.5 236 314 82.5zM779 731q-33 0-57-23.5T698 650q0-33 24-57t57-24q34 0 57.5 24t23.5 57q0 34-23.5 57.5T779 731zm489 0q-34 0-57.5-23.5T1187 650q0-33 24-57t57-24q34 0 57.5 24t23.5 57q0 34-23.5 57.5T1268 731zM730 313q50-95 123-145t171-50q97 0 170.5 50T1318 313l-63 36q-78-144-231-144T792 349z"/><glyph glyph-name="sun" unicode="☼" horiz-adv-x="1877" d="M902 1621h76v-337q102-7 181.5-38.5T1327 1143l290 284 52-53-286-286q73-95 103-169 38-96 41-185h335v-69h-335q-19-193-143-351l285-291-57-50-283 282q-98-72-171-100.5T978 114v-337h-76v337q-112 15-188.5 46T557 252L263-26l-51 51 285 286q-66 84-100 166t-45 188H16v69h336q9 106 42 185.5T496 1083l-284 287 48 57 292-282q101 70 179.5 100.5T902 1284v337zm35-410q-129 0-252-66T493.5 955.5 425 699t67.5-255T682 254t255-68 255 68 190 190 68 255-69 256.5-192 189.5-252 66z"/><glyph glyph-name="female" unicode="♀" horiz-adv-x="1536" d="M796 461V59h459V0H796v-439h-59V0H277v59h460v402q-103 0-225.5 65.5t-195 191T244 983q0 136 69.5 261T507 1438t261 69q136 0 260.5-69.5t193.5-194 69-260.5q0-209-143.5-360.5T796 461zm-29 990q-118 0-230.5-60.5T361 1217t-63-235q0-195 137.5-332.5T767 512q195 0 332.5 137.5T1237 982q0 122-63 235t-175.5 173.5T767 1451z"/><glyph glyph-name="male" unicode="♂" horiz-adv-x="1536" d="m1216 1620 36-16 163-666-57-15-142 581-358-768q148-75 224-202t76-272q0-136-69-260.5t-193.5-194T634-262q-136 0-260.5 69.5T180 1.5 111 262q0 217 153.5 370T637 785q78 0 166-27l360 771-537-265-24 53zM634 731q-118 0-230.5-60.5T228 497t-63-235q0-195 137.5-332.5T634-208q195 0 332.5 137.5T1104 262q0 122-63 235T865.5 670.5 634 731z"/><glyph glyph-name="spade" unicode="♠" horiz-adv-x="1344" d="M673 1231q26-108 80-193t192.5-210.5 175.5-193 37-136.5q0-95-64-159t-154-64q-82 0-154 57-54 42-101 133 1-147 38.5-233.5T843 95.5 1062 37l7-37H277l7 37q184 0 285.5 107.5T667 465q-45-95-111.5-142.5T406 275q-90 0-155 65t-65 154q0 74 32 133 45 83 146.5 166T514 930q74 83 107.5 148t51.5 153z"/><glyph glyph-name="club" unicode="♣" horiz-adv-x="1344" d="M1098 0H250l8 34q165 35 219 69 81 51 132.5 151T661 464q0 16-1 47-61-124-148.5-181T333 273q-116 0-197 81T55 553q0 116 74 195.5T294 830q63-2 166-53-42 69-54.5 105T393 959q0 115 79 193.5t198 78.5q117 0 197.5-78.5T948 963q0-88-69-186 84 40 101 45 27 8 61 8 100 0 173.5-78.5T1288 557q0-120-80.5-201.5T1011 273q-77 4-134.5 33T769 386q-35 37-87 125 4-159 48.5-251.5T867 106q62-41 223-72z"/><glyph glyph-name="heart" unicode="♥" horiz-adv-x="1344" d="M674-24q-31 118-88.5 221.5T363 519Q242 679 214 722q-46 70-66.5 128.5T127 969q0 111 74 186t180 76q113-1 194-79 61-58 99-173 32 112 92 171 83 81 191 81 109 0 184.5-74t75.5-176q0-91-43.5-188T1003 536Q839 329 764 196 705 91 674-24z"/><glyph glyph-name="diamond" unicode="♦" horiz-adv-x="1344" d="M671 1234q88-154 218-327 150-200 242-303-74-78-242-302Q753 120 671-24q-27 52-74 121-81 120-201 279-26 35-183 228 101 115 260 328 118 158 198 302z"/><glyph glyph-name="musicalnote" unicode="♪" horiz-adv-x="1024" d="M486 1363h38q172 0 227-14 79-20 139-77 45-42 71-118.5T987 975V872h-99v43q0 68-28.5 115.5T775 1103q-73 32-162 32h-28V300q0-121-32-188.5T443 3.5 273-37q-109 0-172.5 61.5T37 186q0 105 76 176.5T312 434q78 0 174-46v975z"/><glyph glyph-name="musicalnotedbl" unicode="♫" horiz-adv-x="1536" d="m534 1271 796 248V411q0-124-31.5-187t-107-104T1021 79q-109 0-174 62.5T782 303q0 100 77 172.5t199 72.5q40 0 70.5-7t99.5-36v724l-595-185V208q0-121-32-188.5T491-88t-170-40q-109 0-172.5 61.5T85 94q0 105 76 176.5T360 342q78 0 174-46v975z"/><glyph glyph-name="fi1" horiz-adv-x="1148" d="M1075 1619v-211H659v211h416zm-488 0v-205q-125 0-147.5-11.5T417 1337v-42h170v-210h-96V0H87v1085H4v210h83q0 131 9 175t44.5 78.5T240 1601t199 18h148zm488-292V0H659v1327h416z"/><glyph glyph-name="fl1" horiz-adv-x="1145" d="M587 1619v-205q-125 0-147.5-11.5T417 1337v-42h170v-210h-96V0H87v1085H4v210h83q0 131 9 175t44.5 78.5T240 1601t199 18h148zm485 0V0H656v1619h416z"/><glyph glyph-name="commaaccent" horiz-adv-x="344" d="M36 1620h272v-84q0-322-272-379v117q58 35 67 90H36v256z"/><glyph glyph-name="undercommaaccent" horiz-adv-x="344" d="M36-72h272v-84q0-322-272-379v117q58 35 67 90H36v256z"/><glyph glyph-name="currency" unicode="¤" horiz-adv-x="1123" d="m814 1061 132 133 140-142-131-133q73-121 73-249 0-135-73-254l131-130-140-141-132 129q-59-37-123-55.5T559 200q-65 0-127.5 18.5T309 274L179 145 36 286l132 130Q94 535 94 670q0 126 74 249L36 1052l140 142 133-133q62 37 124.5 55.5T560 1135t127.5-18.5T814 1061zM293 674q0-119 80-196.5T561 400q111 0 189.5 78.5T829 667q0 111-78.5 189.5T561 935q-115 0-191.5-81.5T293 674z"/><glyph glyph-name="uni0218" unicode="Ș" horiz-adv-x="1059" d="M976 1129H585v120q0 84-15 107t-50 23q-38 0-57.5-31t-19.5-94q0-81 22-122 21-41 119-99 281-167 354-274t73-345q0-173-40.5-255T814 21.5 544-34q-169 0-288.5 64T99 193 62 474v106h391V383q0-91 16.5-117t58.5-26 62.5 33 20.5 98q0 143-39 187-40 44-197 147-157 104-208 151T82.5 986 49 1198q0 186 47.5 272T250 1604.5t256 48.5q164 0 279.5-53t153-133.5T976 1193v-64zM396-72h272v-84q0-322-272-379v117q58 35 67 90h-67v256z"/><glyph glyph-name="uni0219" unicode="ș" horiz-adv-x="964" d="M897 903H539v72q0 92-10.5 116.5T476 1116q-34 0-51-22.5t-17-67.5q0-61 8.5-89.5t51-62.5T642 775q176-86 231-162t55-221q0-162-42-244.5t-140.5-127T508-24q-154 0-263.5 48T94 154 53 402v64h358v-84q0-107 13.5-139t53.5-32q43 0 60 21.5t17 90.5q0 95-22 119-23 24-235 142Q120 684 81 765.5T42 959q0 159 42 234.5T226.5 1310t233.5 41q132 0 224.5-33.5t142-88.5 60-102T897 980v-77zM356-72h272v-84q0-322-272-379v117q58 35 67 90h-67v256z"/><glyph glyph-name="uni021A" unicode="Ț" horiz-adv-x="944" d="M932 1619v-324H682V0H261v1295H12v324h920zM336-80h272v-84q0-322-272-379v117q58 35 67 90h-67v256z"/><glyph glyph-name="uni021B" unicode="ț" horiz-adv-x="624" d="M498 1504v-209h109v-210H498V375q0-131 13.5-146T624 214V0H461Q323 0 264 11.5t-104 53-56 95T93 411v674H6v210h87v209h405zM206-80h272v-84q0-322-272-379v117q58 35 67 90h-67v256z"/><glyph glyph-name="glyph665" horiz-adv-x="561" d="M488 1619v-211H72v211h416zm0-292V0H72v1327h416zm138 614-329-271H94l176 271h356z"/></font>
</defs>
</svg>
