<svg width="24" height="24" viewBox="0 0 24 24" fill="none" xmlns="http://www.w3.org/2000/svg">
<g clip-path="url(#clip0_2_4)">
<path d="M4.22183 5.63604C3.84675 6.01111 3.63604 6.51982 3.63604 7.05025C3.63604 7.58069 3.84675 8.08939 4.22183 8.46447L7.75736 12L4.22183 15.5355C3.84675 15.9106 3.63604 16.4193 3.63604 16.9497C3.63604 17.4802 3.84675 17.9889 4.22183 18.364L5.63604 19.7782C6.41386 20.556 7.68665 20.556 8.46447 19.7782L12 16.2426L15.5355 19.7782C16.3134 20.556 17.5861 20.556 18.364 19.7782L19.7782 18.364C20.1532 17.9889 20.364 17.4802 20.364 16.9497C20.364 16.4193 20.1532 15.9106 19.7782 15.5355L16.2426 12L19.7782 8.46447C20.1532 8.08939 20.364 7.58069 20.364 7.05025C20.364 6.51982 20.1532 6.01111 19.7782 5.63604L18.364 4.22183C17.9889 3.84675 17.4802 3.63604 16.9497 3.63604C16.4193 3.63604 15.9106 3.84675 15.5355 4.22183L12 7.75736L8.46447 4.22183C8.08939 3.84675 7.58068 3.63604 7.05025 3.63604C6.51982 3.63604 6.01111 3.84675 5.63604 4.22183L4.22183 5.63604Z" stroke="white" stroke-width="2" stroke-linecap="round" stroke-linejoin="round"/>
</g>
<defs>
<clipPath id="clip0_2_4">
<rect width="24" height="24" fill="white"/>
</clipPath>
</defs>
</svg>
