<svg width="24" height="24" viewBox="0 0 24 24" fill="none" xmlns="http://www.w3.org/2000/svg"><g clip-path="url(#a)"><path d="M4.222 5.636a2 2 0 0 0 0 2.828L7.757 12l-3.535 3.536a2 2 0 0 0 0 2.828l1.414 1.414c.778.778 2.05.778 2.828 0L12 16.243l3.536 3.535c.777.778 2.05.778 2.828 0l1.414-1.414a2 2 0 0 0 0-2.829L16.243 12l3.535-3.536a2 2 0 0 0 0-2.828l-1.414-1.414a2 2 0 0 0-2.829 0L12 7.757 8.464 4.222a2 2 0 0 0-2.828 0L4.222 5.636Z" stroke="#fff" stroke-width="2" stroke-linecap="round" stroke-linejoin="round"/></g><defs><clipPath id="a"><path fill="#fff" d="M0 0h24v24H0z"/></clipPath></defs></svg>