<svg width="24" height="24" viewBox="0 0 24 24" fill="none" xmlns="http://www.w3.org/2000/svg">
<g clip-path="url(#clip0_133_6)">
<path d="M9.13311 5.76645C9.12487 5.67739 9.14359 5.58791 9.18686 5.50963C9.23012 5.43135 9.29591 5.36788 9.3757 5.32747C9.4555 5.28706 9.54559 5.27157 9.6343 5.28302C9.723 5.29446 9.80622 5.33232 9.87313 5.39166L21.7495 15.4454C21.8216 15.5067 21.8727 15.5891 21.8954 15.681C21.9181 15.7728 21.9113 15.8696 21.8759 15.9573C21.8405 16.0451 21.7784 16.1196 21.6983 16.1701C21.6183 16.2205 21.5243 16.2445 21.4299 16.2386L15.7431 15.8736C15.4219 15.8527 15.1009 15.9182 14.8136 16.0633C14.5263 16.2085 14.2831 16.4279 14.1093 16.6989L11.0389 21.5012C10.9877 21.5809 10.9128 21.6424 10.8247 21.6771C10.7367 21.7117 10.6399 21.7178 10.5482 21.6943C10.4565 21.6709 10.3745 21.6192 10.3139 21.5465C10.2532 21.4738 10.217 21.3839 10.2103 21.2895L9.13311 5.76645Z" stroke="white" stroke-width="2" stroke-linecap="round" stroke-linejoin="round"/>
</g>
<defs>
<clipPath id="clip0_133_6">
<rect width="24" height="24" fill="white"/>
</clipPath>
</defs>
</svg>
