<svg width="24" height="24" viewBox="0 0 24 24" fill="none" xmlns="http://www.w3.org/2000/svg">
<path d="M13 4H16C16.5304 4 17.0391 4.21071 17.4142 4.58579C17.7893 4.96086 18 5.46957 18 6V20" stroke="white" stroke-width="2" stroke-linecap="round" stroke-linejoin="round"/>
<path d="M2 20H5" stroke="white" stroke-width="2" stroke-linecap="round" stroke-linejoin="round"/>
<path d="M13 20H22" stroke="white" stroke-width="2" stroke-linecap="round" stroke-linejoin="round"/>
<path d="M10 12V12.01" stroke="white" stroke-width="2" stroke-linecap="round" stroke-linejoin="round"/>
<path d="M13 4.562V20.719C13 20.8709 12.9653 21.0208 12.8987 21.1573C12.8321 21.2938 12.7352 21.4133 12.6155 21.5068C12.4958 21.6003 12.3564 21.6653 12.2078 21.6969C12.0592 21.7285 11.9054 21.7258 11.758 21.689L5 20V5.562C5.00007 5.11601 5.1492 4.68284 5.42371 4.33133C5.69821 3.97982 6.08232 3.73015 6.515 3.622L10.515 2.622C10.8098 2.54832 11.1174 2.54277 11.4146 2.60575C11.7118 2.66874 11.9908 2.79861 12.2303 2.98551C12.4699 3.17241 12.6637 3.41143 12.797 3.68441C12.9304 3.9574 12.9998 4.25818 13 4.562Z" stroke="white" stroke-width="2" stroke-linecap="round" stroke-linejoin="round"/>
</svg>
