<svg width="24" height="20" viewBox="0 0 24 20" fill="none" xmlns="http://www.w3.org/2000/svg">
<path d="M11.3625 19.3375C11.0625 19.3375 10.7625 19.225 10.5 19.0375L1.53751 11.8375C0.975012 11.3875 0.637512 10.7125 0.637512 10C0.637512 9.2875 0.975012 8.6125 1.53751 8.1625L10.5 0.962504C10.9125 0.625004 11.475 0.587504 11.925 0.812504C12.4125 1.0375 12.675 1.525 12.675 2.05V5.875C15.7125 6.3625 18.4875 7.7125 20.5875 9.775C22.05 11.275 22.7625 12.6625 23.175 14.7625C23.25 15.2125 23.325 16.0375 23.325 17.125C23.325 17.6125 23.0625 18.1 22.6125 18.325C22.1625 18.55 21.6375 18.55 21.225 18.2875C18.075 16.2625 15.15 15.025 12.675 14.65V18.025C12.675 18.55 12.375 19 11.925 19.2625C11.7375 19.3 11.55 19.3375 11.3625 19.3375ZM10.9875 2.75514L2.62501 9.475C2.36251 9.625 2.32501 9.8875 2.32501 10C2.32501 10.1125 2.36251 10.3375 2.58751 10.525L10.9875 17.275V13.675C10.9875 13.45 11.1 13.225 11.25 13.075C11.4375 12.925 11.6625 12.8125 11.8875 12.85C15.375 13.075 19.0125 14.875 21.6375 16.525C21.6 15.6625 21.5625 15.25 21.525 15.1C21.1875 13.3375 20.625 12.25 19.3875 10.975C17.4 9.025 14.7 7.75 11.7375 7.45C11.325 7.4125 10.9875 7.0375 10.9875 6.625V2.75514Z" fill="white"/>
<path d="M11.3625 19.3375C11.0625 19.3375 10.7625 19.225 10.5 19.0375L1.53751 11.8375C0.975012 11.3875 0.637512 10.7125 0.637512 10C0.637512 9.2875 0.975012 8.6125 1.53751 8.1625L10.5 0.962504C10.9125 0.625004 11.475 0.587504 11.925 0.812504C12.4125 1.0375 12.675 1.525 12.675 2.05V5.875C15.7125 6.3625 18.4875 7.7125 20.5875 9.775C22.05 11.275 22.7625 12.6625 23.175 14.7625C23.25 15.2125 23.325 16.0375 23.325 17.125C23.325 17.6125 23.0625 18.1 22.6125 18.325C22.1625 18.55 21.6375 18.55 21.225 18.2875C18.075 16.2625 15.15 15.025 12.675 14.65V18.025C12.675 18.55 12.375 19 11.925 19.2625C11.7375 19.3 11.55 19.3375 11.3625 19.3375ZM10.9875 2.75514L2.62501 9.475C2.36251 9.625 2.32501 9.8875 2.32501 10C2.32501 10.1125 2.36251 10.3375 2.58751 10.525L10.9875 17.275V13.675C10.9875 13.45 11.1 13.225 11.25 13.075C11.4375 12.925 11.6625 12.8125 11.8875 12.85C15.375 13.075 19.0125 14.875 21.6375 16.525C21.6 15.6625 21.5625 15.25 21.525 15.1C21.1875 13.3375 20.625 12.25 19.3875 10.975C17.4 9.025 14.7 7.75 11.7375 7.45C11.325 7.4125 10.9875 7.0375 10.9875 6.625V2.75514Z" stroke="white"/>
</svg>
