<svg width="27" height="27" viewBox="0 0 27 27" fill="none" xmlns="http://www.w3.org/2000/svg">
<path d="M14 8C14 6.93913 13.5786 5.92172 12.8284 5.17157C12.0783 4.42143 11.0609 4 10 4H4V7M14 8V22M14 8C14 6.93913 14.4214 5.92172 15.1716 5.17157C15.9217 4.42143 16.9391 4 18 4H24V19H17C16.2044 19 15.4413 19.3161 14.8787 19.8787C14.3161 20.4413 14 21.2044 14 22M14 22C14 21.2044 13.6839 20.4413 13.1213 19.8787C12.5587 19.3161 11.7956 19 11 19H9.5" stroke="white" stroke-width="2" stroke-linecap="round" stroke-linejoin="round"/>
<path d="M2 14H10M6 10V18" stroke="white" stroke-width="2" stroke-linecap="round" stroke-linejoin="round"/>
</svg>
