<svg width="24" height="24" viewBox="0 0 24 24" fill="none" xmlns="http://www.w3.org/2000/svg">
<path d="M18.37 2.63L14 7L12.41 5.41C12.0353 5.0375 11.5284 4.82842 11 4.82842C10.4716 4.82842 9.96473 5.0375 9.59 5.41L8 7L17 16L18.59 14.41C18.9625 14.0353 19.1716 13.5284 19.1716 13C19.1716 12.4716 18.9625 11.9647 18.59 11.59L17 10L21.37 5.63C21.7678 5.23218 21.9913 4.69261 21.9913 4.13C21.9913 3.56739 21.7678 3.02783 21.37 2.63C20.9722 2.23218 20.4326 2.00868 19.87 2.00868C19.3074 2.00868 18.7678 2.23218 18.37 2.63Z" stroke="white" stroke-width="2" stroke-linecap="round" stroke-linejoin="round"/>
<path d="M9 8C7 11 5 11.5 2 12L10 22C12 21 16 17 16 15" stroke="white" stroke-width="2" stroke-linecap="round" stroke-linejoin="round"/>
<path d="M14.5 17.5L4.5 15" stroke="white" stroke-width="2" stroke-linecap="round" stroke-linejoin="round"/>
</svg>
