<svg width="814" height="259" viewBox="0 0 814 259" fill="none" xmlns="http://www.w3.org/2000/svg">
<path d="M372.731 210.148C372.734 214.859 371.122 218.707 367.891 221.688C364.663 224.672 360.535 226.165 355.508 226.17L288.118 226.237C283.091 226.242 278.987 224.757 275.807 221.78C272.625 218.805 271.034 214.958 271.031 210.248L270.907 16.5861C270.904 11.8769 272.491 8.02918 275.669 5.04547C278.844 2.06421 282.95 0.566188 287.974 0.561199L355.364 0.494283C360.388 0.489294 364.519 1.97669 367.753 4.95403C370.987 7.93137 372.604 11.7759 372.607 16.4851L372.731 210.148ZM364.155 199.74L343.947 20.5748C343.048 12.5974 335.418 6.8175 326.907 7.66462L293.269 11.0111C284.757 11.8582 278.587 19.0113 279.486 26.9887L299.693 206.154C300.593 214.131 308.222 219.911 316.734 219.064L350.372 215.718C358.884 214.87 365.054 207.717 364.155 199.74Z" fill="white"/>
<path d="M55.7186 188.793C55.7206 191.947 54.624 194.522 52.4287 196.517C50.2334 198.515 47.4531 199.515 44.0878 199.518L11.5565 199.551C8.19122 199.554 5.44356 198.559 3.31615 196.566C1.18612 194.573 0.120107 191.999 0.118096 188.848L0.033205 55.8306C0.0311936 52.6789 1.09392 50.1031 3.2214 48.1058C5.34888 46.1085 8.09526 45.1082 11.458 45.1049L43.9501 45.0726C47.3128 45.0693 50.0943 46.0641 52.2948 48.0571C54.4926 50.0501 55.5926 52.6237 55.5946 55.7754L55.617 90.9112L41.1984 90.9255L41.1884 75.2208C41.1868 72.8197 39.109 70.8779 36.5498 70.8805L18.9955 70.8979C16.4337 70.9004 14.361 72.8488 14.3625 75.2474L14.4249 173.112C14.4265 175.513 16.5043 177.455 19.0635 177.452L36.657 177.434C39.2188 177.432 41.2915 175.484 41.29 173.085L41.2741 148.175L55.6927 148.16L55.7186 188.795L55.7186 188.793Z" fill="white"/>
<path d="M590.611 188.261C590.613 191.415 589.516 193.991 587.321 195.986C585.126 197.983 582.345 198.983 578.98 198.987L546.449 199.019C543.084 199.022 540.336 198.027 538.208 196.034C536.078 194.041 535.012 191.468 535.01 188.316L534.926 55.2988C534.924 52.1471 535.986 49.5714 538.114 47.5741C540.241 45.5768 542.988 44.5765 546.35 44.5732L578.842 44.5409C582.205 44.5375 584.987 45.5324 587.187 47.5254C589.385 49.5184 590.485 52.092 590.487 55.2437L590.509 90.3794L576.091 90.3938L576.081 74.689C576.079 72.288 574.001 70.3462 571.442 70.3487L553.888 70.3662C551.326 70.3687 549.253 72.317 549.255 74.7157L549.317 172.58C549.319 174.981 551.397 176.923 553.956 176.92L571.549 176.903C574.111 176.9 576.184 174.952 576.182 172.553L576.166 147.643L590.585 147.628L590.611 188.263L590.611 188.261Z" fill="white"/>
<path d="M144.426 199.418L130.112 199.432L130.082 152.156C130.08 149.78 128.023 147.852 125.485 147.855L107.737 147.873C105.202 147.875 103.145 149.804 103.146 152.183L103.176 199.458L88.862 199.473L88.7634 45.0269L103.078 45.0127L103.124 117.93C103.126 120.306 105.183 122.234 107.721 122.231L125.468 122.213C128.004 122.211 130.061 120.282 130.06 117.903L130.013 44.9859L144.327 44.9717L144.426 199.418Z" fill="white"/>
<path d="M238.638 199.324L224.906 199.338L198.735 126.288C198.445 125.476 198.577 124.586 199.088 123.879L199.411 123.431C199.925 122.722 200.778 122.296 201.693 122.295L219.876 122.277C222.412 122.274 224.469 120.345 224.468 117.966L224.441 76.0111C224.439 73.6345 222.382 70.6927 219.843 70.6952L198.579 70.7163C192.305 70.5709 190.918 72.1201 190.903 76.0444L190.981 199.369L177.562 199.383L177.463 44.9392L227.301 44.8898C230.664 44.8864 233.411 45.8813 235.541 47.8743C237.671 49.8674 238.737 52.441 238.739 55.5927L238.791 136.997C238.796 144.268 233.557 147.758 223.122 147.937C222.128 147.921 220.514 147.947 219.971 147.94C219.796 147.94 219.702 148.089 219.77 148.234C220.578 150.001 228.055 176.094 238.638 199.324Z" fill="white"/>
<path d="M465.105 199.1L451.349 199.113L423.595 147.738L423.628 199.141L410.136 199.154L410.037 44.7083L423.728 44.6947L423.769 108.629L451.269 160.151L451.196 44.6674L465.004 44.6537L465.102 199.1L465.105 199.1Z" fill="white"/>
<path d="M507.221 199.129L492.904 199.143L492.805 44.626L507.122 44.6118L507.221 199.129Z" fill="white"/>
<path d="M659.659 198.906L623.045 198.943C620.489 198.945 618.416 197.006 618.414 194.61L618.319 44.5015L632.633 44.4873L632.712 168.367C632.713 170.734 634.763 172.651 637.288 172.649L659.642 172.627L659.659 198.909L659.659 198.906Z" fill="white"/>
<path d="M730.569 198.836L692.046 198.874C689.512 198.877 687.455 196.955 687.454 194.578L687.361 48.734C687.359 46.3599 689.411 44.4311 691.947 44.4286L729.855 44.3909L729.871 70.1914L706.28 70.2148C703.747 70.2173 701.693 72.1437 701.694 74.5203L701.722 117.343C701.723 119.718 703.777 121.642 706.313 121.64L719.43 121.627L719.446 147.434L706.33 147.448C703.796 147.45 701.742 149.376 701.744 151.753L701.755 168.996C701.756 171.37 703.81 173.295 706.346 173.292L730.555 173.268L730.572 198.839L730.569 198.836Z" fill="white"/>
<path d="M813.448 188.04C813.45 191.194 812.403 193.77 810.309 195.765C808.215 197.762 805.487 198.762 802.125 198.765L769.901 198.797C766.536 198.801 763.773 197.806 761.609 195.813C759.445 193.82 758.361 191.246 758.359 188.095L758.333 147.494L772.649 147.48L772.663 168.855C772.665 171.248 774.737 173.188 777.291 173.185L794.496 173.168C797.05 173.166 799.12 171.222 799.119 168.828L799.106 149.072C799.105 148.062 798.729 147.087 798.042 146.31L762.936 97.1599C759.845 93.6885 758.296 89.8611 758.293 85.6776L758.274 55.0774C758.272 51.9257 759.353 49.35 761.514 47.3526C763.675 45.3553 766.437 44.355 769.803 44.3516L802.026 44.3196C805.389 44.3163 808.121 45.3112 810.214 47.3043C812.31 49.2974 813.361 51.871 813.363 55.0227L813.385 90.1585L799.068 90.1727L799.058 74.3897C799.057 71.996 796.984 70.0566 794.43 70.0592L777.225 70.0763C774.671 70.0788 772.601 72.0222 772.603 74.416L772.611 86.5093C772.611 87.5216 772.99 88.5017 773.682 89.2785L808.986 138.426C811.939 141.771 813.421 145.535 813.423 149.716L813.448 188.037L813.448 188.04Z" fill="white"/>
<path d="M543.67 226.822L533.568 226.831L533.584 248.969L531.108 248.971L531.093 226.833L520.991 226.843L520.99 224.754L543.665 224.733L543.667 226.822L543.67 226.822Z" fill="white"/>
<path d="M569.972 242.435C569.974 244.541 569.158 246.148 567.526 247.265C565.894 248.381 563.442 248.939 560.176 248.942L548.987 248.952L548.97 224.726L559.862 224.716C562.734 224.713 564.986 225.244 566.622 226.311C568.256 227.379 569.073 228.901 569.075 230.88C569.076 232.303 568.657 233.487 567.815 234.431C566.973 235.376 565.794 236.05 564.276 236.454C568.072 237.07 569.973 239.063 569.975 242.435L569.972 242.435ZM551.401 235.769L559.718 235.762C561.928 235.76 563.628 235.364 564.817 234.574C566.006 233.783 566.598 232.645 566.597 231.161C566.596 229.676 566.008 228.508 564.836 227.751C563.664 226.994 561.955 226.617 559.712 226.619L551.395 226.626L551.401 235.769ZM567.497 242.345C567.495 240.704 566.934 239.499 565.811 238.727C564.689 237.956 562.923 237.571 560.512 237.573L551.402 237.581L551.409 247.05L560.122 247.042C565.04 247.037 567.499 245.472 567.497 242.347L567.497 242.345Z" fill="white"/>
<path d="M582.475 247.528C580.51 246.478 578.965 245.017 577.842 243.145C576.719 241.275 576.156 239.163 576.155 236.811C576.153 234.458 576.712 232.347 577.833 230.473C578.953 228.601 580.497 227.137 582.461 226.082C584.424 225.028 586.626 224.501 589.07 224.498C591.514 224.496 593.717 225.02 595.682 226.069C597.647 227.119 599.19 228.58 600.315 230.452C601.438 232.324 602.001 234.434 602.002 236.787C602.004 239.139 601.444 241.25 600.324 243.124C599.203 244.998 597.66 246.462 595.696 247.515C593.733 248.569 591.529 249.097 589.087 249.099C586.645 249.101 584.44 248.577 582.475 247.528ZM594.406 245.707C595.974 244.84 597.209 243.631 598.116 242.084C599.023 240.536 599.476 238.772 599.474 236.791C599.473 234.811 599.018 233.048 598.109 231.501C597.2 229.954 595.96 228.749 594.394 227.885C592.826 227.021 591.052 226.59 589.072 226.592C587.091 226.593 585.318 227.028 583.75 227.895C582.183 228.762 580.945 229.971 580.041 231.518C579.134 233.066 578.681 234.83 578.683 236.811C578.684 238.791 579.139 240.554 580.048 242.101C580.957 243.648 582.194 244.853 583.763 245.717C585.331 246.581 587.105 247.012 589.085 247.01C591.066 247.009 592.839 246.574 594.406 245.707Z" fill="white"/>
<path d="M610.061 224.665L612.537 224.663L612.551 245.316L630.954 224.646L633.132 224.644L633.149 248.87L630.673 248.872L630.659 228.219L612.256 248.889L610.078 248.891L610.061 224.665ZM616.444 219.439C615.154 218.435 614.493 217.034 614.461 215.239L616.292 215.238C616.324 216.507 616.828 217.511 617.805 218.254C618.778 218.996 620.01 219.367 621.494 219.365C622.978 219.364 624.199 218.991 625.156 218.247C626.113 217.503 626.608 216.497 626.638 215.228L628.519 215.226C628.486 217.021 627.827 218.423 626.542 219.429C625.254 220.435 623.572 220.941 621.492 220.943C619.413 220.945 617.73 220.445 616.441 219.439L616.444 219.439Z" fill="white"/>
<path d="M677.556 242.329C677.558 244.434 676.742 246.042 675.11 247.158C673.478 248.275 671.026 248.832 667.76 248.835L656.571 248.845L656.554 224.619L667.446 224.609C670.318 224.607 672.57 225.138 674.206 226.205C675.84 227.272 676.658 228.795 676.659 230.773C676.66 232.196 676.241 233.38 675.399 234.325C674.557 235.269 673.378 235.943 671.86 236.348C675.656 236.963 677.557 238.957 677.559 242.329L677.556 242.329ZM658.985 235.663L667.302 235.655C669.512 235.653 671.212 235.258 672.401 234.467C673.59 233.676 674.182 232.538 674.181 231.054C674.18 229.57 673.592 228.401 672.42 227.644C671.248 226.887 669.539 226.51 667.296 226.512L658.979 226.52L658.985 235.663ZM675.081 242.238C675.079 240.597 674.518 239.392 673.395 238.621C672.273 237.849 670.507 237.464 668.096 237.466L658.987 237.475L658.993 246.943L667.706 246.935C672.624 246.931 675.083 245.366 675.081 242.241L675.081 242.238Z" fill="white"/>
<path d="M703.893 235.364C705.577 236.646 706.421 238.526 706.422 241.001C706.424 243.475 705.533 245.535 703.752 246.896C701.972 248.26 699.397 248.928 696.029 248.899L686.374 248.815L686.357 224.589L688.833 224.586L688.839 233.311L696.564 233.397C699.765 233.426 702.21 234.082 703.893 235.364ZM701.92 245.553C703.273 244.53 703.948 243.015 703.947 241.003C703.945 238.99 703.284 237.609 701.964 236.664C700.643 235.721 698.629 235.222 695.923 235.161L688.843 235.121L688.851 246.957L695.931 247.043C698.571 247.072 700.567 246.574 701.92 245.553ZM711.164 224.566L713.64 224.563L713.657 248.79L711.181 248.792L711.164 224.566Z" fill="white"/>
<path d="M742.679 226.416C744.545 227.419 746.007 228.819 747.064 230.613C748.122 232.407 748.65 234.48 748.652 236.829C748.654 239.179 748.118 241.278 747.047 243.12C745.976 244.962 744.474 246.402 742.545 247.44C740.615 248.479 738.411 248.999 735.935 249.002C733.097 249.004 730.678 248.356 728.682 247.059C726.683 245.763 725.163 243.923 724.123 241.542C723.081 239.161 722.56 236.377 722.558 233.191C722.555 229.572 723.023 226.571 723.963 224.186C724.903 221.803 726.318 219.922 728.216 218.543C730.112 217.165 732.548 216.133 735.516 215.451L746.95 212.841L747.348 215.022L736.459 217.445C733.785 218.037 731.616 218.897 729.949 220.026C728.283 221.157 727.037 222.696 726.214 224.646C725.391 226.596 724.963 229.088 724.934 232.12C725.79 229.891 727.224 228.134 729.237 226.849C731.25 225.563 733.592 224.918 736.266 224.915C738.674 224.913 740.813 225.415 742.679 226.418L742.679 226.416ZM741.231 245.7C742.783 244.833 743.984 243.632 744.842 242.1C745.699 240.569 746.128 238.827 746.127 236.878C746.126 234.929 745.694 233.206 744.835 231.705C743.975 230.205 742.777 229.047 741.243 228.229C739.708 227.411 737.95 227.002 735.97 227.004C733.99 227.006 732.224 227.418 730.672 228.239C729.121 229.059 727.916 230.222 727.059 231.722C726.202 233.224 725.775 234.948 725.777 236.897C725.778 238.846 726.207 240.587 727.066 242.117C727.926 243.646 729.132 244.846 730.684 245.71C732.237 246.574 734.004 247.006 735.983 247.004C737.963 247.002 739.68 246.567 741.231 245.7Z" fill="white"/>
<path d="M760.466 247.352C758.501 246.302 756.956 244.841 755.832 242.969C754.709 241.099 754.147 238.987 754.146 236.635C754.144 234.282 754.703 232.171 755.824 230.297C756.944 228.425 758.488 226.962 760.451 225.906C762.415 224.853 764.616 224.325 767.061 224.323C769.505 224.32 771.708 224.844 773.673 225.894C775.638 226.943 777.181 228.404 778.306 230.276C779.429 232.148 779.992 234.258 779.993 236.611C779.995 238.963 779.435 241.074 778.315 242.948C777.194 244.823 775.651 246.286 773.687 247.34C771.724 248.393 769.522 248.921 767.078 248.923C764.633 248.925 762.431 248.402 760.466 247.352ZM772.397 245.531C773.965 244.664 775.2 243.455 776.107 241.909C777.014 240.36 777.467 238.596 777.465 236.616C777.464 234.635 777.009 232.872 776.1 231.325C775.191 229.778 773.951 228.574 772.385 227.709C770.817 226.845 769.042 226.414 767.062 226.416C765.082 226.418 763.309 226.852 761.741 227.719C760.174 228.586 758.936 229.795 758.032 231.342C757.125 232.891 756.672 234.654 756.673 236.635C756.675 238.616 757.13 240.378 758.039 241.925C758.948 243.472 760.185 244.677 761.754 245.541C763.322 246.405 765.096 246.836 767.076 246.835C769.056 246.833 770.83 246.398 772.397 245.531Z" fill="white"/>
<path d="M807.611 225.865C809.557 226.914 811.084 228.368 812.194 230.223C813.302 232.078 813.856 234.197 813.858 236.579C813.86 238.961 813.308 241.089 812.203 242.963C811.098 244.837 809.573 246.291 807.625 247.33C805.677 248.368 803.499 248.889 801.091 248.891C798.814 248.893 796.75 248.391 794.902 247.388C793.052 246.385 791.616 244.985 790.593 243.191L790.603 257.716L788.127 257.718L788.104 224.489L790.481 224.487L790.485 230.194C791.506 228.337 792.95 226.891 794.815 225.85C796.679 224.811 798.766 224.291 801.077 224.289C803.389 224.286 805.666 224.81 807.613 225.86L807.611 225.865ZM806.288 245.497C807.871 244.63 809.117 243.421 810.024 241.874C810.931 240.326 811.384 238.562 811.382 236.581C811.381 234.601 810.926 232.838 810.017 231.291C809.108 229.744 807.86 228.54 806.276 227.675C804.692 226.811 802.907 226.38 800.927 226.382C798.947 226.384 797.174 226.818 795.606 227.685C794.039 228.552 792.801 229.762 791.897 231.308C790.99 232.857 790.537 234.62 790.539 236.601C790.54 238.581 790.995 240.344 791.904 241.891C792.813 243.438 794.05 244.643 795.619 245.507C797.187 246.371 798.961 246.802 800.941 246.8C802.921 246.799 804.703 246.364 806.288 245.497Z" fill="white"/>
</svg>
