<svg width="24" height="24" viewBox="0 0 24 24" fill="none" xmlns="http://www.w3.org/2000/svg">
<path d="M10 11H10.01" stroke="white" stroke-width="2" stroke-linecap="round" stroke-linejoin="round"/>
<path d="M14 6H14.01" stroke="white" stroke-width="2" stroke-linecap="round" stroke-linejoin="round"/>
<path d="M18 6H18.01" stroke="white" stroke-width="2" stroke-linecap="round" stroke-linejoin="round"/>
<path d="M6.5 13.1H6.51" stroke="white" stroke-width="2" stroke-linecap="round" stroke-linejoin="round"/>
<path d="M22 5C22 14 18 17 16 17C14 17 10 14 10 5C10 3 12 2 16 2C20 2 22 3 22 5Z" stroke="white" stroke-width="2" stroke-linecap="round" stroke-linejoin="round"/>
<path d="M17.4 9.89999C16.6 10.7 15.4 10.7 14.6 9.89999" stroke="white" stroke-width="2" stroke-linecap="round" stroke-linejoin="round"/>
<path d="M10.1 7.10001C9.00001 7.20001 7.70001 7.70001 6.00001 8.60001C2.50001 10.6 1.30001 12.5 2.30001 14.2C6.80001 22 11.8 22.6 13.5 21.6C14.4 21.1 15.4 19.5 15.4 16.9" stroke="white" stroke-width="2" stroke-linecap="round" stroke-linejoin="round"/>
<path d="M9.10001 16.5C9.40001 15.4 10.5 14.8 11.5 15.1" stroke="white" stroke-width="2" stroke-linecap="round" stroke-linejoin="round"/>
</svg>
